<svg xmlns="http://www.w3.org/2000/svg" xmlns:xlink="http://www.w3.org/1999/xlink" version="1.1" width="256" height="256" viewBox="0 0 256 256" xml:space="preserve">
<g style="stroke: none; stroke-width: 0; stroke-dasharray: none; stroke-linecap: butt; stroke-linejoin: miter; stroke-miterlimit: 10; fill: none; fill-rule: nonzero; opacity: 1;" transform="translate(1.4065934065934016 1.4065934065934016) scale(2.81 2.81)">
	<path d="M 1.865 31.044 L 1.865 31.044 c 1.526 -2.196 4.544 -2.74 6.74 -1.214 l 14.329 9.955 c 1.649 -0.999 3.577 -1.585 5.646 -1.585 h 5.152 c 6.032 0 10.921 4.89 10.921 10.921 v 25.346 H 17.658 V 49.121 c 0 -0.394 0.023 -0.782 0.064 -1.164 L 3.079 37.784 C 0.883 36.258 0.339 33.24 1.865 31.044 z" style="stroke: none; stroke-width: 1; stroke-dasharray: none; stroke-linecap: butt; stroke-linejoin: miter; stroke-miterlimit: 10; fill: rgb(252,101,126); fill-rule: nonzero; opacity: 1;" transform=" matrix(1 0 0 1 0 0) " stroke-linecap="round"/>
	<path d="M 88.069 27.747 L 88.069 27.747 c -1.642 -2.363 -4.888 -2.948 -7.252 -1.306 L 65.401 37.152 c -1.774 -1.075 -3.848 -1.706 -6.074 -1.706 h -5.543 c -6.49 0 -11.75 5.261 -11.75 11.75 v 27.27 h 29.044 v -27.27 c 0 -0.423 -0.025 -0.841 -0.069 -1.253 l 15.754 -10.946 C 89.126 33.357 89.711 30.111 88.069 27.747 z" style="stroke: none; stroke-width: 1; stroke-dasharray: none; stroke-linecap: butt; stroke-linejoin: miter; stroke-miterlimit: 10; fill: rgb(101,204,239); fill-rule: nonzero; opacity: 1;" transform=" matrix(1 0 0 1 0 0) " stroke-linecap="round"/>
	<circle cx="31.153" cy="28.963" r="9.273" style="stroke: none; stroke-width: 1; stroke-dasharray: none; stroke-linecap: butt; stroke-linejoin: miter; stroke-miterlimit: 10; fill: rgb(249,193,168); fill-rule: nonzero; opacity: 1;" transform="  matrix(1 0 0 1 0 0) "/>
	<path d="M 31.156 39.237 c -5.665 0 -10.273 -4.608 -10.273 -10.273 c 0 -5.664 4.608 -10.273 10.273 -10.273 s 10.273 4.608 10.273 10.273 C 41.429 34.628 36.82 39.237 31.156 39.237 z M 31.156 20.691 c -4.562 0 -8.273 3.711 -8.273 8.273 s 3.711 8.273 8.273 8.273 s 8.273 -3.711 8.273 -8.273 S 35.717 20.691 31.156 20.691 z" style="stroke: none; stroke-width: 1; stroke-dasharray: none; stroke-linecap: butt; stroke-linejoin: miter; stroke-miterlimit: 10; fill: rgb(0,0,0); fill-rule: nonzero; opacity: 1;" transform=" matrix(1 0 0 1 0 0) " stroke-linecap="round"/>
	<path d="M 44.653 75.467 H 17.658 c -0.552 0 -1 -0.447 -1 -1 V 49.121 c 0 -0.22 0.007 -0.444 0.02 -0.672 l -14.17 -9.844 c -1.281 -0.891 -2.14 -2.227 -2.417 -3.763 c -0.276 -1.536 0.062 -3.087 0.952 -4.369 c 1.837 -2.646 5.484 -3.304 8.132 -1.464 l 13.811 9.596 c 1.725 -0.92 3.645 -1.404 5.592 -1.404 h 5.151 c 6.573 0 11.922 5.348 11.922 11.921 v 25.346 C 45.653 75.02 45.205 75.467 44.653 75.467 z M 18.658 73.467 h 24.995 V 49.121 c 0 -5.47 -4.451 -9.921 -9.922 -9.921 H 28.58 c -1.8 0 -3.573 0.498 -5.127 1.44 c -0.338 0.206 -0.765 0.191 -1.089 -0.034 L 8.035 30.651 c -1.739 -1.208 -4.139 -0.776 -5.348 0.963 l 0 0 c -0.586 0.843 -0.808 1.863 -0.626 2.873 c 0.182 1.01 0.746 1.889 1.589 2.475 l 14.643 10.174 c 0.3 0.209 0.462 0.564 0.423 0.928 c -0.037 0.348 -0.058 0.7 -0.058 1.058 V 73.467 z M 1.865 31.044 h 0.01 H 1.865 z" style="stroke: none; stroke-width: 1; stroke-dasharray: none; stroke-linecap: butt; stroke-linejoin: miter; stroke-miterlimit: 10; fill: rgb(0,0,0); fill-rule: nonzero; opacity: 1;" transform=" matrix(1 0 0 1 0 0) " stroke-linecap="round"/>
	<circle cx="56.557" cy="25.506999999999998" r="9.977" style="stroke: none; stroke-width: 1; stroke-dasharray: none; stroke-linecap: butt; stroke-linejoin: miter; stroke-miterlimit: 10; fill: rgb(249,193,168); fill-rule: nonzero; opacity: 1;" transform="  matrix(1 0 0 1 0 0) "/>
	<path d="M 56.555 36.487 c -6.053 0 -10.977 -4.924 -10.977 -10.977 s 4.924 -10.977 10.977 -10.977 s 10.977 4.924 10.977 10.977 S 62.608 36.487 56.555 36.487 z M 56.555 16.533 c -4.949 0 -8.977 4.027 -8.977 8.977 c 0 4.95 4.027 8.977 8.977 8.977 s 8.977 -4.027 8.977 -8.977 C 65.532 20.56 61.504 16.533 56.555 16.533 z" style="stroke: none; stroke-width: 1; stroke-dasharray: none; stroke-linecap: butt; stroke-linejoin: miter; stroke-miterlimit: 10; fill: rgb(0,0,0); fill-rule: nonzero; opacity: 1;" transform=" matrix(1 0 0 1 0 0) " stroke-linecap="round"/>
	<path d="M 71.078 75.467 H 42.034 c -0.552 0 -1 -0.447 -1 -1 v -27.27 c 0 -7.031 5.72 -12.751 12.751 -12.751 h 5.542 c 2.098 0 4.166 0.525 6.022 1.524 L 80.247 25.62 c 1.362 -0.946 3.012 -1.305 4.645 -1.012 c 1.632 0.294 3.053 1.206 3.999 2.568 c 0 0 0 0 0 0 c 1.953 2.812 1.255 6.689 -1.557 8.643 L 72.053 46.436 c 0.017 0.258 0.024 0.511 0.024 0.762 v 27.27 C 72.078 75.02 71.63 75.467 71.078 75.467 z M 43.034 73.467 h 27.044 v -26.27 c 0 -0.388 -0.023 -0.77 -0.063 -1.147 c -0.039 -0.364 0.123 -0.719 0.424 -0.928 l 15.755 -10.946 c 1.905 -1.324 2.379 -3.953 1.055 -5.86 c -0.642 -0.923 -1.605 -1.542 -2.711 -1.741 c -1.105 -0.198 -2.225 0.044 -3.149 0.686 L 65.971 37.974 c -0.324 0.225 -0.749 0.239 -1.089 0.034 c -1.685 -1.021 -3.607 -1.561 -5.556 -1.561 h -5.542 c -5.928 0 -10.751 4.823 -10.751 10.751 V 73.467 z" style="stroke: none; stroke-width: 1; stroke-dasharray: none; stroke-linecap: butt; stroke-linejoin: miter; stroke-miterlimit: 10; fill: rgb(0,0,0); fill-rule: nonzero; opacity: 1;" transform=" matrix(1 0 0 1 0 0) " stroke-linecap="round"/>
	<path d="M 64.946 50.592 c -1.039 -1.496 -3.094 -1.866 -4.59 -0.827 l -9.758 6.779 c -1.123 -0.681 -2.436 -1.08 -3.845 -1.08 h -3.508 c -1.409 0 -2.722 0.399 -3.845 1.08 l -9.758 -6.779 c -1.496 -1.039 -3.551 -0.669 -4.59 0.827 c -1.039 1.496 -0.669 3.551 0.827 4.59 l 9.972 6.928 c -0.028 0.261 -0.043 0.525 -0.043 0.793 v 11.564 h 18.383 V 62.903 c 0 -0.268 -0.016 -0.532 -0.043 -0.793 l 9.972 -6.928 C 65.615 54.143 65.986 52.088 64.946 50.592 z" style="stroke: none; stroke-width: 1; stroke-dasharray: none; stroke-linecap: butt; stroke-linejoin: miter; stroke-miterlimit: 10; fill: rgb(241,195,67); fill-rule: nonzero; opacity: 1;" transform=" matrix(1 0 0 1 0 0) " stroke-linecap="round"/>
	<circle cx="45.004999999999995" cy="49.175" r="6.315" style="stroke: none; stroke-width: 1; stroke-dasharray: none; stroke-linecap: butt; stroke-linejoin: miter; stroke-miterlimit: 10; fill: rgb(249,193,168); fill-rule: nonzero; opacity: 1;" transform="  matrix(1 0 0 1 0 0) "/>
	<path d="M 45 56.49 c -4.033 0 -7.315 -3.281 -7.315 -7.315 c 0 -4.034 3.281 -7.315 7.315 -7.315 s 7.315 3.281 7.315 7.315 C 52.315 53.209 49.033 56.49 45 56.49 z M 45 43.861 c -2.93 0 -5.315 2.384 -5.315 5.315 S 42.07 54.49 45 54.49 c 2.931 0 5.315 -2.384 5.315 -5.315 S 47.931 43.861 45 43.861 z" style="stroke: none; stroke-width: 1; stroke-dasharray: none; stroke-linecap: butt; stroke-linejoin: miter; stroke-miterlimit: 10; fill: rgb(0,0,0); fill-rule: nonzero; opacity: 1;" transform=" matrix(1 0 0 1 0 0) " stroke-linecap="round"/>
	<path d="M 54.192 75.467 H 35.808 c -0.552 0 -1 -0.447 -1 -1 V 62.903 c 0 -0.1 0.002 -0.198 0.005 -0.297 l -9.505 -6.603 c -1.946 -1.352 -2.429 -4.035 -1.077 -5.982 c 1.354 -1.946 4.035 -2.43 5.982 -1.077 l 9.247 6.425 c 1.176 -0.594 2.472 -0.904 3.785 -0.904 h 3.508 c 1.313 0 2.608 0.311 3.784 0.904 l 9.248 -6.425 c 1.943 -1.354 4.629 -0.869 5.982 1.077 l 0 0 c 1.352 1.946 0.868 4.63 -1.078 5.982 l -9.504 6.604 c 0.004 0.098 0.006 0.197 0.006 0.296 v 11.565 C 55.192 75.02 54.744 75.467 54.192 75.467 z M 36.808 73.467 h 16.383 V 62.903 c 0 -0.232 -0.014 -0.462 -0.037 -0.688 c -0.038 -0.363 0.124 -0.718 0.424 -0.926 l 9.971 -6.928 c 1.04 -0.723 1.299 -2.157 0.576 -3.198 l 0 0 c -0.722 -1.041 -2.157 -1.298 -3.198 -0.575 l -9.758 6.779 c -0.324 0.227 -0.75 0.239 -1.089 0.034 c -1.01 -0.612 -2.159 -0.936 -3.326 -0.936 h -3.508 c -1.167 0 -2.317 0.323 -3.326 0.936 c -0.338 0.204 -0.765 0.192 -1.089 -0.034 l -9.758 -6.779 c -1.039 -0.723 -2.475 -0.464 -3.198 0.576 c -0.722 1.04 -0.464 2.475 0.577 3.197 l 9.972 6.928 c 0.3 0.209 0.462 0.564 0.423 0.928 c -0.024 0.226 -0.038 0.455 -0.038 0.687 V 73.467 z" style="stroke: none; stroke-width: 1; stroke-dasharray: none; stroke-linecap: butt; stroke-linejoin: miter; stroke-miterlimit: 10; fill: rgb(0,0,0); fill-rule: nonzero; opacity: 1;" transform=" matrix(1 0 0 1 0 0) " stroke-linecap="round"/>
</g>
</svg>