<svg xmlns="http://www.w3.org/2000/svg" xmlns:xlink="http://www.w3.org/1999/xlink" width="1000" zoomAndPan="magnify" viewBox="0 0 750 749.999995" height="1000" preserveAspectRatio="xMidYMid meet" version="1.0"><defs><clipPath id="9a352a1464"><path d="M 375 0 C 167.894531 0 0 167.894531 0 375 C 0 582.105469 167.894531 750 375 750 C 582.105469 750 750 582.105469 750 375 C 750 167.894531 582.105469 0 375 0 Z M 375 0 " clip-rule="nonzero"/></clipPath><clipPath id="decbcbfd49"><path d="M 0 0 L 750 0 L 750 750 L 0 750 Z M 0 0 " clip-rule="nonzero"/></clipPath><clipPath id="cd4db76d56"><path d="M 375 0 C 167.894531 0 0 167.894531 0 375 C 0 582.105469 167.894531 750 375 750 C 582.105469 750 750 582.105469 750 375 C 750 167.894531 582.105469 0 375 0 Z M 375 0 " clip-rule="nonzero"/></clipPath><clipPath id="75d8d46a28"><rect x="0" width="750" y="0" height="750"/></clipPath><clipPath id="a51aaafe71"><path d="M 127.292969 160 L 572 160 L 572 596 L 127.292969 596 Z M 127.292969 160 " clip-rule="nonzero"/></clipPath></defs><g clip-path="url(#9a352a1464)"><g transform="matrix(1, 0, 0, 1, 0, -0.000000000000042435)"><g clip-path="url(#75d8d46a28)"><g clip-path="url(#decbcbfd49)"><g clip-path="url(#cd4db76d56)"><rect x="-165" width="1080" fill="#fbeb9d" height="1079.999992" y="-164.999999" fill-opacity="1"/></g></g></g></g></g><path fill="#ecb37e" d="M 405.324219 589.101562 L 400.386719 595.515625 L 395.113281 602.367188 C 389.238281 609.992188 377.683594 610.972656 369.371094 604.558594 C 361.027344 598.144531 359.042969 586.71875 364.898438 579.09375 L 375.113281 565.84375 C 377.902344 562.21875 382.082031 559.984375 386.886719 559.53125 C 387.5 559.472656 388.101562 559.429688 388.714844 559.429688 C 393.039062 559.429688 397.304688 560.90625 400.867188 563.652344 C 404.929688 566.792969 407.617188 571.21875 408.421875 576.113281 C 409.210938 580.875 408.101562 585.492188 405.324219 589.101562 Z M 372.804688 539.121094 C 372.320312 533.847656 369.882812 529.273438 365.9375 526.234375 C 362.824219 523.839844 359.054688 522.597656 355.039062 522.597656 C 353.941406 522.597656 352.832031 522.683594 351.707031 522.875 C 346.332031 523.78125 341.464844 526.746094 338.019531 531.230469 L 337.566406 531.816406 C 337.242188 532.285156 336.9375 532.75 336.601562 533.203125 L 325.292969 547.886719 C 322.503906 552.09375 321.203125 557.003906 321.65625 561.910156 C 322.136719 567.1875 324.578125 571.757812 328.523438 574.796875 C 336.847656 581.210938 349.371094 578.976562 356.441406 569.785156 L 368.214844 554.503906 C 371.679688 550.019531 373.300781 544.558594 372.804688 539.121094 Z M 326.796875 496.097656 C 323.863281 493.832031 320.328125 492.75 316.628906 492.75 C 309.835938 492.75 302.515625 496.386719 297.402344 503.019531 L 284.5625 519.691406 C 280.660156 524.761719 278.660156 530.792969 278.953125 536.667969 C 279.214844 542.203125 281.492188 546.894531 285.367188 549.875 C 289.238281 552.867188 294.351562 553.875 299.785156 552.722656 C 305.542969 551.496094 310.859375 548.019531 314.761719 542.964844 L 316.324219 540.933594 C 316.628906 540.496094 316.921875 540.042969 317.257812 539.601562 L 328.652344 524.789062 C 335.417969 514.769531 334.730469 502.203125 326.796875 496.097656 Z M 290.785156 461.722656 C 287.964844 459.542969 284.472656 458.417969 280.691406 458.417969 C 279.289062 458.417969 277.839844 458.566406 276.378906 458.886719 C 270.609375 460.113281 265.292969 463.578125 261.390625 468.644531 L 248.550781 485.316406 C 240.660156 495.558594 241.027344 509.101562 249.351562 515.511719 C 252.289062 517.777344 255.824219 518.84375 259.519531 518.84375 C 266.316406 518.84375 273.648438 515.207031 278.746094 508.589844 L 291.605469 491.90625 C 299.476562 481.675781 299.113281 468.132812 290.785156 461.722656 Z M 473.316406 160.003906 C 442.785156 160.003906 414.191406 177.59375 389.78125 194.085938 L 385.660156 196.832031 L 294.773438 292.820312 C 290.960938 296.851562 288.945312 302.109375 289.105469 307.660156 C 289.25 313.214844 291.546875 318.355469 295.578125 322.167969 C 299.449219 325.851562 304.519531 327.867188 309.851562 327.867188 C 315.621094 327.867188 320.984375 325.558594 324.941406 321.367188 L 387.472656 255.34375 C 387.5 255.285156 404.667969 236.46875 430.773438 258.265625 C 452.804688 276.644531 563.75 379.175781 568.453125 383.53125 C 576.460938 390.613281 581.488281 400.359375 582.507812 410.878906 C 582.523438 411.023438 582.523438 411.171875 582.539062 411.316406 L 588.777344 404.320312 C 610.632812 377.816406 622.742188 344.070312 622.742188 309.429688 C 622.742188 227.03125 555.714844 160.003906 473.316406 160.003906 Z M 473.316406 160.003906 " fill-opacity="1" fill-rule="nonzero"/><g clip-path="url(#a51aaafe71)"><path fill="#f59a8d" d="M 564.992188 431.886719 C 555.058594 443.109375 537.042969 443.429688 524.84375 432.617188 L 472.894531 386.644531 C 472.761719 386.527344 472.617188 386.4375 472.484375 386.335938 C 470.160156 384.507812 466.816406 384.714844 464.785156 386.921875 C 462.667969 389.226562 462.828125 392.824219 465.136719 394.941406 C 493.449219 420.917969 517.585938 443.226562 517.671875 443.3125 C 529.886719 454.125 531.742188 472.050781 521.820312 483.253906 C 517.074219 488.601562 510.324219 491.65625 502.800781 491.847656 C 495.042969 491.992188 487.605469 489.246094 481.660156 483.984375 L 438.5625 445.839844 C 435.945312 443.429688 433.273438 440.976562 430.554688 438.492188 C 430.085938 438.054688 429.5625 437.746094 429.019531 437.511719 C 426.714844 436.023438 423.601562 436.375 421.714844 438.492188 C 419.640625 440.84375 419.859375 444.421875 422.199219 446.496094 L 430.789062 454.09375 C 455.539062 476.84375 475.332031 495.132812 475.421875 495.207031 C 487.636719 506.03125 489.488281 523.941406 479.570312 535.164062 C 474.820312 540.511719 468.074219 543.5625 460.535156 543.753906 C 452.878906 543.929688 445.355469 541.152344 439.410156 535.894531 L 396.195312 497.632812 C 393.609375 495.265625 390.976562 492.839844 388.304688 490.386719 C 387.835938 489.960938 387.324219 489.667969 386.785156 489.421875 C 384.476562 487.917969 381.351562 488.265625 379.464844 490.398438 C 377.390625 492.738281 377.609375 496.332031 379.949219 498.40625 L 388.554688 506.015625 C 413.300781 528.75 433.082031 547.039062 433.171875 547.113281 C 445.382812 557.925781 447.238281 575.851562 437.304688 587.054688 C 431.695312 593.410156 423.351562 596.421875 414.660156 595.515625 C 419.101562 589.46875 420.882812 581.957031 419.613281 574.273438 C 418.339844 566.53125 414.148438 559.5625 407.792969 554.667969 C 401.4375 549.773438 393.636719 547.507812 385.804688 548.238281 C 384.957031 548.3125 384.125 548.445312 383.308594 548.589844 C 384.125 545.171875 384.417969 541.636719 384.097656 538.085938 C 383.324219 529.640625 379.335938 522.234375 372.847656 517.253906 C 366.375 512.253906 358.195312 510.285156 349.835938 511.699219 C 347.980469 512.007812 346.183594 512.503906 344.445312 513.117188 C 345.25 502.980469 341.625 493.191406 333.722656 487.113281 C 326.390625 481.457031 316.894531 480.171875 307.90625 482.699219 C 310.128906 471.21875 306.636719 459.617188 297.710938 452.734375 C 291.152344 447.679688 282.75 445.941406 274.015625 447.785156 C 265.628906 449.582031 257.957031 454.535156 252.40625 461.722656 L 239.566406 478.40625 C 237.753906 480.742188 236.292969 483.226562 235.109375 485.78125 L 162.398438 411.652344 C 139.738281 384.21875 127.277344 349.476562 127.277344 313.828125 C 127.277344 229.003906 196.277344 160.003906 281.085938 160.003906 C 312.523438 160.003906 341.964844 178.121094 367.121094 195.113281 L 369.910156 196.964844 L 286.550781 285.019531 C 280.648438 291.242188 277.535156 299.394531 277.769531 307.96875 C 278.003906 316.546875 281.550781 324.507812 287.777344 330.410156 C 293.765625 336.078125 301.613281 339.207031 309.851562 339.207031 C 318.632812 339.207031 327.132812 335.554688 333.183594 329.167969 L 395.828125 263.003906 C 396.222656 262.550781 405.761719 252.160156 423.511719 266.976562 C 445.324219 285.179688 559.617188 390.792969 560.859375 391.945312 C 566.789062 397.207031 570.472656 404.320312 571.214844 411.960938 C 571.933594 419.46875 569.726562 426.539062 564.992188 431.886719 Z M 564.992188 431.886719 " fill-opacity="1" fill-rule="nonzero"/></g></svg>