<svg xmlns="http://www.w3.org/2000/svg" xmlns:xlink="http://www.w3.org/1999/xlink" width="1000" zoomAndPan="magnify" viewBox="0 0 750 749.999995" height="1000" preserveAspectRatio="xMidYMid meet" version="1.0"><defs><clipPath id="fa7429e611"><path d="M 375 0 C 167.894531 0 0 167.894531 0 375 C 0 582.105469 167.894531 750 375 750 C 582.105469 750 750 582.105469 750 375 C 750 167.894531 582.105469 0 375 0 Z M 375 0 " clip-rule="nonzero"/></clipPath><clipPath id="3ec29f9a71"><path d="M 0 0 L 750 0 L 750 750 L 0 750 Z M 0 0 " clip-rule="nonzero"/></clipPath><clipPath id="b5b6da3fc3"><path d="M 375 0 C 167.894531 0 0 167.894531 0 375 C 0 582.105469 167.894531 750 375 750 C 582.105469 750 750 582.105469 750 375 C 750 167.894531 582.105469 0 375 0 Z M 375 0 " clip-rule="nonzero"/></clipPath><clipPath id="f6b1d6d007"><rect x="0" width="750" y="0" height="750"/></clipPath><clipPath id="6d736763be"><path d="M 85.15625 85.15625 L 664.90625 85.15625 L 664.90625 664.90625 L 85.15625 664.90625 Z M 85.15625 85.15625 " clip-rule="nonzero"/></clipPath></defs><g clip-path="url(#fa7429e611)"><g transform="matrix(1, 0, 0, 1, 0, -0.000000000000042435)"><g clip-path="url(#f6b1d6d007)"><g clip-path="url(#3ec29f9a71)"><g clip-path="url(#b5b6da3fc3)"><rect x="-165" width="1080" fill="#fbeb9d" height="1079.999992" y="-164.999999" fill-opacity="1"/></g></g></g></g></g><g clip-path="url(#6d736763be)"><path fill="#344be1" d="M 585.84375 425.207031 L 585.84375 324.457031 C 604.75 321.042969 619.144531 304.472656 619.144531 284.601562 C 619.144531 262.257812 600.972656 244.085938 578.628906 244.085938 C 566.023438 244.085938 554.742188 249.871094 547.3125 258.925781 L 453.539062 206.777344 C 458.433594 195.96875 461.1875 183.976562 461.1875 171.347656 C 461.1875 123.820312 422.523438 85.140625 374.980469 85.140625 C 327.441406 85.140625 288.777344 123.808594 288.777344 171.347656 C 288.777344 183.976562 291.53125 195.957031 296.425781 206.777344 L 202.652344 258.914062 C 195.222656 249.859375 183.941406 244.074219 171.335938 244.074219 C 148.992188 244.074219 130.820312 262.246094 130.820312 284.589844 C 130.820312 304.472656 145.214844 321.03125 164.121094 324.445312 L 164.121094 425.191406 C 119.960938 428.875 85.128906 465.976562 85.128906 511.074219 C 85.128906 558.605469 123.796875 597.28125 171.335938 597.28125 C 201.101562 597.28125 227.378906 582.117188 242.871094 559.121094 L 336.628906 611.257812 C 335.222656 615.355469 334.453125 619.746094 334.453125 624.316406 C 334.453125 646.660156 352.625 664.835938 374.96875 664.835938 C 397.316406 664.835938 415.488281 646.660156 415.488281 624.316406 C 415.488281 619.746094 414.71875 615.355469 413.3125 611.257812 L 507.070312 559.121094 C 522.558594 582.128906 548.851562 597.28125 578.605469 597.28125 C 626.132812 597.28125 664.808594 558.617188 664.808594 511.074219 C 664.808594 463.535156 629.992188 428.886719 585.820312 425.191406 Z M 578.628906 258.503906 C 593.011719 258.503906 604.714844 270.207031 604.714844 284.589844 C 604.714844 298.972656 593.011719 310.675781 578.628906 310.675781 C 564.242188 310.675781 552.542969 298.972656 552.542969 284.589844 C 552.542969 270.207031 564.242188 258.503906 578.628906 258.503906 Z M 374.996094 99.585938 C 414.574219 99.585938 446.769531 131.78125 446.769531 171.359375 C 446.769531 188.894531 440.429688 204.988281 429.945312 217.457031 C 425.832031 204.78125 417.375 193.765625 406.105469 186.527344 C 411.171875 179.921875 414.199219 171.660156 414.199219 162.714844 C 414.199219 141.101562 396.617188 123.519531 375.007812 123.519531 C 353.394531 123.519531 335.8125 141.101562 335.8125 162.714844 C 335.8125 171.660156 338.832031 179.910156 343.90625 186.527344 C 332.625 193.777344 324.183594 204.78125 320.070312 217.457031 C 309.582031 204.976562 303.242188 188.894531 303.242188 171.359375 C 303.242188 131.78125 335.4375 99.585938 375.019531 99.585938 Z M 374.996094 187.476562 C 361.34375 187.476562 350.230469 176.363281 350.230469 162.714844 C 350.230469 149.0625 361.34375 137.949219 374.996094 137.949219 C 388.644531 137.949219 399.757812 149.0625 399.757812 162.714844 C 399.757812 176.363281 388.644531 187.476562 374.996094 187.476562 Z M 355.320312 196.582031 C 361.105469 199.960938 367.828125 201.894531 374.996094 201.894531 C 382.164062 201.894531 388.886719 199.949219 394.667969 196.582031 C 407.105469 202.953125 415.8125 215.078125 417.832031 228.882812 C 405.867188 237.820312 391.039062 243.109375 374.996094 243.109375 C 358.949219 243.109375 344.109375 237.820312 332.144531 228.882812 C 334.175781 215.078125 342.871094 202.941406 355.308594 196.582031 Z M 145.273438 284.589844 C 145.273438 270.207031 156.976562 258.503906 171.359375 258.503906 C 185.746094 258.503906 197.445312 270.207031 197.445312 284.589844 C 197.445312 298.972656 185.746094 310.675781 171.359375 310.675781 C 156.976562 310.675781 145.273438 298.972656 145.273438 284.589844 Z M 128.511719 568.621094 C 130.542969 554.816406 139.238281 542.679688 151.671875 536.304688 C 157.457031 539.6875 164.179688 541.621094 171.347656 541.621094 C 178.515625 541.621094 185.238281 539.675781 191.023438 536.304688 C 203.460938 542.679688 212.167969 554.816406 214.1875 568.621094 C 202.222656 577.558594 187.390625 582.847656 171.347656 582.847656 C 155.304688 582.847656 140.464844 577.558594 128.5 568.621094 Z M 171.359375 527.191406 C 157.710938 527.191406 146.597656 516.078125 146.597656 502.425781 C 146.597656 488.777344 157.710938 477.664062 171.359375 477.664062 C 185.011719 477.664062 196.125 488.777344 196.125 502.425781 C 196.125 516.078125 185.011719 527.191406 171.359375 527.191406 Z M 226.296875 557.183594 C 222.183594 544.507812 213.730469 533.492188 202.460938 526.238281 C 207.523438 519.636719 210.554688 511.375 210.554688 502.425781 C 210.554688 480.816406 192.972656 463.234375 171.359375 463.234375 C 149.75 463.234375 132.167969 480.816406 132.167969 502.425781 C 132.167969 511.375 135.183594 519.625 140.261719 526.238281 C 128.980469 533.492188 120.535156 544.496094 116.410156 557.171875 C 105.925781 544.6875 99.585938 528.609375 99.585938 511.074219 C 99.585938 471.496094 131.78125 439.300781 171.359375 439.300781 C 210.941406 439.300781 243.136719 471.496094 243.136719 511.074219 C 243.136719 528.609375 236.796875 544.699219 226.308594 557.171875 Z M 374.996094 650.402344 C 360.609375 650.402344 348.910156 638.699219 348.910156 624.316406 C 348.910156 609.933594 360.609375 598.230469 374.996094 598.230469 C 389.378906 598.230469 401.078125 609.933594 401.078125 624.316406 C 401.078125 638.699219 389.378906 650.402344 374.996094 650.402344 Z M 406.3125 598.640625 C 398.878906 589.585938 387.597656 583.800781 374.996094 583.800781 C 362.390625 583.800781 351.109375 589.585938 343.675781 598.640625 L 249.90625 546.492188 C 254.800781 535.679688 257.554688 523.691406 257.554688 511.0625 C 257.554688 465.964844 222.738281 428.875 178.566406 425.179688 L 178.566406 324.433594 C 197.46875 321.019531 211.867188 304.445312 211.867188 284.578125 C 211.867188 280.007812 211.097656 275.617188 209.6875 271.519531 L 303.449219 219.382812 C 318.9375 242.390625 345.230469 257.542969 374.980469 257.542969 C 404.734375 257.542969 431.027344 242.378906 446.515625 219.382812 L 540.273438 271.519531 C 538.867188 275.617188 538.097656 280.007812 538.097656 284.578125 C 538.097656 304.457031 552.496094 321.019531 571.398438 324.433594 L 571.398438 425.179688 C 527.238281 428.859375 492.410156 465.964844 492.410156 511.0625 C 492.410156 523.691406 495.164062 535.667969 500.058594 546.492188 L 406.289062 598.640625 Z M 535.789062 568.621094 C 537.820312 554.816406 546.515625 542.679688 558.953125 536.304688 C 564.738281 539.6875 571.460938 541.621094 578.628906 541.621094 C 585.796875 541.621094 592.519531 539.675781 598.304688 536.304688 C 610.738281 542.679688 619.445312 554.816406 621.476562 568.621094 C 609.511719 577.558594 594.683594 582.847656 578.628906 582.847656 C 562.574219 582.847656 547.742188 577.558594 535.777344 568.621094 Z M 578.628906 527.191406 C 564.976562 527.191406 553.863281 516.078125 553.863281 502.425781 C 553.863281 488.777344 564.976562 477.664062 578.628906 477.664062 C 592.277344 477.664062 603.390625 488.777344 603.390625 502.425781 C 603.390625 516.078125 592.277344 527.191406 578.628906 527.191406 Z M 633.578125 557.183594 C 629.453125 544.507812 621.007812 533.492188 609.742188 526.253906 C 614.804688 519.648438 617.835938 511.386719 617.835938 502.441406 C 617.835938 480.828125 600.25 463.246094 578.640625 463.246094 C 557.027344 463.246094 539.445312 480.828125 539.445312 502.441406 C 539.445312 511.386719 542.464844 519.636719 547.539062 526.253906 C 536.257812 533.503906 527.816406 544.507812 523.691406 557.183594 C 513.203125 544.699219 506.867188 528.621094 506.867188 511.085938 C 506.867188 471.507812 539.0625 439.3125 578.640625 439.3125 C 618.21875 439.3125 650.414062 471.507812 650.414062 511.085938 C 650.414062 528.621094 644.078125 544.714844 633.589844 557.183594 Z M 530.992188 412.671875 C 531.867188 410.964844 532.023438 408.992188 531.4375 407.164062 L 500.417969 310.832031 C 499.191406 307.042969 495.128906 304.953125 491.339844 306.179688 L 450.929688 319.191406 C 449.113281 319.78125 447.597656 321.066406 446.71875 322.761719 C 445.84375 324.457031 445.6875 326.441406 446.277344 328.269531 L 448.875 336.316406 L 446.863281 337.316406 C 443.90625 338.792969 441.238281 339.40625 437.917969 339.371094 C 431.363281 339.289062 425.480469 337.292969 418.675781 334.980469 C 410.738281 332.289062 401.742188 329.222656 389.523438 328.320312 C 386.289062 328.078125 383.195312 328.285156 380.203125 328.898438 C 363.125 318.410156 337.652344 316.171875 302.714844 322.101562 L 303.714844 318.988281 C 304.300781 317.171875 304.132812 315.1875 303.269531 313.480469 C 302.402344 311.769531 300.886719 310.484375 299.058594 309.90625 L 258.648438 296.894531 C 256.832031 296.304688 254.847656 296.472656 253.140625 297.339844 C 251.433594 298.21875 250.148438 299.71875 249.570312 301.546875 L 218.554688 397.882812 C 217.964844 399.695312 218.132812 401.679688 218.996094 403.390625 C 219.863281 405.097656 221.378906 406.382812 223.207031 406.960938 L 263.617188 419.972656 C 264.351562 420.214844 265.097656 420.324219 265.828125 420.324219 C 268.871094 420.324219 271.710938 418.375 272.695312 415.320312 L 274.523438 409.628906 L 283.605469 416.113281 C 280.945312 423.222656 282.449219 431.542969 288.152344 437.242188 C 291.46875 440.5625 295.777344 442.558594 300.40625 442.980469 C 300.816406 447.453125 302.726562 451.820312 306.15625 455.246094 C 309.570312 458.664062 313.9375 460.585938 318.421875 460.996094 C 318.84375 465.636719 320.839844 469.933594 324.15625 473.25 C 327.574219 476.667969 331.9375 478.578125 336.414062 479 C 336.820312 483.472656 338.734375 487.839844 342.160156 491.253906 C 345.914062 495.007812 350.929688 497.074219 356.269531 497.074219 C 361.042969 497.074219 365.554688 495.402344 369.148438 492.363281 L 370.050781 493.261719 C 373.9375 497.148438 379.046875 499.097656 384.160156 499.097656 C 389.269531 499.097656 394.371094 497.148438 398.265625 493.261719 C 401.679688 489.847656 403.59375 485.480469 404.015625 481.007812 C 408.488281 480.597656 412.855469 478.6875 416.269531 475.257812 C 419.683594 471.84375 421.597656 467.480469 422.019531 463.003906 C 426.492188 462.597656 430.859375 460.683594 434.273438 457.257812 C 437.6875 453.839844 439.601562 449.476562 440.023438 445 C 444.496094 444.59375 448.863281 442.679688 452.277344 439.253906 C 455.609375 435.921875 457.496094 431.699219 457.976562 427.347656 L 475.417969 418.640625 L 477.328125 424.59375 C 478.316406 427.648438 481.140625 429.59375 484.195312 429.59375 C 484.929688 429.59375 485.675781 429.488281 486.410156 429.246094 L 526.816406 416.234375 C 528.632812 415.644531 530.148438 414.355469 531.027344 412.660156 Z M 261.164062 404.039062 L 234.5 395.453125 L 261.101562 312.863281 L 287.765625 321.453125 Z M 298.347656 419.253906 L 313.695312 403.90625 C 315.847656 401.753906 319.347656 401.753906 321.488281 403.90625 C 323.640625 406.058594 323.640625 409.546875 321.488281 411.699219 L 306.140625 427.046875 C 305.109375 428.078125 303.726562 428.644531 302.246094 428.644531 C 300.765625 428.644531 299.382812 428.078125 298.347656 427.046875 C 296.195312 424.890625 296.195312 421.394531 298.347656 419.253906 Z M 316.351562 437.253906 L 331.699219 421.910156 C 332.769531 420.839844 334.1875 420.296875 335.59375 420.296875 C 337.003906 420.296875 338.421875 420.839844 339.492188 421.910156 C 340.527344 422.945312 341.089844 424.328125 341.089844 425.804688 C 341.089844 427.285156 340.527344 428.667969 339.492188 429.703125 L 324.144531 445.050781 C 321.992188 447.203125 318.492188 447.203125 316.351562 445.050781 C 314.199219 442.894531 314.199219 439.398438 316.351562 437.253906 Z M 332.757812 459.15625 C 332.757812 457.675781 333.324219 456.292969 334.355469 455.257812 L 349.703125 439.914062 C 350.738281 438.878906 352.121094 438.3125 353.597656 438.3125 C 355.078125 438.3125 356.460938 438.878906 357.496094 439.914062 C 359.648438 442.066406 359.648438 445.566406 357.496094 447.707031 L 342.148438 463.054688 C 339.996094 465.207031 336.496094 465.207031 334.355469 463.054688 C 333.324219 462.019531 332.757812 460.636719 332.757812 459.15625 Z M 356.257812 482.65625 C 354.777344 482.65625 353.394531 482.089844 352.359375 481.054688 C 350.207031 478.902344 350.207031 475.402344 352.359375 473.261719 L 367.707031 457.917969 C 368.777344 456.847656 370.195312 456.304688 371.601562 456.304688 C 373.011719 456.304688 374.429688 456.847656 375.5 457.917969 C 376.535156 458.953125 377.097656 460.335938 377.097656 461.8125 C 377.097656 463.292969 376.535156 464.675781 375.5 465.710938 L 360.152344 481.054688 C 359.121094 482.089844 357.734375 482.65625 356.257812 482.65625 Z M 388.042969 483.078125 C 385.890625 485.230469 382.390625 485.230469 380.25 483.078125 L 379.394531 482.222656 L 385.710938 475.910156 C 386.203125 475.417969 386.671875 474.886719 387.117188 474.347656 L 388.042969 475.273438 C 390.195312 477.425781 390.195312 480.925781 388.042969 483.066406 Z M 442.042969 429.078125 C 439.890625 431.230469 436.390625 431.230469 434.25 429.078125 L 416.726562 411.554688 C 413.914062 408.742188 409.34375 408.742188 406.515625 411.554688 C 403.703125 414.371094 403.703125 418.9375 406.515625 421.765625 L 424.039062 439.289062 C 426.191406 441.441406 426.191406 444.941406 424.039062 447.082031 C 421.886719 449.234375 418.386719 449.234375 416.246094 447.082031 L 398.722656 429.558594 C 395.910156 426.746094 391.339844 426.746094 388.511719 429.558594 C 385.699219 432.371094 385.699219 436.941406 388.511719 439.769531 L 406.035156 457.292969 C 408.1875 459.445312 408.1875 462.945312 406.035156 465.085938 C 403.882812 467.238281 400.382812 467.238281 398.242188 465.085938 L 391.171875 458.011719 C 390.425781 454.128906 388.558594 450.570312 385.710938 447.71875 C 382.292969 444.304688 377.929688 442.390625 373.453125 441.96875 C 373.046875 437.496094 371.132812 433.128906 367.707031 429.714844 C 364.386719 426.394531 360.082031 424.398438 355.449219 423.976562 C 355.042969 419.503906 353.128906 415.140625 349.703125 411.710938 C 346.285156 408.296875 341.921875 406.382812 337.449219 405.960938 C 337.039062 401.488281 335.125 397.125 331.699219 393.707031 C 323.929688 385.925781 311.265625 385.925781 303.496094 393.707031 L 292.46875 404.734375 L 279.167969 395.234375 L 297.6875 337.722656 C 325.890625 332.203125 347.777344 331.914062 363.015625 336.871094 L 340.789062 349.703125 C 335.871094 352.539062 332.347656 357.136719 330.882812 362.644531 C 329.402344 368.152344 330.160156 373.886719 332.996094 378.808594 C 335.835938 383.726562 340.429688 387.25 345.9375 388.714844 C 351.445312 390.195312 357.183594 389.4375 362.101562 386.601562 L 387.070312 372.179688 C 389.328125 370.871094 391.988281 371.21875 393.839844 373.070312 L 442.042969 421.273438 C 444.195312 423.425781 444.195312 426.925781 442.042969 429.066406 Z M 454.058594 413.179688 C 453.503906 412.445312 452.914062 411.734375 452.253906 411.074219 L 404.050781 362.871094 C 397.542969 356.363281 387.828125 355.089844 379.863281 359.683594 L 354.898438 374.105469 C 353.324219 375.019531 351.46875 375.257812 349.679688 374.777344 C 347.898438 374.296875 346.40625 373.167969 345.492188 371.589844 C 344.578125 370.015625 344.339844 368.164062 344.820312 366.371094 C 345.300781 364.589844 346.429688 363.101562 348.007812 362.1875 L 377.265625 345.300781 C 380.863281 343.21875 384.304688 342.4375 388.453125 342.738281 C 398.832031 343.507812 406.550781 346.128906 414.019531 348.667969 C 421.667969 351.265625 428.886719 353.71875 437.738281 353.828125 C 443.292969 353.886719 448.296875 352.757812 453.3125 350.253906 L 453.347656 350.253906 C 453.347656 350.253906 470.90625 404.773438 470.90625 404.773438 L 454.058594 413.191406 Z M 488.824219 413.3125 L 462.222656 330.726562 L 488.886719 322.136719 L 515.488281 404.722656 Z M 488.824219 413.3125 " fill-opacity="1" fill-rule="nonzero"/></g></svg>