<svg xmlns="http://www.w3.org/2000/svg" xmlns:xlink="http://www.w3.org/1999/xlink" width="1000" zoomAndPan="magnify" viewBox="0 0 750 749.999995" height="1000" preserveAspectRatio="xMidYMid meet" version="1.0"><defs><clipPath id="fbb71bfc6f"><path d="M 375 0 C 167.894531 0 0 167.894531 0 375 C 0 582.105469 167.894531 750 375 750 C 582.105469 750 750 582.105469 750 375 C 750 167.894531 582.105469 0 375 0 Z M 375 0 " clip-rule="nonzero"/></clipPath><clipPath id="07bb008be3"><path d="M 0 0 L 750 0 L 750 750 L 0 750 Z M 0 0 " clip-rule="nonzero"/></clipPath><clipPath id="febe169eec"><path d="M 375 0 C 167.894531 0 0 167.894531 0 375 C 0 582.105469 167.894531 750 375 750 C 582.105469 750 750 582.105469 750 375 C 750 167.894531 582.105469 0 375 0 Z M 375 0 " clip-rule="nonzero"/></clipPath><clipPath id="ba055bf4b3"><rect x="0" width="750" y="0" height="750"/></clipPath><clipPath id="77b52fc768"><path d="M 100.976562 202 L 649.226562 202 L 649.226562 616.921875 L 100.976562 616.921875 Z M 100.976562 202 " clip-rule="nonzero"/></clipPath><clipPath id="077c554027"><path d="M 330 133.171875 L 349 133.171875 L 349 165 L 330 165 Z M 330 133.171875 " clip-rule="nonzero"/></clipPath></defs><g clip-path="url(#fbb71bfc6f)"><g transform="matrix(1, 0, 0, 1, 0, -0.000000000000042435)"><g clip-path="url(#ba055bf4b3)"><g clip-path="url(#07bb008be3)"><g clip-path="url(#febe169eec)"><rect x="-165" width="1080" fill="#fbeb9d" height="1079.999992" y="-164.999999" fill-opacity="1"/></g></g></g></g></g><path fill="#ff6600" d="M 550.457031 490.832031 C 504.195312 490.832031 466.5625 528.515625 466.5625 574.84375 L 466.5625 602.132812 L 634.355469 602.132812 L 634.355469 574.84375 C 634.355469 528.515625 596.722656 490.832031 550.457031 490.832031 Z M 550.457031 490.832031 " fill-opacity="1" fill-rule="nonzero"/><path fill="#ffe641" d="M 307.789062 418.890625 C 307.789062 424.496094 312.339844 429.042969 317.933594 429.042969 L 361.800781 429.042969 C 367.394531 429.042969 371.949219 424.496094 371.949219 418.890625 L 371.949219 394.421875 L 307.789062 394.421875 Z M 307.789062 418.890625 " fill-opacity="1" fill-rule="nonzero"/><g clip-path="url(#77b52fc768)"><path fill="#563211" d="M 586.089844 483.050781 C 602.328125 471.664062 613.042969 452.945312 613.042969 431.742188 C 613.042969 407.386719 599.058594 386.296875 578.761719 375.925781 L 578.761719 260.339844 L 544.03125 260.339844 L 544.03125 226.398438 L 535.570312 225.945312 C 532.753906 225.71875 465.882812 221.777344 405.328125 234.179688 C 403.75 232.148438 402.394531 230.121094 400.59375 228.203125 L 399.800781 227.414062 C 384.578125 211.285156 362.703125 202.15625 339.925781 202.15625 C 317.03125 202.15625 295.15625 211.285156 279.933594 227.414062 L 279.144531 228.203125 C 277.339844 230.121094 275.984375 232.148438 274.40625 234.179688 C 213.851562 221.777344 147.09375 225.71875 144.277344 225.945312 L 135.820312 226.398438 L 135.820312 260.339844 L 100.976562 260.339844 L 100.976562 578.453125 L 330.902344 578.453125 L 330.902344 578.5625 L 339.925781 578.5625 L 349.058594 578.453125 L 451.898438 578.453125 L 451.898438 616.679688 L 649.015625 616.679688 L 649.015625 574.84375 C 649.015625 533.003906 622.851562 497.375 586.089844 483.050781 Z M 544.03125 278.382812 L 560.71875 278.382812 L 560.71875 370.0625 C 557.335938 369.496094 553.953125 369.15625 550.457031 369.15625 C 548.316406 369.15625 546.171875 369.273438 544.03125 369.382812 Z M 550.457031 387.203125 C 575.039062 387.203125 595 407.160156 595 431.742188 C 595 456.214844 575.039062 476.285156 550.457031 476.285156 C 525.875 476.285156 505.914062 456.214844 505.914062 431.742188 C 505.914062 407.160156 525.875 387.203125 550.457031 387.203125 Z M 293.015625 239.816406 C 304.855469 227.300781 321.996094 220.195312 339.925781 220.195312 C 357.742188 220.195312 374.882812 227.300781 386.835938 239.816406 L 387.398438 240.492188 C 408.035156 262.59375 412.09375 296.652344 397.433594 323.039062 C 394.503906 328.339844 390.441406 334.316406 385.03125 341.304688 C 376.234375 352.46875 370.820312 365.886719 369.128906 379.757812 L 348.945312 379.757812 L 348.945312 303.753906 L 367.4375 285.148438 L 354.695312 272.40625 L 339.925781 287.175781 L 325.039062 272.40625 L 312.296875 285.148438 L 330.902344 303.753906 L 330.902344 379.757812 L 310.605469 379.757812 C 309.027344 365.886719 303.5 352.46875 294.707031 341.304688 C 289.292969 334.316406 285.234375 328.339844 282.300781 323.039062 C 267.640625 296.652344 271.703125 262.59375 293.015625 239.816406 Z M 119.015625 560.40625 L 119.015625 278.382812 L 135.820312 278.382812 L 135.820312 544.621094 L 145.40625 544.058594 C 146.53125 543.945312 240.238281 538.421875 302.484375 560.40625 Z M 330.902344 553.191406 C 276.324219 524.101562 183.855469 524.546875 153.863281 525.566406 L 153.863281 243.539062 C 172.691406 242.972656 219.941406 242.523438 264.144531 250.527344 C 252.191406 276.015625 252.53125 306.574219 266.515625 331.832031 C 269.898438 337.921875 274.519531 344.6875 280.496094 352.359375 C 288.617188 362.84375 293.125 375.699219 293.125 388.78125 L 293.125 418.890625 C 293.125 432.535156 304.289062 443.695312 317.933594 443.695312 L 330.902344 443.695312 Z M 317.933594 425.65625 C 314.214844 425.65625 311.167969 422.613281 311.167969 418.890625 L 311.167969 397.800781 L 368.566406 397.800781 L 368.566406 418.890625 C 368.566406 422.613281 365.523438 425.65625 361.800781 425.65625 Z M 453.027344 560.40625 L 377.8125 560.40625 C 398.5625 553.191406 424.949219 548.117188 456.296875 545.523438 C 454.832031 550.371094 453.816406 555.335938 453.027344 560.40625 Z M 348.945312 553.304688 L 348.945312 443.695312 L 361.800781 443.695312 C 375.445312 443.695312 386.609375 432.535156 386.609375 418.890625 L 386.609375 388.78125 C 386.609375 375.699219 391.121094 362.84375 399.238281 352.359375 C 405.328125 344.578125 409.839844 337.921875 413.222656 331.832031 C 427.203125 306.574219 427.542969 276.015625 415.589844 250.527344 C 459.792969 242.523438 507.15625 242.972656 525.988281 243.539062 L 525.988281 374.121094 C 503.660156 383.589844 487.871094 405.804688 487.871094 431.742188 C 487.871094 452.945312 498.472656 471.664062 514.710938 483.050781 C 493.398438 491.398438 475.582031 506.957031 464.417969 526.804688 C 414.125 530.074219 375.445312 538.984375 348.945312 553.304688 Z M 630.972656 598.75 L 469.941406 598.75 L 469.941406 574.84375 C 469.941406 530.410156 506.027344 494.214844 550.457031 494.214844 C 594.886719 494.214844 630.972656 530.410156 630.972656 574.84375 Z M 630.972656 598.75 " fill-opacity="1" fill-rule="nonzero"/></g><g clip-path="url(#077c554027)"><path fill="#563211" d="M 348.894531 133.304688 L 330.859375 133.304688 L 330.859375 164.710938 L 348.894531 164.710938 Z M 348.894531 133.304688 " fill-opacity="1" fill-rule="nonzero"/></g><path fill="#563211" d="M 218.863281 276.835938 L 187.324219 276.835938 L 187.324219 294.875 L 218.863281 294.875 Z M 218.863281 276.835938 " fill-opacity="1" fill-rule="nonzero"/><path fill="#563211" d="M 492.429688 276.835938 L 460.890625 276.835938 L 460.890625 294.875 L 492.429688 294.875 Z M 492.429688 276.835938 " fill-opacity="1" fill-rule="nonzero"/><path fill="#563211" d="M 247.980469 365 L 225.640625 387.207031 L 238.359375 400.003906 L 260.699219 377.792969 Z M 247.980469 365 " fill-opacity="1" fill-rule="nonzero"/><path fill="#563211" d="M 441.390625 171.582031 L 419.054688 193.789062 L 431.773438 206.585938 L 454.113281 184.378906 Z M 441.390625 171.582031 " fill-opacity="1" fill-rule="nonzero"/><path fill="#563211" d="M 238.359375 171.582031 L 225.640625 184.378906 L 247.980469 206.582031 L 260.699219 193.789062 Z M 238.359375 171.582031 " fill-opacity="1" fill-rule="nonzero"/><path fill="#563211" d="M 431.773438 364.996094 L 419.054688 377.792969 L 441.390625 400.003906 L 454.113281 387.210938 Z M 431.773438 364.996094 " fill-opacity="1" fill-rule="nonzero"/></svg>