<svg xmlns="http://www.w3.org/2000/svg" xmlns:xlink="http://www.w3.org/1999/xlink" width="1000" zoomAndPan="magnify" viewBox="0 0 750 749.999995" height="1000" preserveAspectRatio="xMidYMid meet" version="1.0"><defs><clipPath id="b52730878f"><path d="M 375 0 C 167.894531 0 0 167.894531 0 375 C 0 582.105469 167.894531 750 375 750 C 582.105469 750 750 582.105469 750 375 C 750 167.894531 582.105469 0 375 0 Z M 375 0 " clip-rule="nonzero"/></clipPath><clipPath id="f13211f166"><path d="M 0 0 L 750 0 L 750 750 L 0 750 Z M 0 0 " clip-rule="nonzero"/></clipPath><clipPath id="75fa05e4de"><path d="M 375 0 C 167.894531 0 0 167.894531 0 375 C 0 582.105469 167.894531 750 375 750 C 582.105469 750 750 582.105469 750 375 C 750 167.894531 582.105469 0 375 0 Z M 375 0 " clip-rule="nonzero"/></clipPath><clipPath id="e0abc24972"><rect x="0" width="750" y="0" height="750"/></clipPath><clipPath id="a5fd85fcf4"><path d="M 47.199219 47.199219 L 702.699219 47.199219 L 702.699219 702.699219 L 47.199219 702.699219 Z M 47.199219 47.199219 " clip-rule="nonzero"/></clipPath></defs><g clip-path="url(#b52730878f)"><g transform="matrix(1, 0, 0, 1, 0, -0.000000000000042435)"><g clip-path="url(#e0abc24972)"><g clip-path="url(#f13211f166)"><g clip-path="url(#75fa05e4de)"><rect x="-165" width="1080" fill="#fbeb9d" height="1079.999992" y="-164.999999" fill-opacity="1"/></g></g></g></g></g><g clip-path="url(#a5fd85fcf4)"><path fill="#fbeb9d" d="M 702.792969 374.996094 C 702.792969 380.359375 702.660156 385.722656 702.398438 391.082031 C 702.136719 396.4375 701.742188 401.785156 701.214844 407.125 C 700.6875 412.464844 700.03125 417.789062 699.246094 423.09375 C 698.457031 428.398438 697.539062 433.683594 696.496094 438.945312 C 695.449219 444.207031 694.273438 449.441406 692.96875 454.644531 C 691.664062 459.847656 690.234375 465.015625 688.679688 470.152344 C 687.121094 475.285156 685.4375 480.375 683.632812 485.425781 C 681.824219 490.480469 679.894531 495.480469 677.839844 500.4375 C 675.789062 505.394531 673.613281 510.296875 671.320312 515.148438 C 669.027344 519.996094 666.617188 524.789062 664.085938 529.519531 C 661.558594 534.25 658.914062 538.914062 656.15625 543.515625 C 653.398438 548.117188 650.53125 552.648438 647.550781 557.109375 C 644.570312 561.570312 641.480469 565.957031 638.285156 570.265625 C 635.089844 574.574219 631.789062 578.800781 628.386719 582.949219 C 624.984375 587.09375 621.480469 591.15625 617.878906 595.128906 C 614.273438 599.105469 610.578125 602.988281 606.785156 606.785156 C 602.988281 610.578125 599.105469 614.273438 595.128906 617.878906 C 591.15625 621.480469 587.09375 624.984375 582.949219 628.386719 C 578.800781 631.789062 574.574219 635.089844 570.265625 638.285156 C 565.957031 641.480469 561.570312 644.570312 557.109375 647.550781 C 552.648438 650.53125 548.117188 653.398438 543.515625 656.15625 C 538.914062 658.914062 534.25 661.558594 529.519531 664.085938 C 524.789062 666.617188 519.996094 669.027344 515.148438 671.320312 C 510.296875 673.613281 505.394531 675.789062 500.4375 677.839844 C 495.480469 679.894531 490.476562 681.824219 485.425781 683.632812 C 480.375 685.4375 475.285156 687.121094 470.152344 688.679688 C 465.015625 690.234375 459.847656 691.664062 454.644531 692.96875 C 449.441406 694.273438 444.207031 695.449219 438.945312 696.496094 C 433.683594 697.539062 428.402344 698.457031 423.09375 699.246094 C 417.789062 700.03125 412.464844 700.6875 407.125 701.214844 C 401.785156 701.742188 396.4375 702.136719 391.082031 702.398438 C 385.722656 702.660156 380.359375 702.792969 374.996094 702.792969 C 369.632812 702.792969 364.269531 702.660156 358.910156 702.398438 C 353.554688 702.136719 348.207031 701.742188 342.867188 701.214844 C 337.527344 700.6875 332.203125 700.03125 326.898438 699.246094 C 321.589844 698.457031 316.308594 697.539062 311.046875 696.496094 C 305.785156 695.449219 300.550781 694.273438 295.347656 692.96875 C 290.144531 691.664062 284.976562 690.234375 279.839844 688.679688 C 274.707031 687.121094 269.617188 685.4375 264.566406 683.632812 C 259.511719 681.824219 254.511719 679.894531 249.554688 677.839844 C 244.597656 675.789062 239.695312 673.613281 234.84375 671.320312 C 229.996094 669.027344 225.203125 666.617188 220.472656 664.085938 C 215.742188 661.558594 211.078125 658.914062 206.476562 656.15625 C 201.875 653.398438 197.34375 650.53125 192.882812 647.550781 C 188.421875 644.570312 184.035156 641.480469 179.726562 638.285156 C 175.417969 635.089844 171.191406 631.789062 167.042969 628.386719 C 162.898438 624.984375 158.835938 621.480469 154.859375 617.878906 C 150.886719 614.273438 147.003906 610.578125 143.207031 606.785156 C 139.414062 602.988281 135.71875 599.105469 132.113281 595.128906 C 128.511719 591.15625 125.007812 587.09375 121.605469 582.949219 C 118.203125 578.800781 114.902344 574.574219 111.707031 570.265625 C 108.511719 565.957031 105.421875 561.570312 102.441406 557.109375 C 99.460938 552.648438 96.59375 548.117188 93.835938 543.515625 C 91.078125 538.914062 88.433594 534.25 85.90625 529.519531 C 83.375 524.789062 80.964844 519.996094 78.671875 515.148438 C 76.378906 510.296875 74.203125 505.394531 72.152344 500.4375 C 70.097656 495.480469 68.167969 490.476562 66.359375 485.425781 C 64.554688 480.375 62.871094 475.285156 61.3125 470.152344 C 59.757812 465.015625 58.328125 459.847656 57.023438 454.644531 C 55.71875 449.441406 54.542969 444.207031 53.496094 438.945312 C 52.449219 433.683594 51.535156 428.402344 50.746094 423.09375 C 49.960938 417.789062 49.304688 412.464844 48.777344 407.125 C 48.25 401.785156 47.855469 396.4375 47.59375 391.082031 C 47.332031 385.722656 47.199219 380.359375 47.199219 374.996094 C 47.199219 369.632812 47.332031 364.269531 47.59375 358.910156 C 47.855469 353.554688 48.25 348.207031 48.777344 342.867188 C 49.304688 337.527344 49.960938 332.203125 50.746094 326.898438 C 51.535156 321.589844 52.449219 316.308594 53.496094 311.046875 C 54.542969 305.785156 55.71875 300.550781 57.023438 295.347656 C 58.328125 290.144531 59.757812 284.976562 61.3125 279.839844 C 62.871094 274.707031 64.554688 269.617188 66.359375 264.566406 C 68.167969 259.511719 70.097656 254.511719 72.152344 249.554688 C 74.203125 244.597656 76.378906 239.695312 78.671875 234.84375 C 80.964844 229.996094 83.375 225.203125 85.90625 220.472656 C 88.433594 215.742188 91.078125 211.078125 93.835938 206.476562 C 96.59375 201.875 99.460938 197.34375 102.441406 192.882812 C 105.421875 188.421875 108.511719 184.035156 111.707031 179.726562 C 114.902344 175.417969 118.203125 171.191406 121.605469 167.042969 C 125.007812 162.898438 128.511719 158.835938 132.113281 154.859375 C 135.71875 150.886719 139.414062 147.003906 143.207031 143.207031 C 147.003906 139.414062 150.886719 135.71875 154.859375 132.113281 C 158.835938 128.511719 162.898438 125.007812 167.042969 121.605469 C 171.191406 118.203125 175.417969 114.902344 179.726562 111.707031 C 184.035156 108.511719 188.421875 105.421875 192.882812 102.441406 C 197.34375 99.460938 201.875 96.59375 206.476562 93.835938 C 211.078125 91.078125 215.742188 88.433594 220.472656 85.90625 C 225.203125 83.375 229.996094 80.964844 234.84375 78.671875 C 239.695312 76.378906 244.597656 74.203125 249.554688 72.152344 C 254.511719 70.097656 259.511719 68.167969 264.566406 66.359375 C 269.617188 64.554688 274.707031 62.871094 279.839844 61.3125 C 284.976562 59.757812 290.144531 58.328125 295.347656 57.023438 C 300.550781 55.71875 305.785156 54.542969 311.046875 53.496094 C 316.308594 52.449219 321.589844 51.535156 326.898438 50.746094 C 332.203125 49.960938 337.527344 49.304688 342.867188 48.777344 C 348.207031 48.25 353.554688 47.855469 358.910156 47.59375 C 364.269531 47.332031 369.632812 47.199219 374.996094 47.199219 C 380.359375 47.199219 385.722656 47.332031 391.082031 47.59375 C 396.4375 47.855469 401.785156 48.25 407.125 48.777344 C 412.464844 49.304688 417.789062 49.960938 423.09375 50.746094 C 428.398438 51.535156 433.683594 52.449219 438.945312 53.496094 C 444.207031 54.542969 449.441406 55.71875 454.644531 57.023438 C 459.847656 58.328125 465.015625 59.757812 470.152344 61.3125 C 475.285156 62.871094 480.375 64.554688 485.425781 66.359375 C 490.480469 68.167969 495.480469 70.097656 500.4375 72.152344 C 505.394531 74.203125 510.296875 76.378906 515.148438 78.671875 C 519.996094 80.964844 524.789062 83.375 529.519531 85.90625 C 534.25 88.433594 538.914062 91.078125 543.515625 93.835938 C 548.117188 96.59375 552.648438 99.460938 557.109375 102.441406 C 561.570312 105.421875 565.957031 108.511719 570.265625 111.707031 C 574.574219 114.902344 578.800781 118.203125 582.949219 121.605469 C 587.09375 125.007812 591.15625 128.511719 595.128906 132.113281 C 599.105469 135.71875 602.988281 139.414062 606.785156 143.207031 C 610.578125 147.003906 614.273438 150.886719 617.878906 154.859375 C 621.480469 158.835938 624.984375 162.898438 628.386719 167.042969 C 631.789062 171.191406 635.089844 175.417969 638.285156 179.726562 C 641.480469 184.035156 644.570312 188.421875 647.550781 192.882812 C 650.53125 197.34375 653.398438 201.875 656.15625 206.476562 C 658.914062 211.078125 661.558594 215.742188 664.085938 220.472656 C 666.617188 225.203125 669.027344 229.996094 671.320312 234.84375 C 673.613281 239.695312 675.789062 244.597656 677.839844 249.554688 C 679.894531 254.511719 681.824219 259.511719 683.632812 264.566406 C 685.4375 269.617188 687.121094 274.707031 688.679688 279.839844 C 690.234375 284.976562 691.664062 290.144531 692.96875 295.347656 C 694.273438 300.550781 695.449219 305.785156 696.496094 311.046875 C 697.539062 316.308594 698.457031 321.589844 699.246094 326.898438 C 700.03125 332.203125 700.6875 337.527344 701.214844 342.867188 C 701.742188 348.207031 702.136719 353.554688 702.398438 358.910156 C 702.660156 364.269531 702.792969 369.632812 702.792969 374.996094 Z M 702.792969 374.996094 " fill-opacity="1" fill-rule="nonzero"/></g><path fill="#00bf63" d="M 198.433594 271.960938 C 195.726562 271.960938 193.515625 269.746094 193.515625 267.042969 L 193.515625 238.515625 C 193.515625 235.8125 195.726562 233.597656 198.433594 233.597656 C 201.136719 233.597656 203.351562 235.8125 203.351562 238.515625 L 203.351562 267.042969 C 203.351562 269.746094 201.136719 271.960938 198.433594 271.960938 Z M 198.433594 271.960938 " fill-opacity="1" fill-rule="evenodd"/><path fill="#00bf63" d="M 212.695312 257.699219 L 184.171875 257.699219 C 181.464844 257.699219 179.253906 255.484375 179.253906 252.777344 C 179.253906 250.074219 181.464844 247.859375 184.171875 247.859375 L 212.695312 247.859375 C 215.402344 247.859375 217.613281 250.074219 217.613281 252.777344 C 217.613281 255.484375 215.402344 257.699219 212.695312 257.699219 Z M 212.695312 257.699219 " fill-opacity="1" fill-rule="evenodd"/><path fill="#00bf63" d="M 334.914062 559.183594 L 216.382812 559.183594 C 203.597656 559.183594 192.777344 548.363281 192.039062 534.835938 L 181.957031 348.929688 L 369.339844 348.929688 L 359.257812 534.835938 C 358.519531 548.363281 347.945312 559.183594 334.914062 559.183594 Z M 181.464844 339.09375 L 179.746094 311.058594 C 179.746094 309.585938 180.234375 308.355469 181.21875 307.371094 C 182.203125 306.386719 183.433594 305.894531 184.664062 305.894531 L 366.636719 305.894531 C 367.863281 305.894531 369.339844 306.386719 370.078125 307.371094 C 371.0625 308.355469 371.554688 309.585938 371.554688 311.058594 L 370.078125 339.09375 Z M 310.074219 530.410156 C 298.765625 530.410156 289.417969 521.066406 289.417969 509.753906 L 289.417969 391.964844 C 289.417969 380.40625 298.765625 371.0625 310.074219 371.0625 C 321.632812 371.0625 330.734375 380.40625 330.734375 391.964844 L 330.734375 509.753906 C 330.734375 521.066406 321.632812 530.410156 310.074219 530.410156 Z M 310.074219 380.898438 C 304.175781 380.898438 299.257812 385.816406 299.257812 391.964844 L 299.257812 509.753906 C 299.257812 515.65625 304.175781 520.574219 310.074219 520.574219 C 316.222656 520.574219 320.894531 515.65625 320.894531 509.753906 L 320.894531 391.964844 C 320.894531 385.816406 316.222656 380.898438 310.074219 380.898438 Z M 241.222656 530.410156 C 229.910156 530.410156 220.566406 521.066406 220.566406 509.753906 L 220.566406 391.964844 C 220.566406 380.40625 229.910156 371.0625 241.222656 371.0625 C 252.535156 371.0625 261.878906 380.40625 261.878906 391.964844 L 261.878906 509.753906 C 261.878906 521.066406 252.535156 530.410156 241.222656 530.410156 Z M 241.222656 380.898438 C 235.320312 380.898438 230.402344 385.816406 230.402344 391.964844 L 230.402344 509.753906 C 230.402344 515.65625 235.320312 520.574219 241.222656 520.574219 C 247.125 520.574219 252.042969 515.65625 252.042969 509.753906 L 252.042969 391.964844 C 252.042969 385.816406 247.125 380.898438 241.222656 380.898438 Z M 241.222656 380.898438 " fill-opacity="1" fill-rule="evenodd"/><path fill="#00bf63" d="M 228.925781 301.714844 L 228.925781 279.828125 C 228.925781 277.125 231.140625 274.910156 233.84375 274.910156 L 317.453125 274.910156 C 320.160156 274.910156 322.371094 277.125 322.371094 279.828125 L 322.371094 301.714844 Z M 228.925781 301.714844 " fill-opacity="1" fill-rule="evenodd"/><path fill="#00bf63" d="M 253.515625 585.003906 L 220.320312 585.003906 C 217.613281 585.003906 215.402344 582.789062 215.402344 580.085938 L 215.402344 563.117188 C 215.894531 563.117188 216.140625 563.117188 216.382812 563.117188 L 258.433594 563.117188 L 258.433594 580.085938 C 258.433594 582.789062 256.222656 585.003906 253.515625 585.003906 Z M 330.976562 585.003906 L 298.027344 585.003906 C 295.074219 585.003906 293.109375 582.789062 293.109375 580.085938 L 293.109375 563.117188 L 334.914062 563.117188 C 335.160156 563.117188 335.652344 563.117188 335.898438 563.117188 L 335.898438 580.085938 C 335.898438 582.789062 333.683594 585.003906 330.976562 585.003906 Z M 330.976562 585.003906 " fill-opacity="1" fill-rule="evenodd"/><path fill="#00bf63" d="M 566.066406 585.003906 C 566.066406 585.003906 566.066406 585.003906 565.820312 585.003906 L 528.199219 585.003906 L 528.199219 537.050781 C 528.199219 534.34375 525.984375 532.132812 523.277344 532.132812 C 520.574219 532.132812 518.359375 534.34375 518.359375 537.050781 L 518.359375 585.003906 L 488.359375 585.003906 L 488.359375 537.050781 C 488.359375 534.34375 486.148438 532.132812 483.441406 532.132812 C 480.738281 532.132812 478.523438 534.34375 478.523438 537.050781 L 478.523438 585.003906 L 448.523438 585.003906 L 448.523438 537.050781 C 448.523438 534.34375 446.308594 532.132812 443.605469 532.132812 C 440.898438 532.132812 438.6875 534.34375 438.6875 537.050781 L 438.6875 585.003906 L 408.6875 585.003906 L 408.6875 537.050781 C 408.6875 534.34375 406.472656 532.132812 403.765625 532.132812 C 401.0625 532.132812 398.847656 534.34375 398.847656 537.050781 L 398.847656 585.003906 L 361.226562 585.003906 C 359.503906 585.003906 358.027344 584.265625 357.289062 582.789062 C 356.308594 581.558594 356.0625 580.085938 356.554688 578.609375 L 382.621094 496.722656 C 383.355469 494.753906 385.078125 493.277344 387.292969 493.277344 L 539.753906 493.277344 C 541.96875 493.277344 543.9375 494.753906 544.425781 496.722656 L 570.492188 577.871094 C 570.738281 578.363281 570.984375 579.101562 570.984375 580.085938 C 570.984375 582.789062 568.773438 585.003906 566.066406 585.003906 Z M 566.066406 585.003906 " fill-opacity="1" fill-rule="evenodd"/><path fill="#00bf63" d="M 443.851562 489.34375 L 443.851562 170.152344 C 443.851562 167.449219 446.0625 165.234375 448.769531 165.234375 L 478.277344 165.234375 C 480.984375 165.234375 483.195312 167.449219 483.195312 170.152344 L 483.195312 489.34375 Z M 443.851562 489.34375 " fill-opacity="1" fill-rule="evenodd"/><path fill="#00bf63" d="M 232.613281 205.320312 C 229.910156 205.320312 227.695312 203.105469 227.695312 200.402344 L 227.695312 171.875 C 227.695312 169.171875 229.910156 166.957031 232.613281 166.957031 C 235.320312 166.957031 237.53125 169.171875 237.53125 171.875 L 237.53125 200.402344 C 237.53125 203.105469 235.320312 205.320312 232.613281 205.320312 Z M 232.613281 205.320312 " fill-opacity="1" fill-rule="evenodd"/><path fill="#00bf63" d="M 246.878906 191.054688 L 218.351562 191.054688 C 215.648438 191.054688 213.433594 188.84375 213.433594 186.136719 C 213.433594 183.433594 215.648438 181.21875 218.351562 181.21875 L 246.878906 181.21875 C 249.582031 181.21875 251.796875 183.433594 251.796875 186.136719 C 251.796875 188.84375 249.582031 191.054688 246.878906 191.054688 Z M 246.878906 191.054688 " fill-opacity="1" fill-rule="evenodd"/><path fill="#00bf63" d="M 294.09375 246.386719 C 291.386719 246.386719 289.171875 244.171875 289.171875 241.46875 L 289.171875 212.941406 C 289.171875 210.238281 291.386719 208.023438 294.09375 208.023438 C 296.796875 208.023438 299.011719 210.238281 299.011719 212.941406 L 299.011719 241.46875 C 299.011719 244.171875 296.796875 246.386719 294.09375 246.386719 Z M 294.09375 246.386719 " fill-opacity="1" fill-rule="evenodd"/><path fill="#00bf63" d="M 308.355469 232.121094 L 279.828125 232.121094 C 277.125 232.121094 274.910156 229.910156 274.910156 227.203125 C 274.910156 224.5 277.125 222.285156 279.828125 222.285156 L 308.355469 222.285156 C 311.058594 222.285156 313.273438 224.5 313.273438 227.203125 C 313.273438 229.910156 311.058594 232.121094 308.355469 232.121094 Z M 308.355469 232.121094 " fill-opacity="1" fill-rule="evenodd"/><path fill="#00bf63" d="M 375.980469 216.382812 C 373.273438 216.382812 371.0625 214.171875 371.0625 211.464844 L 371.0625 183.1875 C 371.0625 180.480469 373.273438 178.269531 375.980469 178.269531 C 378.683594 178.269531 380.898438 180.480469 380.898438 183.1875 L 380.898438 211.464844 C 380.898438 214.171875 378.683594 216.382812 375.980469 216.382812 Z M 375.980469 216.382812 " fill-opacity="1" fill-rule="evenodd"/><path fill="#00bf63" d="M 390.242188 202.121094 L 361.71875 202.121094 C 359.011719 202.121094 356.796875 199.910156 356.796875 197.203125 C 356.796875 194.5 359.011719 192.285156 361.71875 192.285156 L 390.242188 192.285156 C 392.949219 192.285156 395.160156 194.5 395.160156 197.203125 C 395.160156 199.910156 392.949219 202.121094 390.242188 202.121094 Z M 390.242188 202.121094 " fill-opacity="1" fill-rule="evenodd"/><path fill="#00bf63" d="M 540 234.335938 C 537.296875 234.335938 535.082031 232.121094 535.082031 229.417969 L 535.082031 200.890625 C 535.082031 198.1875 537.296875 195.972656 540 195.972656 C 542.707031 195.972656 544.917969 198.1875 544.917969 200.890625 L 544.917969 229.417969 C 544.917969 232.121094 542.707031 234.335938 540 234.335938 Z M 540 234.335938 " fill-opacity="1" fill-rule="evenodd"/><path fill="#00bf63" d="M 554.265625 220.074219 L 525.738281 220.074219 C 523.035156 220.074219 520.820312 217.859375 520.820312 215.15625 C 520.820312 212.449219 523.035156 210.238281 525.738281 210.238281 L 554.265625 210.238281 C 556.96875 210.238281 559.183594 212.449219 559.183594 215.15625 C 559.183594 217.859375 556.96875 220.074219 554.265625 220.074219 Z M 554.265625 220.074219 " fill-opacity="1" fill-rule="evenodd"/><path fill="#00bf63" d="M 392.210938 297.535156 C 389.503906 297.535156 387.292969 295.320312 387.292969 292.617188 L 387.292969 264.089844 C 387.292969 261.386719 389.503906 259.171875 392.210938 259.171875 C 394.914062 259.171875 397.128906 261.386719 397.128906 264.089844 L 397.128906 292.617188 C 397.128906 295.320312 394.914062 297.535156 392.210938 297.535156 Z M 392.210938 297.535156 " fill-opacity="1" fill-rule="evenodd"/><path fill="#00bf63" d="M 406.472656 283.273438 L 377.945312 283.273438 C 375.242188 283.273438 373.027344 281.058594 373.027344 278.355469 C 373.027344 275.648438 375.242188 273.4375 377.945312 273.4375 L 406.472656 273.4375 C 409.175781 273.4375 411.390625 275.648438 411.390625 278.355469 C 411.390625 281.058594 409.175781 283.273438 406.472656 283.273438 Z M 406.472656 283.273438 " fill-opacity="1" fill-rule="evenodd"/></svg>