<svg xmlns="http://www.w3.org/2000/svg" xmlns:xlink="http://www.w3.org/1999/xlink" width="1000" zoomAndPan="magnify" viewBox="0 0 750 749.999995" height="1000" preserveAspectRatio="xMidYMid meet" version="1.0"><defs><clipPath id="a48a55b44f"><path d="M 375 0 C 167.894531 0 0 167.894531 0 375 C 0 582.105469 167.894531 750 375 750 C 582.105469 750 750 582.105469 750 375 C 750 167.894531 582.105469 0 375 0 Z M 375 0 " clip-rule="nonzero"/></clipPath><clipPath id="9ab1017b07"><path d="M 0 0 L 750 0 L 750 750 L 0 750 Z M 0 0 " clip-rule="nonzero"/></clipPath><clipPath id="eab9f91c3c"><path d="M 375 0 C 167.894531 0 0 167.894531 0 375 C 0 582.105469 167.894531 750 375 750 C 582.105469 750 750 582.105469 750 375 C 750 167.894531 582.105469 0 375 0 Z M 375 0 " clip-rule="nonzero"/></clipPath><clipPath id="ac0bb82ede"><rect x="0" width="750" y="0" height="750"/></clipPath><clipPath id="fd571e94e3"><path d="M 161.316406 161 L 588.816406 161 L 588.816406 600.792969 L 161.316406 600.792969 Z M 161.316406 161 " clip-rule="nonzero"/></clipPath><clipPath id="a105c24d0b"><path d="M 0.316406 0.28125 L 427.675781 0.28125 L 427.675781 439.71875 L 0.316406 439.71875 Z M 0.316406 0.28125 " clip-rule="nonzero"/></clipPath><clipPath id="ba168bf882"><rect x="0" width="428" y="0" height="440"/></clipPath></defs><g clip-path="url(#a48a55b44f)"><g transform="matrix(1, 0, 0, 1, 0, -0.000000000000042435)"><g clip-path="url(#ac0bb82ede)"><g clip-path="url(#9ab1017b07)"><g clip-path="url(#eab9f91c3c)"><rect x="-165" width="1080" fill="#fbeb9d" height="1079.999992" y="-164.999999" fill-opacity="1"/></g></g></g></g></g><g clip-path="url(#fd571e94e3)"><g transform="matrix(1, 0, 0, 1, 161, 161)"><g clip-path="url(#ba168bf882)"><path fill="#33baf2" d="M 230.402344 27.300781 L 395.085938 6.539062 C 409.597656 4.714844 421.703125 18.523438 421.703125 33.160156 L 421.703125 119.878906 C 421.699219 120.746094 421.65625 121.617188 421.566406 122.484375 C 421.480469 123.347656 421.351562 124.207031 421.175781 125.0625 C 421.003906 125.914062 420.792969 126.757812 420.539062 127.589844 C 420.28125 128.425781 419.988281 129.242188 419.652344 130.046875 C 419.320312 130.851562 418.945312 131.636719 418.535156 132.402344 C 418.121094 133.171875 417.675781 133.914062 417.191406 134.640625 C 416.707031 135.363281 416.1875 136.058594 415.632812 136.734375 C 415.082031 137.40625 414.496094 138.050781 413.878906 138.664062 C 413.265625 139.28125 412.621094 139.863281 411.945312 140.417969 C 411.273438 140.96875 410.574219 141.488281 409.851562 141.972656 C 409.128906 142.453125 408.382812 142.902344 407.613281 143.3125 C 406.847656 143.722656 406.0625 144.097656 405.257812 144.429688 C 404.453125 144.765625 403.636719 145.058594 402.800781 145.3125 C 401.96875 145.566406 401.125 145.78125 400.273438 145.953125 C 399.417969 146.121094 398.558594 146.253906 397.691406 146.339844 C 396.828125 146.425781 395.957031 146.472656 395.085938 146.472656 L 288.554688 146.472656 L 241.464844 179.707031 L 241.464844 146.472656 L 230.398438 146.472656 C 229.53125 146.472656 228.660156 146.425781 227.796875 146.339844 C 226.929688 146.25 226.070312 146.121094 225.214844 145.949219 C 224.363281 145.78125 223.519531 145.566406 222.6875 145.3125 C 221.855469 145.058594 221.035156 144.765625 220.234375 144.429688 C 219.429688 144.097656 218.644531 143.722656 217.875 143.3125 C 217.109375 142.902344 216.363281 142.453125 215.640625 141.96875 C 214.917969 141.484375 214.21875 140.96875 213.546875 140.414062 C 212.875 139.863281 212.230469 139.277344 211.613281 138.664062 C 211 138.046875 210.414062 137.402344 209.863281 136.730469 C 209.308594 136.058594 208.792969 135.359375 208.308594 134.636719 C 207.824219 133.914062 207.375 133.167969 206.964844 132.402344 C 206.554688 131.632812 206.179688 130.847656 205.847656 130.042969 C 205.511719 129.242188 205.21875 128.421875 204.964844 127.589844 C 204.710938 126.757812 204.496094 125.914062 204.328125 125.0625 C 204.15625 124.207031 204.023438 123.347656 203.9375 122.480469 C 203.851562 121.617188 203.804688 120.746094 203.804688 119.878906 L 203.804688 53.894531 C 203.804688 39.257812 215.886719 29.121094 230.398438 27.296875 Z M 230.402344 27.300781 " fill-opacity="1" fill-rule="evenodd"/><path fill="#ffc085" d="M 68.734375 425.222656 C 46.367188 431.714844 25.65625 434.242188 6.378906 433.292969 L 6.378906 11.667969 C 36.933594 7.683594 68.734375 11.597656 96.933594 24.503906 C 141.375 44.851562 170.691406 74.222656 171.714844 125.832031 C 172.152344 147.324219 171.230469 160.28125 184.332031 179.195312 C 188.171875 184.738281 193.496094 191.03125 198.484375 197.160156 C 225.589844 230.539062 220.289062 229.375 209.496094 233.628906 C 200.597656 237.152344 186.960938 235.476562 195.175781 261.949219 C 197.167969 268.320312 173.757812 270.097656 173.292969 273.546875 C 172.90625 276.316406 194.785156 282.152344 187.46875 289.03125 C 185.304688 291.050781 183.820312 292.507812 182.484375 295.402344 C 174.292969 313.246094 204.996094 348.886719 161.84375 354.597656 C 133.691406 358.320312 96.886719 341.714844 85.800781 354.746094 C 81.886719 359.363281 75.6875 379.371094 73.597656 386.835938 C 69.949219 399.988281 67.566406 410.585938 68.734375 425.222656 Z M 68.734375 425.222656 " fill-opacity="1" fill-rule="evenodd"/><path fill="#000000" d="M 260.667969 236.859375 C 260.386719 236.597656 260.082031 236.367188 259.757812 236.164062 C 259.429688 235.957031 259.085938 235.789062 258.726562 235.652344 C 258.367188 235.511719 257.996094 235.410156 257.617188 235.34375 C 257.238281 235.277344 256.855469 235.246094 256.472656 235.253906 C 256.085938 235.261719 255.707031 235.304688 255.328125 235.386719 C 254.953125 235.464844 254.585938 235.582031 254.234375 235.730469 C 253.878906 235.882812 253.542969 236.066406 253.222656 236.28125 C 252.902344 236.496094 252.609375 236.738281 252.335938 237.011719 C 252.0625 237.285156 251.820312 237.582031 251.605469 237.898438 C 251.390625 238.21875 251.207031 238.554688 251.054688 238.910156 C 250.90625 239.265625 250.789062 239.628906 250.710938 240.007812 C 250.628906 240.382812 250.585938 240.761719 250.578125 241.148438 C 250.570312 241.535156 250.601562 241.914062 250.667969 242.296875 C 250.734375 242.675781 250.835938 243.042969 250.972656 243.402344 C 251.113281 243.761719 251.28125 244.105469 251.484375 244.433594 C 251.6875 244.757812 251.921875 245.0625 252.183594 245.347656 C 255.792969 248.953125 258.582031 253.109375 260.546875 257.816406 C 261.503906 260.152344 262.222656 262.558594 262.710938 265.035156 C 263.195312 267.511719 263.441406 270.011719 263.441406 272.539062 C 263.441406 275.0625 263.195312 277.5625 262.710938 280.039062 C 262.222656 282.515625 261.503906 284.921875 260.546875 287.257812 C 258.582031 291.964844 255.792969 296.125 252.183594 299.730469 C 251.921875 300.011719 251.6875 300.316406 251.484375 300.640625 C 251.28125 300.96875 251.113281 301.3125 250.972656 301.671875 C 250.835938 302.03125 250.734375 302.402344 250.667969 302.78125 C 250.601562 303.160156 250.570312 303.542969 250.578125 303.925781 C 250.585938 304.3125 250.628906 304.691406 250.707031 305.070312 C 250.789062 305.445312 250.90625 305.8125 251.054688 306.164062 C 251.207031 306.519531 251.386719 306.855469 251.605469 307.175781 C 251.820312 307.496094 252.0625 307.789062 252.335938 308.0625 C 252.609375 308.335938 252.902344 308.578125 253.222656 308.792969 C 253.542969 309.011719 253.878906 309.191406 254.234375 309.34375 C 254.585938 309.492188 254.953125 309.609375 255.328125 309.691406 C 255.707031 309.769531 256.085938 309.8125 256.472656 309.820312 C 256.855469 309.828125 257.238281 309.796875 257.617188 309.730469 C 257.996094 309.664062 258.367188 309.5625 258.726562 309.425781 C 259.085938 309.289062 259.429688 309.117188 259.757812 308.914062 C 260.082031 308.710938 260.386719 308.476562 260.667969 308.214844 C 265.402344 303.46875 269.050781 297.996094 271.609375 291.800781 C 272.875 288.746094 273.832031 285.601562 274.480469 282.359375 C 275.125 279.117188 275.449219 275.839844 275.449219 272.535156 C 275.449219 269.230469 275.125 265.953125 274.480469 262.710938 C 273.832031 259.46875 272.875 256.320312 271.609375 253.269531 C 269.050781 247.074219 265.402344 241.605469 260.667969 236.859375 Z M 311.726562 185.808594 C 311.445312 185.539062 311.140625 185.300781 310.8125 185.09375 C 310.484375 184.886719 310.140625 184.710938 309.78125 184.566406 C 309.417969 184.425781 309.046875 184.320312 308.667969 184.25 C 308.285156 184.179688 307.898438 184.148438 307.511719 184.152344 C 307.125 184.15625 306.742188 184.199219 306.359375 184.277344 C 305.980469 184.355469 305.613281 184.472656 305.253906 184.621094 C 304.898438 184.773438 304.558594 184.957031 304.234375 185.171875 C 303.914062 185.386719 303.613281 185.632812 303.339844 185.90625 C 303.066406 186.183594 302.820312 186.480469 302.605469 186.800781 C 302.386719 187.125 302.203125 187.464844 302.050781 187.820312 C 301.902344 188.179688 301.785156 188.546875 301.707031 188.925781 C 301.628906 189.308594 301.585938 189.691406 301.582031 190.078125 C 301.574219 190.464844 301.609375 190.851562 301.679688 191.234375 C 301.746094 191.613281 301.855469 191.984375 301.996094 192.347656 C 302.136719 192.707031 302.3125 193.054688 302.519531 193.378906 C 302.730469 193.707031 302.96875 194.011719 303.234375 194.292969 C 304.515625 195.570312 305.769531 196.882812 306.988281 198.222656 C 308.203125 199.5625 309.390625 200.933594 310.539062 202.332031 C 311.691406 203.730469 312.808594 205.15625 313.890625 206.609375 C 314.96875 208.066406 316.015625 209.542969 317.023438 211.050781 C 318.03125 212.554688 319 214.085938 319.933594 215.636719 C 320.867188 217.191406 321.761719 218.765625 322.617188 220.363281 C 323.472656 221.960938 324.289062 223.574219 325.0625 225.214844 C 325.839844 226.851562 326.574219 228.503906 327.269531 230.179688 C 327.964844 231.851562 328.617188 233.542969 329.226562 235.246094 C 329.839844 236.953125 330.410156 238.671875 330.9375 240.40625 C 331.460938 242.136719 331.945312 243.882812 332.386719 245.640625 C 332.828125 247.398438 333.226562 249.164062 333.582031 250.941406 C 333.933594 252.71875 334.246094 254.503906 334.511719 256.292969 C 334.777344 258.085938 335 259.882812 335.175781 261.6875 C 335.355469 263.488281 335.488281 265.296875 335.578125 267.105469 C 335.667969 268.914062 335.710938 270.726562 335.710938 272.539062 C 335.710938 274.347656 335.667969 276.160156 335.578125 277.96875 C 335.488281 279.777344 335.355469 281.585938 335.175781 283.386719 C 335 285.191406 334.777344 286.988281 334.511719 288.78125 C 334.246094 290.570312 333.933594 292.355469 333.582031 294.132812 C 333.226562 295.910156 332.828125 297.675781 332.386719 299.433594 C 331.945312 301.191406 331.460938 302.9375 330.9375 304.667969 C 330.410156 306.402344 329.839844 308.121094 329.230469 309.828125 C 328.617188 311.53125 327.964844 313.222656 327.269531 314.894531 C 326.574219 316.570312 325.839844 318.222656 325.0625 319.859375 C 324.289062 321.5 323.472656 323.117188 322.617188 324.710938 C 321.761719 326.308594 320.867188 327.882812 319.933594 329.4375 C 319 330.988281 318.03125 332.519531 317.023438 334.023438 C 316.015625 335.53125 314.96875 337.007812 313.890625 338.464844 C 312.808594 339.917969 311.691406 341.34375 310.539062 342.742188 C 309.390625 344.140625 308.203125 345.511719 306.988281 346.851562 C 305.769531 348.191406 304.515625 349.503906 303.234375 350.78125 C 302.9375 351.054688 302.675781 351.359375 302.441406 351.6875 C 302.203125 352.015625 302.003906 352.363281 301.839844 352.730469 C 301.675781 353.097656 301.550781 353.480469 301.460938 353.875 C 301.375 354.265625 301.328125 354.664062 301.320312 355.070312 C 301.3125 355.472656 301.347656 355.871094 301.417969 356.269531 C 301.492188 356.664062 301.605469 357.050781 301.757812 357.425781 C 301.90625 357.800781 302.09375 358.152344 302.316406 358.492188 C 302.539062 358.828125 302.792969 359.136719 303.078125 359.421875 C 303.363281 359.707031 303.675781 359.960938 304.011719 360.183594 C 304.347656 360.40625 304.703125 360.59375 305.074219 360.746094 C 305.449219 360.894531 305.835938 361.007812 306.230469 361.082031 C 306.628906 361.15625 307.027344 361.1875 307.433594 361.179688 C 307.835938 361.171875 308.234375 361.125 308.628906 361.039062 C 309.019531 360.949219 309.402344 360.824219 309.769531 360.660156 C 310.136719 360.496094 310.488281 360.296875 310.816406 360.0625 C 311.144531 359.828125 311.445312 359.5625 311.71875 359.265625 C 313.140625 357.847656 314.523438 356.394531 315.871094 354.90625 C 317.21875 353.417969 318.53125 351.902344 319.804688 350.347656 C 321.078125 348.796875 322.3125 347.214844 323.511719 345.601562 C 324.707031 343.992188 325.863281 342.351562 326.976562 340.683594 C 328.09375 339.011719 329.167969 337.316406 330.199219 335.597656 C 331.230469 333.875 332.222656 332.128906 333.167969 330.359375 C 334.113281 328.585938 335.015625 326.796875 335.875 324.980469 C 336.734375 323.167969 337.546875 321.332031 338.316406 319.476562 C 339.085938 317.621094 339.808594 315.75 340.484375 313.859375 C 341.160156 311.96875 341.789062 310.066406 342.371094 308.144531 C 342.957031 306.222656 343.492188 304.289062 343.980469 302.339844 C 344.464844 300.394531 344.90625 298.4375 345.296875 296.46875 C 345.691406 294.5 346.03125 292.519531 346.328125 290.535156 C 346.621094 288.550781 346.867188 286.558594 347.066406 284.558594 C 347.261719 282.5625 347.410156 280.5625 347.507812 278.554688 C 347.605469 276.550781 347.65625 274.542969 347.65625 272.539062 C 347.65625 270.53125 347.605469 268.523438 347.507812 266.519531 C 347.410156 264.511719 347.261719 262.511719 347.066406 260.515625 C 346.867188 258.515625 346.621094 256.523438 346.328125 254.539062 C 346.03125 252.554688 345.691406 250.574219 345.296875 248.605469 C 344.90625 246.636719 344.464844 244.679688 343.980469 242.734375 C 343.492188 240.785156 342.957031 238.851562 342.371094 236.929688 C 341.789062 235.007812 341.160156 233.105469 340.484375 231.214844 C 339.808594 229.324219 339.085938 227.453125 338.316406 225.597656 C 337.546875 223.742188 336.734375 221.90625 335.875 220.09375 C 335.015625 218.277344 334.113281 216.488281 333.167969 214.714844 C 332.222656 212.945312 331.230469 211.199219 330.199219 209.476562 C 329.167969 207.757812 328.09375 206.0625 326.976562 204.390625 C 325.863281 202.722656 324.707031 201.082031 323.511719 199.472656 C 322.3125 197.859375 321.078125 196.277344 319.804688 194.726562 C 318.53125 193.171875 317.21875 191.65625 315.871094 190.167969 C 314.523438 188.679688 313.140625 187.226562 311.71875 185.808594 Z M 286.199219 211.335938 C 285.917969 211.074219 285.613281 210.839844 285.285156 210.636719 C 284.957031 210.433594 284.617188 210.261719 284.253906 210.125 C 283.894531 209.984375 283.527344 209.882812 283.148438 209.816406 C 282.769531 209.75 282.386719 209.722656 282 209.726562 C 281.617188 209.734375 281.234375 209.777344 280.859375 209.859375 C 280.480469 209.9375 280.117188 210.054688 279.761719 210.207031 C 279.40625 210.355469 279.070312 210.539062 278.75 210.753906 C 278.433594 210.96875 278.136719 211.214844 277.863281 211.484375 C 277.59375 211.757812 277.347656 212.054688 277.132812 212.371094 C 276.917969 212.691406 276.734375 213.027344 276.585938 213.382812 C 276.433594 213.738281 276.316406 214.101562 276.238281 214.480469 C 276.15625 214.855469 276.113281 215.238281 276.105469 215.621094 C 276.101562 216.007812 276.128906 216.390625 276.195312 216.769531 C 276.261719 217.148438 276.367188 217.515625 276.503906 217.875 C 276.640625 218.234375 276.8125 218.578125 277.015625 218.90625 C 277.21875 219.234375 277.453125 219.539062 277.714844 219.820312 C 278.578125 220.679688 279.421875 221.5625 280.242188 222.46875 C 281.0625 223.371094 281.859375 224.292969 282.632812 225.238281 C 283.410156 226.179688 284.160156 227.140625 284.890625 228.121094 C 285.617188 229.101562 286.320312 230.097656 287 231.109375 C 287.679688 232.125 288.332031 233.15625 288.960938 234.203125 C 289.589844 235.25 290.191406 236.308594 290.769531 237.386719 C 291.34375 238.460938 291.894531 239.550781 292.414062 240.652344 C 292.9375 241.757812 293.433594 242.871094 293.902344 244 C 294.367188 245.128906 294.808594 246.265625 295.21875 247.414062 C 295.632812 248.5625 296.015625 249.722656 296.371094 250.890625 C 296.726562 252.058594 297.050781 253.234375 297.347656 254.417969 C 297.644531 255.601562 297.914062 256.792969 298.152344 257.988281 C 298.390625 259.183594 298.597656 260.386719 298.777344 261.59375 C 298.957031 262.800781 299.105469 264.011719 299.226562 265.226562 C 299.347656 266.441406 299.4375 267.660156 299.496094 268.878906 C 299.554688 270.097656 299.585938 271.316406 299.585938 272.539062 C 299.585938 273.757812 299.554688 274.976562 299.496094 276.195312 C 299.4375 277.417969 299.347656 278.632812 299.226562 279.847656 C 299.105469 281.0625 298.957031 282.273438 298.777344 283.480469 C 298.597656 284.6875 298.390625 285.890625 298.152344 287.085938 C 297.914062 288.285156 297.644531 289.472656 297.347656 290.660156 C 297.050781 291.84375 296.726562 293.019531 296.371094 294.1875 C 296.015625 295.355469 295.632812 296.511719 295.21875 297.660156 C 294.808594 298.808594 294.367188 299.949219 293.902344 301.074219 C 293.433594 302.203125 292.9375 303.316406 292.414062 304.421875 C 291.894531 305.523438 291.34375 306.613281 290.769531 307.691406 C 290.191406 308.765625 289.589844 309.828125 288.960938 310.875 C 288.332031 311.917969 287.679688 312.949219 287 313.964844 C 286.320312 314.976562 285.617188 315.976562 284.890625 316.953125 C 284.160156 317.933594 283.410156 318.894531 282.632812 319.839844 C 281.859375 320.78125 281.0625 321.703125 280.242188 322.609375 C 279.421875 323.511719 278.578125 324.394531 277.714844 325.257812 C 277.417969 325.53125 277.152344 325.832031 276.917969 326.160156 C 276.683594 326.488281 276.480469 326.835938 276.316406 327.203125 C 276.152344 327.574219 276.027344 327.953125 275.9375 328.347656 C 275.847656 328.742188 275.800781 329.140625 275.792969 329.542969 C 275.785156 329.949219 275.820312 330.347656 275.890625 330.746094 C 275.964844 331.144531 276.078125 331.527344 276.230469 331.902344 C 276.378906 332.277344 276.566406 332.632812 276.789062 332.96875 C 277.011719 333.304688 277.265625 333.617188 277.550781 333.902344 C 277.835938 334.1875 278.148438 334.441406 278.484375 334.664062 C 278.820312 334.886719 279.175781 335.074219 279.550781 335.226562 C 279.925781 335.375 280.3125 335.488281 280.707031 335.5625 C 281.105469 335.632812 281.507812 335.667969 281.910156 335.660156 C 282.3125 335.652344 282.710938 335.605469 283.105469 335.515625 C 283.5 335.429688 283.882812 335.300781 284.25 335.136719 C 284.617188 334.972656 284.964844 334.773438 285.292969 334.535156 C 285.621094 334.300781 285.925781 334.035156 286.199219 333.738281 C 287.199219 332.738281 288.175781 331.714844 289.128906 330.664062 C 290.082031 329.613281 291.007812 328.542969 291.90625 327.449219 C 292.804688 326.351562 293.675781 325.238281 294.519531 324.097656 C 295.363281 322.960938 296.179688 321.804688 296.96875 320.625 C 297.753906 319.449219 298.511719 318.25 299.242188 317.035156 C 299.96875 315.820312 300.667969 314.589844 301.335938 313.339844 C 302.003906 312.089844 302.640625 310.828125 303.246094 309.546875 C 303.851562 308.265625 304.425781 306.972656 304.96875 305.664062 C 305.511719 304.351562 306.023438 303.03125 306.5 301.699219 C 306.976562 300.363281 307.421875 299.019531 307.832031 297.664062 C 308.246094 296.308594 308.621094 294.945312 308.964844 293.570312 C 309.3125 292.195312 309.621094 290.8125 309.898438 289.425781 C 310.175781 288.035156 310.417969 286.640625 310.625 285.238281 C 310.832031 283.835938 311.007812 282.429688 311.144531 281.023438 C 311.285156 279.613281 311.386719 278.199219 311.457031 276.785156 C 311.527344 275.371094 311.5625 273.953125 311.5625 272.539062 C 311.5625 271.121094 311.527344 269.703125 311.457031 268.289062 C 311.386719 266.875 311.285156 265.460938 311.144531 264.050781 C 311.007812 262.644531 310.832031 261.238281 310.625 259.835938 C 310.417969 258.433594 310.175781 257.039062 309.898438 255.648438 C 309.621094 254.261719 309.3125 252.878906 308.964844 251.503906 C 308.621094 250.128906 308.246094 248.765625 307.832031 247.410156 C 307.421875 246.054688 306.976562 244.710938 306.5 243.375 C 306.023438 242.042969 305.511719 240.722656 304.96875 239.414062 C 304.425781 238.101562 303.851562 236.808594 303.246094 235.527344 C 302.640625 234.246094 302.003906 232.984375 301.335938 231.734375 C 300.667969 230.484375 299.96875 229.253906 299.242188 228.039062 C 298.511719 226.824219 297.753906 225.625 296.96875 224.449219 C 296.179688 223.269531 295.363281 222.113281 294.519531 220.976562 C 293.675781 219.839844 292.804688 218.722656 291.90625 217.628906 C 291.007812 216.53125 290.082031 215.460938 289.128906 214.410156 C 288.175781 213.363281 287.199219 212.335938 286.199219 211.335938 Z M 286.199219 211.335938 " fill-opacity="1" fill-rule="nonzero"/><g clip-path="url(#a105c24d0b)"><path fill="#000000" d="M 5.601562 5.714844 C 38.539062 1.414062 70.992188 6.027344 99.457031 19.046875 C 151.886719 43.050781 176.753906 76.949219 177.71875 125.710938 C 177.753906 127.433594 177.78125 129.101562 177.804688 130.71875 C 178.09375 148.898438 178.269531 159.871094 189.265625 175.777344 C 192.046875 179.789062 195.667969 184.21875 199.503906 188.90625 C 200.726562 190.402344 201.953125 191.902344 203.140625 193.375 C 221.4375 215.90625 225.714844 223.429688 223.9375 229.960938 C 222.519531 235.164062 217.828125 236.910156 213.691406 238.457031 C 213.054688 238.691406 212.386719 238.941406 211.703125 239.210938 C 210.023438 239.84375 208.316406 240.386719 206.578125 240.839844 C 202.726562 241.914062 200.324219 242.6875 199.394531 244.394531 C 198.589844 245.871094 197.714844 249.882812 200.90625 260.15625 C 201.25 261.25 201.367188 262.367188 201.257812 263.511719 C 201.144531 264.652344 200.816406 265.726562 200.261719 266.734375 C 197.957031 270.988281 192.480469 272.976562 186.339844 274.75 C 190.570312 277.285156 194.269531 280.375 194.886719 284.925781 C 195.128906 286.707031 195.023438 290.171875 191.5625 293.417969 C 189.542969 295.304688 188.765625 296.121094 187.941406 297.902344 C 185.96875 302.199219 187.558594 309.621094 189.09375 316.804688 C 191.339844 327.304688 193.886719 339.203125 187.300781 348.542969 C 182.726562 355.03125 174.664062 358.957031 162.652344 360.550781 C 149.816406 362.242188 135.546875 360.035156 122.957031 358.089844 C 109 355.933594 94.570312 353.699219 90.378906 358.625 C 88.046875 361.375 82.710938 376.546875 79.382812 388.4375 C 76.066406 400.390625 73.617188 410.65625 74.71875 424.75 C 74.773438 425.4375 74.710938 426.117188 74.53125 426.785156 C 74.351562 427.449219 74.0625 428.066406 73.671875 428.636719 C 73.277344 429.203125 72.800781 429.6875 72.242188 430.089844 C 71.679688 430.496094 71.070312 430.792969 70.40625 430.984375 C 50.9375 436.636719 32.0625 439.484375 14.15625 439.484375 C 11.441406 439.484375 8.75 439.417969 6.082031 439.289062 C 5.699219 439.269531 5.324219 439.214844 4.953125 439.125 C 4.582031 439.035156 4.222656 438.910156 3.875 438.75 C 3.527344 438.59375 3.199219 438.402344 2.886719 438.179688 C 2.574219 437.957031 2.289062 437.707031 2.027344 437.433594 C 1.761719 437.15625 1.527344 436.855469 1.320312 436.535156 C 1.113281 436.214844 0.941406 435.875 0.800781 435.519531 C 0.65625 435.167969 0.550781 434.800781 0.476562 434.425781 C 0.40625 434.050781 0.371094 433.671875 0.371094 433.292969 L 0.371094 11.667969 C 0.371094 11.308594 0.402344 10.949219 0.46875 10.59375 C 0.53125 10.238281 0.628906 9.890625 0.753906 9.550781 C 0.882812 9.214844 1.039062 8.890625 1.226562 8.578125 C 1.414062 8.269531 1.625 7.980469 1.863281 7.707031 C 2.101562 7.4375 2.363281 7.1875 2.644531 6.964844 C 2.929688 6.738281 3.230469 6.542969 3.550781 6.371094 C 3.871094 6.199219 4.199219 6.0625 4.546875 5.949219 C 4.890625 5.839844 5.242188 5.761719 5.601562 5.714844 Z M 12.382812 427.46875 C 29.390625 427.511719 46.089844 425.265625 62.484375 420.734375 C 62.097656 407.164062 64.671875 396.546875 67.8125 385.214844 C 68.609375 382.386719 75.726562 357.34375 81.226562 350.855469 C 89.773438 340.808594 106 343.320312 124.796875 346.222656 C 137.164062 348.136719 149.953125 350.113281 161.082031 348.644531 C 169.46875 347.527344 174.988281 345.171875 177.488281 341.625 C 181.042969 336.582031 179.25 328.195312 177.351562 319.320312 C 175.40625 310.222656 173.394531 300.816406 177.035156 292.882812 C 178.195312 290.320312 179.792969 288.066406 181.824219 286.121094 C 179.929688 284.890625 177.976562 283.761719 175.960938 282.742188 C 171.164062 280.222656 166.632812 277.839844 167.351562 272.675781 C 168.097656 267.398438 173.269531 265.949219 180.429688 263.945312 C 183.246094 263.214844 186.007812 262.320312 188.714844 261.265625 C 185.902344 251.191406 185.953125 243.960938 188.851562 238.648438 C 192.28125 232.359375 198.679688 230.574219 203.355469 229.269531 C 204.6875 228.925781 206 228.515625 207.292969 228.039062 C 208.058594 227.738281 208.792969 227.460938 209.496094 227.199219 C 210.289062 226.90625 211.257812 226.542969 211.996094 226.222656 C 210.636719 222.625 204.535156 214.140625 193.808594 200.929688 C 192.621094 199.457031 191.414062 197.980469 190.207031 196.507812 C 186.390625 191.84375 182.445312 187.019531 179.390625 182.609375 C 166.316406 163.703125 166.097656 149.945312 165.796875 130.90625 C 165.769531 129.304688 165.742188 127.65625 165.710938 125.949219 C 164.835938 81.730469 142.859375 52.125 94.460938 29.964844 C 69.546875 18.570312 41.273438 14.121094 12.378906 17.019531 Z M 252.175781 299.707031 C 251.898438 299.984375 251.648438 300.289062 251.429688 300.617188 C 251.207031 300.945312 251.023438 301.289062 250.871094 301.652344 C 250.71875 302.019531 250.605469 302.394531 250.527344 302.78125 C 250.449219 303.167969 250.410156 303.558594 250.410156 303.953125 C 250.410156 304.34375 250.449219 304.734375 250.523438 305.121094 C 250.601562 305.507812 250.714844 305.886719 250.863281 306.25 C 251.015625 306.613281 251.199219 306.960938 251.417969 307.289062 C 251.636719 307.617188 251.886719 307.921875 252.164062 308.199219 C 252.441406 308.480469 252.746094 308.726562 253.074219 308.949219 C 253.398438 309.167969 253.746094 309.351562 254.109375 309.503906 C 254.472656 309.65625 254.847656 309.769531 255.234375 309.847656 C 255.621094 309.925781 256.011719 309.964844 256.40625 309.964844 C 256.800781 309.964844 257.191406 309.925781 257.578125 309.851562 C 257.964844 309.773438 258.339844 309.660156 258.707031 309.511719 C 259.070312 309.359375 259.417969 309.175781 259.746094 308.957031 C 260.074219 308.738281 260.375 308.492188 260.65625 308.210938 C 261.824219 307.042969 262.933594 305.824219 263.984375 304.546875 C 265.035156 303.269531 266.019531 301.945312 266.9375 300.570312 C 267.855469 299.199219 268.707031 297.78125 269.484375 296.324219 C 270.265625 294.867188 270.972656 293.375 271.605469 291.851562 C 272.238281 290.324219 272.792969 288.769531 273.273438 287.1875 C 273.753906 285.609375 274.15625 284.007812 274.480469 282.386719 C 274.800781 280.765625 275.046875 279.132812 275.207031 277.488281 C 275.371094 275.84375 275.449219 274.195312 275.453125 272.542969 C 275.453125 270.890625 275.371094 269.242188 275.207031 267.597656 C 275.046875 265.953125 274.804688 264.320312 274.480469 262.699219 C 274.160156 261.078125 273.757812 259.476562 273.277344 257.894531 C 272.796875 256.3125 272.242188 254.761719 271.609375 253.234375 C 270.976562 251.707031 270.269531 250.214844 269.488281 248.757812 C 268.710938 247.300781 267.859375 245.886719 266.941406 244.511719 C 266.023438 243.136719 265.039062 241.8125 263.988281 240.535156 C 262.941406 239.257812 261.832031 238.039062 260.660156 236.871094 C 260.382812 236.589844 260.078125 236.34375 259.75 236.125 C 259.425781 235.902344 259.078125 235.71875 258.714844 235.570312 C 258.347656 235.417969 257.972656 235.304688 257.585938 235.226562 C 257.199219 235.148438 256.808594 235.113281 256.417969 235.113281 C 256.023438 235.113281 255.632812 235.148438 255.246094 235.226562 C 254.859375 235.304688 254.484375 235.417969 254.117188 235.570312 C 253.753906 235.71875 253.410156 235.902344 253.082031 236.125 C 252.753906 236.34375 252.449219 236.589844 252.171875 236.871094 C 251.890625 237.148438 251.644531 237.453125 251.425781 237.78125 C 251.207031 238.105469 251.019531 238.453125 250.871094 238.816406 C 250.71875 239.183594 250.605469 239.558594 250.527344 239.945312 C 250.449219 240.332031 250.414062 240.722656 250.414062 241.113281 C 250.414062 241.507812 250.449219 241.898438 250.527344 242.285156 C 250.605469 242.671875 250.71875 243.046875 250.871094 243.414062 C 251.019531 243.777344 251.207031 244.121094 251.425781 244.449219 C 251.644531 244.777344 251.890625 245.082031 252.171875 245.359375 C 253.0625 246.25 253.90625 247.179688 254.707031 248.152344 C 255.507812 249.125 256.253906 250.132812 256.957031 251.179688 C 257.65625 252.226562 258.304688 253.304688 258.898438 254.414062 C 259.492188 255.523438 260.03125 256.660156 260.511719 257.824219 C 260.996094 258.988281 261.417969 260.171875 261.785156 261.375 C 262.152344 262.578125 262.457031 263.796875 262.703125 265.035156 C 262.949219 266.269531 263.132812 267.511719 263.257812 268.765625 C 263.378906 270.015625 263.441406 271.273438 263.441406 272.53125 C 263.441406 273.789062 263.382812 275.046875 263.257812 276.300781 C 263.132812 277.550781 262.949219 278.796875 262.703125 280.03125 C 262.457031 281.265625 262.152344 282.484375 261.789062 283.6875 C 261.421875 284.894531 260.996094 286.078125 260.515625 287.242188 C 260.035156 288.402344 259.496094 289.539062 258.902344 290.648438 C 258.308594 291.757812 257.660156 292.835938 256.960938 293.882812 C 256.261719 294.929688 255.511719 295.941406 254.710938 296.914062 C 253.914062 297.886719 253.066406 298.816406 252.175781 299.707031 Z M 197.800781 119.878906 L 197.800781 53.898438 C 197.800781 37.089844 210.910156 23.699219 229.679688 21.34375 L 394.335938 0.582031 C 396.304688 0.351562 398.277344 0.332031 400.25 0.523438 C 402.226562 0.71875 404.15625 1.117188 406.042969 1.726562 C 407.929688 2.335938 409.730469 3.140625 411.445312 4.136719 C 413.160156 5.132812 414.75 6.300781 416.210938 7.640625 C 418.007812 9.25 419.617188 11.027344 421.042969 12.96875 C 422.464844 14.914062 423.671875 16.984375 424.664062 19.183594 C 425.652344 21.382812 426.402344 23.65625 426.914062 26.011719 C 427.429688 28.367188 427.691406 30.75 427.703125 33.160156 L 427.703125 119.878906 C 427.703125 120.945312 427.648438 122.011719 427.542969 123.074219 C 427.4375 124.132812 427.28125 125.1875 427.070312 126.234375 C 426.859375 127.28125 426.601562 128.316406 426.289062 129.339844 C 425.976562 130.359375 425.617188 131.363281 425.207031 132.351562 C 424.800781 133.335938 424.34375 134.300781 423.839844 135.242188 C 423.335938 136.183594 422.785156 137.097656 422.191406 137.984375 C 421.597656 138.871094 420.964844 139.726562 420.285156 140.550781 C 419.609375 141.378906 418.890625 142.167969 418.136719 142.921875 C 417.382812 143.675781 416.589844 144.394531 415.765625 145.070312 C 414.941406 145.746094 414.082031 146.382812 413.195312 146.976562 C 412.308594 147.570312 411.394531 148.117188 410.453125 148.621094 C 409.511719 149.125 408.546875 149.582031 407.5625 149.988281 C 406.574219 150.398438 405.570312 150.757812 404.550781 151.070312 C 403.527344 151.378906 402.492188 151.640625 401.445312 151.847656 C 400.398438 152.058594 399.34375 152.214844 398.28125 152.320312 C 397.21875 152.425781 396.15625 152.476562 395.085938 152.480469 L 290.457031 152.480469 L 244.921875 184.613281 C 244.472656 184.929688 243.988281 185.183594 243.46875 185.367188 C 242.953125 185.550781 242.417969 185.660156 241.867188 185.699219 C 241.320312 185.738281 240.777344 185.699219 240.238281 185.589844 C 239.699219 185.476562 239.183594 185.292969 238.695312 185.039062 C 238.207031 184.785156 237.761719 184.472656 237.359375 184.097656 C 236.957031 183.722656 236.613281 183.296875 236.328125 182.828125 C 236.042969 182.359375 235.824219 181.855469 235.675781 181.328125 C 235.527344 180.796875 235.453125 180.257812 235.453125 179.707031 L 235.453125 152.480469 L 230.421875 152.480469 C 229.355469 152.480469 228.289062 152.425781 227.226562 152.320312 C 226.164062 152.214844 225.109375 152.058594 224.0625 151.847656 C 223.015625 151.640625 221.980469 151.378906 220.957031 151.070312 C 219.9375 150.757812 218.933594 150.398438 217.945312 149.992188 C 216.960938 149.582031 215.996094 149.125 215.054688 148.621094 C 214.113281 148.117188 213.199219 147.570312 212.3125 146.976562 C 211.421875 146.382812 210.566406 145.75 209.742188 145.070312 C 208.914062 144.394531 208.125 143.679688 207.371094 142.921875 C 206.613281 142.167969 205.898438 141.378906 205.21875 140.554688 C 204.542969 139.726562 203.90625 138.871094 203.3125 137.984375 C 202.71875 137.097656 202.171875 136.183594 201.667969 135.242188 C 201.164062 134.300781 200.707031 133.335938 200.296875 132.351562 C 199.886719 131.363281 199.527344 130.359375 199.214844 129.339844 C 198.90625 128.316406 198.644531 127.285156 198.433594 126.238281 C 198.226562 125.191406 198.066406 124.136719 197.960938 123.074219 C 197.855469 122.011719 197.800781 120.945312 197.800781 119.878906 Z M 209.808594 119.878906 C 209.808594 120.550781 209.84375 121.226562 209.910156 121.894531 C 209.980469 122.566406 210.078125 123.234375 210.210938 123.894531 C 210.34375 124.554688 210.507812 125.210938 210.703125 125.855469 C 210.902344 126.5 211.128906 127.132812 211.386719 127.757812 C 211.648438 128.378906 211.9375 128.988281 212.253906 129.582031 C 212.574219 130.179688 212.921875 130.757812 213.296875 131.316406 C 213.671875 131.878906 214.074219 132.417969 214.5 132.9375 C 214.929688 133.460938 215.382812 133.960938 215.859375 134.4375 C 216.335938 134.914062 216.835938 135.363281 217.359375 135.792969 C 217.878906 136.21875 218.421875 136.621094 218.980469 136.996094 C 219.542969 137.371094 220.121094 137.71875 220.714844 138.035156 C 221.308594 138.351562 221.917969 138.640625 222.542969 138.898438 C 223.164062 139.15625 223.800781 139.382812 224.445312 139.578125 C 225.089844 139.777344 225.746094 139.941406 226.40625 140.070312 C 227.066406 140.203125 227.734375 140.300781 228.40625 140.367188 C 229.078125 140.433594 229.75 140.46875 230.425781 140.46875 L 241.460938 140.46875 C 241.855469 140.46875 242.246094 140.507812 242.632812 140.585938 C 243.019531 140.660156 243.394531 140.773438 243.761719 140.925781 C 244.125 141.078125 244.46875 141.261719 244.796875 141.480469 C 245.125 141.699219 245.429688 141.949219 245.707031 142.226562 C 245.984375 142.507812 246.234375 142.808594 246.453125 143.136719 C 246.671875 143.464844 246.859375 143.8125 247.007812 144.175781 C 247.160156 144.539062 247.273438 144.914062 247.351562 145.300781 C 247.425781 145.6875 247.464844 146.078125 247.464844 146.472656 L 247.464844 168.117188 L 285.089844 141.566406 C 286.128906 140.832031 287.28125 140.46875 288.550781 140.46875 L 395.085938 140.46875 C 395.761719 140.46875 396.433594 140.433594 397.105469 140.367188 C 397.777344 140.300781 398.445312 140.203125 399.105469 140.070312 C 399.765625 139.9375 400.421875 139.773438 401.066406 139.578125 C 401.710938 139.382812 402.347656 139.15625 402.96875 138.898438 C 403.59375 138.640625 404.203125 138.351562 404.796875 138.035156 C 405.390625 137.714844 405.96875 137.371094 406.53125 136.996094 C 407.089844 136.621094 407.632812 136.21875 408.15625 135.792969 C 408.675781 135.363281 409.175781 134.910156 409.652344 134.433594 C 410.128906 133.957031 410.582031 133.457031 411.011719 132.9375 C 411.441406 132.417969 411.839844 131.875 412.214844 131.316406 C 412.59375 130.753906 412.9375 130.175781 413.257812 129.582031 C 413.574219 128.988281 413.863281 128.378906 414.125 127.757812 C 414.382812 127.132812 414.609375 126.5 414.808594 125.851562 C 415.003906 125.207031 415.167969 124.554688 415.300781 123.894531 C 415.433594 123.230469 415.535156 122.566406 415.601562 121.894531 C 415.667969 121.222656 415.703125 120.550781 415.703125 119.875 L 415.703125 33.160156 C 415.683594 31.601562 415.507812 30.0625 415.171875 28.542969 C 414.835938 27.019531 414.351562 25.550781 413.710938 24.128906 C 413.070312 22.707031 412.292969 21.367188 411.375 20.109375 C 410.460938 18.847656 409.425781 17.695312 408.269531 16.648438 C 406.828125 15.3125 405.199219 14.28125 403.378906 13.542969 C 401.558594 12.808594 399.664062 12.421875 397.699219 12.382812 C 397.078125 12.382812 396.453125 12.425781 395.835938 12.503906 L 231.175781 33.257812 C 220.886719 34.546875 209.8125 41.558594 209.8125 53.898438 Z M 277.699219 219.839844 C 278.5625 220.703125 279.402344 221.585938 280.222656 222.488281 C 281.042969 223.390625 281.839844 224.316406 282.613281 225.257812 C 283.386719 226.199219 284.136719 227.160156 284.863281 228.140625 C 285.59375 229.121094 286.292969 230.117188 286.972656 231.132812 C 287.652344 232.144531 288.304688 233.175781 288.929688 234.222656 C 289.558594 235.265625 290.160156 236.328125 290.734375 237.402344 C 291.308594 238.480469 291.859375 239.566406 292.382812 240.671875 C 292.902344 241.773438 293.398438 242.886719 293.863281 244.015625 C 294.332031 245.140625 294.769531 246.28125 295.183594 247.429688 C 295.59375 248.578125 295.976562 249.734375 296.328125 250.902344 C 296.683594 252.070312 297.011719 253.246094 297.304688 254.425781 C 297.601562 255.609375 297.871094 256.800781 298.109375 257.996094 C 298.347656 259.191406 298.554688 260.394531 298.734375 261.601562 C 298.914062 262.808594 299.0625 264.019531 299.183594 265.230469 C 299.300781 266.445312 299.390625 267.664062 299.453125 268.878906 C 299.511719 270.097656 299.542969 271.316406 299.542969 272.539062 C 299.542969 273.757812 299.511719 274.976562 299.453125 276.195312 C 299.390625 277.414062 299.300781 278.628906 299.183594 279.84375 C 299.0625 281.058594 298.914062 282.269531 298.734375 283.476562 C 298.554688 284.679688 298.347656 285.882812 298.109375 287.078125 C 297.871094 288.277344 297.601562 289.464844 297.304688 290.648438 C 297.011719 291.832031 296.683594 293.007812 296.328125 294.175781 C 295.976562 295.339844 295.59375 296.5 295.183594 297.648438 C 294.769531 298.796875 294.332031 299.933594 293.863281 301.0625 C 293.398438 302.1875 292.902344 303.300781 292.382812 304.40625 C 291.859375 305.507812 291.308594 306.597656 290.734375 307.671875 C 290.160156 308.75 289.558594 309.808594 288.929688 310.855469 C 288.304688 311.902344 287.652344 312.929688 286.972656 313.945312 C 286.292969 314.960938 285.59375 315.957031 284.863281 316.933594 C 284.136719 317.914062 283.386719 318.875 282.613281 319.820312 C 281.839844 320.761719 281.042969 321.683594 280.222656 322.585938 C 279.402344 323.492188 278.5625 324.375 277.699219 325.234375 C 277.417969 325.515625 277.171875 325.816406 276.953125 326.144531 C 276.734375 326.472656 276.546875 326.820312 276.398438 327.183594 C 276.246094 327.546875 276.132812 327.921875 276.054688 328.308594 C 275.980469 328.695312 275.941406 329.085938 275.941406 329.480469 C 275.941406 329.875 275.976562 330.265625 276.054688 330.648438 C 276.132812 331.035156 276.246094 331.414062 276.394531 331.777344 C 276.546875 332.140625 276.730469 332.488281 276.949219 332.8125 C 277.167969 333.140625 277.417969 333.445312 277.695312 333.722656 C 277.972656 334.003906 278.277344 334.253906 278.605469 334.472656 C 278.929688 334.691406 279.277344 334.875 279.640625 335.027344 C 280.003906 335.179688 280.378906 335.292969 280.765625 335.371094 C 281.152344 335.449219 281.542969 335.484375 281.9375 335.488281 C 282.332031 335.488281 282.722656 335.449219 283.105469 335.375 C 283.492188 335.296875 283.871094 335.183594 284.234375 335.035156 C 284.597656 334.882812 284.945312 334.699219 285.273438 334.480469 C 285.601562 334.261719 285.902344 334.015625 286.183594 333.734375 C 287.183594 332.734375 288.164062 331.710938 289.113281 330.660156 C 290.066406 329.613281 290.992188 328.539062 291.890625 327.445312 C 292.789062 326.351562 293.660156 325.234375 294.507812 324.097656 C 295.351562 322.960938 296.167969 321.800781 296.953125 320.625 C 297.742188 319.445312 298.5 318.25 299.226562 317.035156 C 299.957031 315.820312 300.65625 314.589844 301.324219 313.339844 C 301.992188 312.089844 302.628906 310.824219 303.234375 309.546875 C 303.839844 308.265625 304.414062 306.972656 304.957031 305.664062 C 305.5 304.351562 306.011719 303.03125 306.488281 301.699219 C 306.964844 300.363281 307.410156 299.019531 307.820312 297.664062 C 308.234375 296.308594 308.609375 294.945312 308.953125 293.570312 C 309.300781 292.195312 309.609375 290.816406 309.886719 289.425781 C 310.164062 288.035156 310.40625 286.640625 310.613281 285.238281 C 310.820312 283.839844 310.996094 282.433594 311.132812 281.023438 C 311.273438 279.613281 311.378906 278.199219 311.445312 276.785156 C 311.515625 275.371094 311.550781 273.957031 311.550781 272.539062 C 311.550781 271.121094 311.515625 269.707031 311.445312 268.292969 C 311.378906 266.875 311.273438 265.464844 311.132812 264.054688 C 310.996094 262.644531 310.820312 261.238281 310.613281 259.835938 C 310.40625 258.4375 310.164062 257.042969 309.886719 255.652344 C 309.609375 254.261719 309.300781 252.878906 308.953125 251.507812 C 308.609375 250.132812 308.234375 248.769531 307.820312 247.414062 C 307.410156 246.054688 306.964844 244.710938 306.488281 243.378906 C 306.011719 242.042969 305.5 240.722656 304.957031 239.414062 C 304.414062 238.105469 303.839844 236.8125 303.234375 235.53125 C 302.628906 234.25 301.992188 232.984375 301.324219 231.738281 C 300.65625 230.488281 299.957031 229.257812 299.226562 228.042969 C 298.5 226.828125 297.742188 225.628906 296.953125 224.453125 C 296.167969 223.273438 295.351562 222.117188 294.507812 220.980469 C 293.660156 219.84375 292.789062 218.726562 291.890625 217.632812 C 290.992188 216.539062 290.066406 215.464844 289.113281 214.417969 C 288.164062 213.367188 287.183594 212.34375 286.183594 211.339844 C 285.902344 211.0625 285.601562 210.8125 285.273438 210.59375 C 284.945312 210.375 284.597656 210.191406 284.234375 210.039062 C 283.871094 209.890625 283.492188 209.777344 283.105469 209.699219 C 282.71875 209.625 282.328125 209.585938 281.933594 209.585938 C 281.542969 209.585938 281.152344 209.625 280.765625 209.703125 C 280.378906 209.777344 280.003906 209.894531 279.636719 210.042969 C 279.273438 210.195312 278.929688 210.382812 278.601562 210.601562 C 278.273438 210.820312 277.96875 211.070312 277.691406 211.347656 C 277.414062 211.628906 277.164062 211.929688 276.945312 212.257812 C 276.726562 212.585938 276.542969 212.933594 276.390625 213.296875 C 276.242188 213.660156 276.125 214.035156 276.050781 214.425781 C 275.972656 214.8125 275.9375 215.199219 275.9375 215.59375 C 275.9375 215.988281 275.976562 216.378906 276.050781 216.765625 C 276.128906 217.152344 276.242188 217.527344 276.394531 217.894531 C 276.546875 218.257812 276.730469 218.601562 276.949219 218.929688 C 277.171875 219.257812 277.417969 219.5625 277.699219 219.839844 Z M 303.246094 350.765625 C 302.964844 351.046875 302.71875 351.347656 302.496094 351.675781 C 302.277344 352.003906 302.09375 352.351562 301.941406 352.714844 C 301.792969 353.078125 301.675781 353.453125 301.601562 353.839844 C 301.523438 354.226562 301.484375 354.617188 301.484375 355.011719 C 301.484375 355.40625 301.523438 355.796875 301.597656 356.183594 C 301.675781 356.570312 301.789062 356.949219 301.941406 357.3125 C 302.089844 357.675781 302.277344 358.023438 302.496094 358.351562 C 302.714844 358.679688 302.964844 358.980469 303.242188 359.261719 C 303.519531 359.539062 303.824219 359.789062 304.152344 360.007812 C 304.480469 360.226562 304.828125 360.410156 305.191406 360.5625 C 305.554688 360.714844 305.929688 360.828125 306.316406 360.90625 C 306.703125 360.980469 307.09375 361.019531 307.488281 361.019531 C 307.882812 361.019531 308.273438 360.980469 308.660156 360.902344 C 309.046875 360.828125 309.425781 360.710938 309.789062 360.5625 C 310.152344 360.410156 310.5 360.226562 310.828125 360.003906 C 311.152344 359.785156 311.457031 359.535156 311.734375 359.257812 C 313.15625 357.839844 314.539062 356.386719 315.886719 354.898438 C 317.234375 353.410156 318.542969 351.890625 319.816406 350.339844 C 321.089844 348.789062 322.324219 347.207031 323.519531 345.59375 C 324.714844 343.980469 325.871094 342.339844 326.984375 340.671875 C 328.101562 339.003906 329.175781 337.308594 330.207031 335.585938 C 331.238281 333.863281 332.226562 332.117188 333.171875 330.347656 C 334.117188 328.578125 335.019531 326.785156 335.878906 324.972656 C 336.738281 323.15625 337.550781 321.324219 338.316406 319.46875 C 339.085938 317.613281 339.808594 315.742188 340.484375 313.851562 C 341.160156 311.960938 341.789062 310.058594 342.371094 308.136719 C 342.953125 306.214844 343.488281 304.28125 343.976562 302.335938 C 344.464844 300.386719 344.902344 298.429688 345.296875 296.460938 C 345.6875 294.492188 346.03125 292.515625 346.324219 290.53125 C 346.617188 288.546875 346.863281 286.554688 347.0625 284.558594 C 347.257812 282.558594 347.40625 280.558594 347.503906 278.554688 C 347.601562 276.550781 347.652344 274.542969 347.652344 272.535156 C 347.652344 270.53125 347.601562 268.523438 347.503906 266.519531 C 347.40625 264.515625 347.257812 262.511719 347.0625 260.515625 C 346.863281 258.519531 346.617188 256.527344 346.324219 254.542969 C 346.03125 252.554688 345.6875 250.578125 345.296875 248.609375 C 344.902344 246.644531 344.464844 244.683594 343.976562 242.738281 C 343.488281 240.792969 342.953125 238.855469 342.371094 236.9375 C 341.789062 235.015625 341.160156 233.109375 340.484375 231.222656 C 339.808594 229.332031 339.085938 227.460938 338.316406 225.605469 C 337.550781 223.75 336.738281 221.917969 335.878906 220.101562 C 335.019531 218.289062 334.117188 216.496094 333.171875 214.726562 C 332.226562 212.953125 331.238281 211.207031 330.207031 209.488281 C 329.175781 207.765625 328.101562 206.070312 326.984375 204.402344 C 325.871094 202.734375 324.714844 201.09375 323.519531 199.480469 C 322.324219 197.867188 321.089844 196.285156 319.816406 194.734375 C 318.542969 193.183594 317.234375 191.664062 315.886719 190.175781 C 314.539062 188.6875 313.15625 187.234375 311.734375 185.816406 C 311.457031 185.539062 311.152344 185.289062 310.828125 185.070312 C 310.5 184.851562 310.152344 184.667969 309.789062 184.515625 C 309.425781 184.367188 309.050781 184.253906 308.664062 184.175781 C 308.277344 184.097656 307.886719 184.058594 307.492188 184.058594 C 307.097656 184.0625 306.707031 184.097656 306.320312 184.175781 C 305.933594 184.253906 305.558594 184.367188 305.195312 184.519531 C 304.832031 184.667969 304.484375 184.855469 304.15625 185.074219 C 303.832031 185.292969 303.527344 185.539062 303.25 185.820312 C 302.96875 186.097656 302.722656 186.402344 302.503906 186.726562 C 302.285156 187.054688 302.097656 187.402344 301.949219 187.765625 C 301.796875 188.128906 301.683594 188.503906 301.605469 188.890625 C 301.527344 189.277344 301.492188 189.667969 301.492188 190.0625 C 301.492188 190.457031 301.527344 190.847656 301.605469 191.234375 C 301.683594 191.621094 301.796875 191.996094 301.945312 192.359375 C 302.097656 192.722656 302.28125 193.070312 302.5 193.394531 C 302.71875 193.722656 302.96875 194.027344 303.246094 194.304688 C 304.527344 195.585938 305.773438 196.898438 306.988281 198.238281 C 308.203125 199.582031 309.386719 200.953125 310.535156 202.351562 C 311.683594 203.75 312.796875 205.179688 313.875 206.632812 C 314.953125 208.085938 315.996094 209.566406 317 211.070312 C 318.007812 212.578125 318.976562 214.105469 319.90625 215.660156 C 320.835938 217.210938 321.730469 218.789062 322.582031 220.382812 C 323.4375 221.980469 324.25 223.597656 325.023438 225.234375 C 325.796875 226.871094 326.53125 228.527344 327.222656 230.199219 C 327.917969 231.871094 328.566406 233.558594 329.175781 235.265625 C 329.789062 236.96875 330.355469 238.6875 330.878906 240.421875 C 331.40625 242.152344 331.890625 243.898438 332.328125 245.65625 C 332.769531 247.410156 333.164062 249.175781 333.519531 250.953125 C 333.871094 252.726562 334.179688 254.511719 334.445312 256.300781 C 334.710938 258.09375 334.933594 259.890625 335.109375 261.691406 C 335.289062 263.492188 335.421875 265.296875 335.511719 267.105469 C 335.597656 268.914062 335.644531 270.722656 335.644531 272.535156 C 335.644531 274.34375 335.597656 276.15625 335.511719 277.964844 C 335.421875 279.773438 335.289062 281.578125 335.109375 283.378906 C 334.933594 285.179688 334.710938 286.976562 334.445312 288.769531 C 334.179688 290.558594 333.871094 292.34375 333.519531 294.117188 C 333.164062 295.894531 332.769531 297.660156 332.328125 299.414062 C 331.890625 301.171875 331.40625 302.917969 330.878906 304.648438 C 330.355469 306.382812 329.789062 308.101562 329.175781 309.804688 C 328.566406 311.507812 327.917969 313.199219 327.222656 314.871094 C 326.53125 316.542969 325.796875 318.199219 325.023438 319.835938 C 324.25 321.472656 323.4375 323.089844 322.582031 324.6875 C 321.730469 326.28125 320.835938 327.855469 319.90625 329.410156 C 318.976562 330.964844 318.007812 332.492188 317 334 C 315.996094 335.503906 314.953125 336.984375 313.875 338.4375 C 312.796875 339.890625 311.683594 341.320312 310.535156 342.71875 C 309.386719 344.117188 308.203125 345.488281 306.988281 346.832031 C 305.773438 348.171875 304.527344 349.484375 303.246094 350.765625 Z M 383.148438 84.238281 C 383.148438 83.84375 383.109375 83.453125 383.03125 83.066406 C 382.953125 82.679688 382.839844 82.304688 382.691406 81.941406 C 382.539062 81.578125 382.355469 81.230469 382.136719 80.902344 C 381.917969 80.574219 381.667969 80.273438 381.390625 79.992188 C 381.109375 79.714844 380.808594 79.464844 380.480469 79.246094 C 380.152344 79.027344 379.804688 78.84375 379.441406 78.691406 C 379.078125 78.542969 378.703125 78.425781 378.316406 78.351562 C 377.929688 78.273438 377.539062 78.234375 377.144531 78.234375 L 293.125 78.234375 C 292.730469 78.234375 292.339844 78.273438 291.953125 78.351562 C 291.566406 78.425781 291.191406 78.542969 290.828125 78.691406 C 290.464844 78.84375 290.117188 79.027344 289.789062 79.246094 C 289.460938 79.464844 289.160156 79.714844 288.878906 79.992188 C 288.601562 80.273438 288.351562 80.574219 288.132812 80.902344 C 287.914062 81.230469 287.730469 81.578125 287.578125 81.941406 C 287.429688 82.304688 287.3125 82.679688 287.238281 83.066406 C 287.160156 83.453125 287.121094 83.84375 287.121094 84.238281 C 287.121094 84.632812 287.160156 85.023438 287.238281 85.410156 C 287.3125 85.796875 287.429688 86.171875 287.578125 86.535156 C 287.730469 86.898438 287.914062 87.246094 288.132812 87.574219 C 288.351562 87.902344 288.601562 88.203125 288.878906 88.484375 C 289.160156 88.761719 289.460938 89.011719 289.789062 89.230469 C 290.117188 89.449219 290.464844 89.632812 290.828125 89.785156 C 291.191406 89.9375 291.566406 90.050781 291.953125 90.125 C 292.339844 90.203125 292.730469 90.242188 293.125 90.242188 L 377.140625 90.242188 C 377.535156 90.242188 377.925781 90.203125 378.3125 90.125 C 378.699219 90.050781 379.074219 89.9375 379.441406 89.785156 C 379.804688 89.632812 380.148438 89.449219 380.476562 89.230469 C 380.804688 89.011719 381.109375 88.761719 381.386719 88.484375 C 381.667969 88.207031 381.914062 87.902344 382.136719 87.574219 C 382.355469 87.246094 382.539062 86.902344 382.691406 86.535156 C 382.839844 86.171875 382.953125 85.796875 383.03125 85.410156 C 383.109375 85.023438 383.148438 84.632812 383.148438 84.238281 Z M 383.148438 55.792969 C 383.148438 55.402344 383.109375 55.011719 383.03125 54.625 C 382.953125 54.238281 382.839844 53.863281 382.691406 53.496094 C 382.539062 53.132812 382.355469 52.789062 382.136719 52.460938 C 381.917969 52.132812 381.667969 51.828125 381.390625 51.550781 C 381.109375 51.269531 380.808594 51.023438 380.480469 50.804688 C 380.152344 50.585938 379.804688 50.398438 379.441406 50.25 C 379.078125 50.097656 378.703125 49.984375 378.316406 49.90625 C 377.929688 49.828125 377.539062 49.792969 377.144531 49.792969 L 353.902344 49.792969 C 353.507812 49.792969 353.117188 49.828125 352.730469 49.90625 C 352.34375 49.984375 351.96875 50.097656 351.605469 50.25 C 351.238281 50.398438 350.894531 50.585938 350.566406 50.804688 C 350.238281 51.023438 349.933594 51.269531 349.65625 51.550781 C 349.378906 51.828125 349.128906 52.132812 348.910156 52.460938 C 348.691406 52.789062 348.507812 53.132812 348.355469 53.496094 C 348.203125 53.863281 348.089844 54.238281 348.015625 54.625 C 347.9375 55.011719 347.898438 55.402344 347.898438 55.792969 C 347.898438 56.1875 347.9375 56.578125 348.015625 56.964844 C 348.089844 57.351562 348.203125 57.726562 348.355469 58.09375 C 348.507812 58.457031 348.691406 58.800781 348.910156 59.128906 C 349.128906 59.457031 349.378906 59.761719 349.65625 60.039062 C 349.933594 60.320312 350.238281 60.566406 350.566406 60.785156 C 350.894531 61.003906 351.238281 61.191406 351.605469 61.339844 C 351.96875 61.492188 352.34375 61.605469 352.730469 61.683594 C 353.117188 61.761719 353.507812 61.796875 353.902344 61.796875 L 377.144531 61.796875 C 377.539062 61.796875 377.929688 61.761719 378.316406 61.683594 C 378.703125 61.605469 379.078125 61.492188 379.441406 61.339844 C 379.804688 61.191406 380.152344 61.003906 380.480469 60.785156 C 380.808594 60.566406 381.109375 60.320312 381.390625 60.039062 C 381.667969 59.761719 381.917969 59.457031 382.136719 59.128906 C 382.355469 58.800781 382.539062 58.457031 382.691406 58.09375 C 382.839844 57.726562 382.953125 57.351562 383.03125 56.964844 C 383.109375 56.578125 383.148438 56.1875 383.148438 55.792969 Z M 242.339844 84.238281 C 242.339844 84.632812 242.375 85.023438 242.453125 85.410156 C 242.53125 85.796875 242.644531 86.171875 242.796875 86.535156 C 242.945312 86.898438 243.128906 87.246094 243.351562 87.574219 C 243.570312 87.902344 243.816406 88.203125 244.097656 88.484375 C 244.375 88.761719 244.679688 89.011719 245.007812 89.230469 C 245.332031 89.449219 245.679688 89.632812 246.042969 89.785156 C 246.410156 89.9375 246.785156 90.050781 247.171875 90.125 C 247.558594 90.203125 247.949219 90.242188 248.339844 90.242188 L 271.585938 90.242188 C 271.980469 90.242188 272.371094 90.203125 272.757812 90.125 C 273.144531 90.050781 273.519531 89.9375 273.886719 89.785156 C 274.25 89.632812 274.59375 89.449219 274.921875 89.230469 C 275.25 89.011719 275.554688 88.761719 275.832031 88.484375 C 276.113281 88.203125 276.359375 87.902344 276.578125 87.574219 C 276.796875 87.246094 276.984375 86.898438 277.132812 86.535156 C 277.285156 86.171875 277.398438 85.796875 277.476562 85.410156 C 277.550781 85.023438 277.589844 84.632812 277.589844 84.238281 C 277.589844 83.84375 277.550781 83.453125 277.476562 83.066406 C 277.398438 82.679688 277.285156 82.304688 277.132812 81.941406 C 276.984375 81.578125 276.796875 81.230469 276.578125 80.902344 C 276.359375 80.574219 276.113281 80.273438 275.832031 79.992188 C 275.554688 79.714844 275.25 79.464844 274.921875 79.246094 C 274.59375 79.027344 274.25 78.84375 273.886719 78.691406 C 273.519531 78.542969 273.144531 78.425781 272.757812 78.351562 C 272.371094 78.273438 271.980469 78.234375 271.585938 78.234375 L 248.347656 78.234375 C 247.953125 78.234375 247.5625 78.273438 247.175781 78.347656 C 246.789062 78.425781 246.410156 78.539062 246.046875 78.691406 C 245.683594 78.839844 245.335938 79.027344 245.007812 79.246094 C 244.679688 79.464844 244.375 79.714844 244.097656 79.992188 C 243.820312 80.269531 243.570312 80.574219 243.351562 80.902344 C 243.132812 81.230469 242.945312 81.574219 242.796875 81.941406 C 242.644531 82.304688 242.53125 82.679688 242.453125 83.066406 C 242.375 83.453125 242.339844 83.84375 242.339844 84.238281 Z M 347.898438 112.65625 C 347.898438 113.050781 347.933594 113.441406 348.011719 113.828125 C 348.089844 114.214844 348.203125 114.589844 348.355469 114.957031 C 348.503906 115.320312 348.6875 115.664062 348.910156 115.992188 C 349.128906 116.320312 349.375 116.625 349.65625 116.902344 C 349.933594 117.179688 350.238281 117.429688 350.566406 117.648438 C 350.890625 117.867188 351.238281 118.054688 351.601562 118.203125 C 351.96875 118.355469 352.34375 118.46875 352.730469 118.546875 C 353.117188 118.621094 353.503906 118.660156 353.898438 118.660156 L 377.140625 118.660156 C 377.535156 118.660156 377.925781 118.621094 378.3125 118.546875 C 378.699219 118.46875 379.074219 118.355469 379.4375 118.203125 C 379.804688 118.054688 380.148438 117.867188 380.476562 117.648438 C 380.804688 117.429688 381.109375 117.179688 381.386719 116.902344 C 381.664062 116.625 381.914062 116.320312 382.132812 115.992188 C 382.351562 115.664062 382.539062 115.320312 382.6875 114.957031 C 382.839844 114.589844 382.953125 114.214844 383.03125 113.828125 C 383.105469 113.441406 383.144531 113.050781 383.144531 112.65625 C 383.144531 112.261719 383.105469 111.875 383.03125 111.488281 C 382.953125 111.101562 382.839844 110.722656 382.6875 110.359375 C 382.539062 109.996094 382.351562 109.648438 382.132812 109.324219 C 381.914062 108.996094 381.664062 108.691406 381.386719 108.414062 C 381.109375 108.132812 380.804688 107.886719 380.476562 107.667969 C 380.148438 107.445312 379.804688 107.261719 379.4375 107.113281 C 379.074219 106.960938 378.699219 106.847656 378.3125 106.769531 C 377.925781 106.691406 377.535156 106.65625 377.140625 106.65625 L 353.898438 106.65625 C 353.503906 106.65625 353.117188 106.691406 352.730469 106.769531 C 352.34375 106.847656 351.96875 106.960938 351.601562 107.109375 C 351.238281 107.261719 350.890625 107.445312 350.566406 107.667969 C 350.238281 107.886719 349.933594 108.132812 349.65625 108.414062 C 349.375 108.691406 349.128906 108.996094 348.910156 109.324219 C 348.6875 109.648438 348.503906 109.996094 348.355469 110.359375 C 348.203125 110.722656 348.089844 111.101562 348.011719 111.488281 C 347.933594 111.875 347.898438 112.261719 347.898438 112.65625 Z M 242.339844 55.796875 C 242.339844 56.191406 242.375 56.582031 242.453125 56.96875 C 242.53125 57.355469 242.644531 57.730469 242.796875 58.09375 C 242.945312 58.457031 243.128906 58.804688 243.351562 59.132812 C 243.570312 59.460938 243.816406 59.761719 244.097656 60.042969 C 244.375 60.320312 244.679688 60.570312 245.007812 60.789062 C 245.332031 61.007812 245.679688 61.191406 246.042969 61.34375 C 246.410156 61.492188 246.785156 61.609375 247.171875 61.683594 C 247.558594 61.761719 247.949219 61.800781 248.339844 61.800781 L 332.386719 61.800781 C 332.78125 61.800781 333.171875 61.761719 333.558594 61.683594 C 333.945312 61.609375 334.320312 61.492188 334.683594 61.34375 C 335.046875 61.191406 335.394531 61.007812 335.722656 60.789062 C 336.050781 60.570312 336.351562 60.320312 336.632812 60.042969 C 336.910156 59.761719 337.160156 59.460938 337.378906 59.132812 C 337.597656 58.804688 337.78125 58.457031 337.933594 58.09375 C 338.082031 57.730469 338.199219 57.355469 338.273438 56.96875 C 338.351562 56.582031 338.390625 56.191406 338.390625 55.796875 C 338.390625 55.402344 338.351562 55.011719 338.273438 54.625 C 338.199219 54.238281 338.082031 53.863281 337.933594 53.5 C 337.78125 53.136719 337.597656 52.789062 337.378906 52.460938 C 337.160156 52.132812 336.910156 51.832031 336.632812 51.550781 C 336.351562 51.273438 336.050781 51.023438 335.722656 50.804688 C 335.394531 50.585938 335.046875 50.402344 334.683594 50.25 C 334.320312 50.097656 333.945312 49.984375 333.558594 49.910156 C 333.171875 49.832031 332.78125 49.792969 332.386719 49.792969 L 248.347656 49.792969 C 247.953125 49.792969 247.5625 49.832031 247.175781 49.90625 C 246.789062 49.984375 246.410156 50.097656 246.046875 50.25 C 245.683594 50.398438 245.335938 50.585938 245.007812 50.804688 C 244.679688 51.023438 244.378906 51.269531 244.097656 51.550781 C 243.820312 51.828125 243.570312 52.132812 243.351562 52.460938 C 243.132812 52.785156 242.945312 53.132812 242.796875 53.496094 C 242.644531 53.859375 242.53125 54.238281 242.453125 54.625 C 242.375 55.011719 242.339844 55.402344 242.339844 55.792969 Z M 242.339844 112.65625 C 242.339844 113.050781 242.375 113.441406 242.453125 113.828125 C 242.53125 114.214844 242.644531 114.589844 242.796875 114.957031 C 242.945312 115.320312 243.128906 115.664062 243.351562 115.992188 C 243.570312 116.320312 243.816406 116.625 244.097656 116.902344 C 244.375 117.179688 244.679688 117.429688 245.007812 117.648438 C 245.332031 117.867188 245.679688 118.054688 246.042969 118.203125 C 246.410156 118.355469 246.785156 118.46875 247.171875 118.546875 C 247.558594 118.621094 247.949219 118.660156 248.339844 118.660156 L 332.386719 118.660156 C 332.78125 118.660156 333.171875 118.621094 333.558594 118.546875 C 333.945312 118.46875 334.320312 118.355469 334.683594 118.203125 C 335.046875 118.054688 335.394531 117.867188 335.722656 117.648438 C 336.050781 117.429688 336.351562 117.179688 336.632812 116.902344 C 336.910156 116.625 337.160156 116.320312 337.378906 115.992188 C 337.597656 115.664062 337.78125 115.320312 337.933594 114.957031 C 338.082031 114.589844 338.199219 114.214844 338.273438 113.828125 C 338.351562 113.441406 338.390625 113.050781 338.390625 112.65625 C 338.390625 112.261719 338.351562 111.875 338.273438 111.488281 C 338.199219 111.101562 338.082031 110.722656 337.933594 110.359375 C 337.78125 109.996094 337.597656 109.648438 337.378906 109.324219 C 337.160156 108.996094 336.910156 108.691406 336.632812 108.414062 C 336.351562 108.132812 336.050781 107.886719 335.722656 107.667969 C 335.394531 107.445312 335.046875 107.261719 334.683594 107.113281 C 334.320312 106.960938 333.945312 106.847656 333.558594 106.769531 C 333.171875 106.691406 332.78125 106.65625 332.386719 106.65625 L 248.347656 106.65625 C 247.953125 106.652344 247.5625 106.691406 247.175781 106.769531 C 246.789062 106.84375 246.410156 106.960938 246.046875 107.109375 C 245.683594 107.261719 245.335938 107.445312 245.007812 107.664062 C 244.679688 107.882812 244.375 108.132812 244.097656 108.410156 C 243.820312 108.691406 243.570312 108.992188 243.351562 109.320312 C 243.132812 109.648438 242.945312 109.996094 242.796875 110.359375 C 242.644531 110.722656 242.53125 111.097656 242.453125 111.484375 C 242.375 111.871094 242.339844 112.261719 242.339844 112.65625 Z M 242.339844 112.65625 " fill-opacity="1" fill-rule="nonzero"/></g></g></g></g></svg>