<svg xmlns="http://www.w3.org/2000/svg" xmlns:xlink="http://www.w3.org/1999/xlink" width="1000" zoomAndPan="magnify" viewBox="0 0 750 749.999995" height="1000" preserveAspectRatio="xMidYMid meet" version="1.0"><defs><clipPath id="c15092ac16"><path d="M 375 0 C 167.894531 0 0 167.894531 0 375 C 0 582.105469 167.894531 750 375 750 C 582.105469 750 750 582.105469 750 375 C 750 167.894531 582.105469 0 375 0 Z M 375 0 " clip-rule="nonzero"/></clipPath><clipPath id="6783b5f34b"><path d="M 0 0 L 750 0 L 750 750 L 0 750 Z M 0 0 " clip-rule="nonzero"/></clipPath><clipPath id="f0b4317fc2"><path d="M 375 0 C 167.894531 0 0 167.894531 0 375 C 0 582.105469 167.894531 750 375 750 C 582.105469 750 750 582.105469 750 375 C 750 167.894531 582.105469 0 375 0 Z M 375 0 " clip-rule="nonzero"/></clipPath><clipPath id="69a7de246d"><rect x="0" width="750" y="0" height="750"/></clipPath></defs><g clip-path="url(#c15092ac16)"><g transform="matrix(1, 0, 0, 1, 0, -0.000000000000042435)"><g clip-path="url(#69a7de246d)"><g clip-path="url(#6783b5f34b)"><g clip-path="url(#f0b4317fc2)"><rect x="-165" width="1080" fill="#fbeb9d" height="1079.999992" y="-164.999999" fill-opacity="1"/></g></g></g></g></g><path fill="#33baf2" d="M 500.019531 439.84375 C 501.039062 440.871094 502.148438 441.789062 503.351562 442.597656 C 504.550781 443.410156 505.820312 444.09375 507.152344 444.652344 C 508.488281 445.214844 509.867188 445.636719 511.285156 445.925781 C 512.703125 446.214844 514.136719 446.363281 515.585938 446.371094 L 515.785156 446.371094 C 516.511719 446.367188 517.234375 446.328125 517.953125 446.253906 C 518.675781 446.179688 519.390625 446.070312 520.101562 445.925781 C 520.8125 445.78125 521.515625 445.601562 522.207031 445.386719 C 522.902344 445.171875 523.582031 444.925781 524.253906 444.648438 C 524.921875 444.367188 525.574219 444.054688 526.214844 443.710938 C 526.851562 443.367188 527.472656 442.992188 528.074219 442.585938 C 528.675781 442.183594 529.257812 441.75 529.816406 441.289062 C 530.375 440.828125 530.914062 440.339844 531.425781 439.824219 C 531.9375 439.3125 532.421875 438.773438 532.882812 438.210938 C 533.339844 437.652344 533.769531 437.070312 534.171875 436.464844 C 534.574219 435.863281 534.949219 435.238281 535.289062 434.601562 C 535.632812 433.960938 535.941406 433.304688 536.21875 432.636719 C 536.496094 431.964844 536.738281 431.28125 536.949219 430.589844 C 537.160156 429.894531 537.339844 429.191406 537.480469 428.480469 C 537.621094 427.769531 537.730469 427.054688 537.800781 426.332031 C 537.875 425.609375 537.910156 424.886719 537.914062 424.160156 L 537.914062 377.554688 L 493.46875 405.304688 L 493.46875 424.109375 C 493.464844 425.570312 493.605469 427.019531 493.890625 428.457031 C 494.175781 429.890625 494.601562 431.285156 495.164062 432.632812 C 495.726562 433.984375 496.414062 435.265625 497.230469 436.480469 C 498.050781 437.691406 498.980469 438.8125 500.019531 439.84375 Z M 500.019531 439.84375 " fill-opacity="1" fill-rule="nonzero"/><path fill="#33baf2" d="M 191.546875 501.921875 L 192.164062 501.921875 C 193.191406 501.914062 194.21875 501.875 195.242188 501.800781 C 196.269531 501.726562 197.289062 501.621094 198.308594 501.480469 C 199.324219 501.339844 200.335938 501.167969 201.34375 500.960938 C 202.351562 500.753906 203.347656 500.515625 204.339844 500.242188 C 205.332031 499.96875 206.3125 499.667969 207.285156 499.332031 C 208.253906 498.996094 209.214844 498.628906 210.160156 498.230469 C 211.109375 497.832031 212.042969 497.402344 212.960938 496.941406 C 213.878906 496.480469 214.78125 495.992188 215.667969 495.472656 C 216.558594 494.957031 217.425781 494.410156 218.277344 493.832031 C 219.128906 493.257812 219.960938 492.65625 220.773438 492.027344 C 221.585938 491.398438 222.375 490.742188 223.144531 490.058594 C 223.914062 489.378906 224.660156 488.671875 225.382812 487.941406 C 226.105469 487.210938 226.804688 486.460938 227.480469 485.683594 C 228.152344 484.90625 228.800781 484.109375 229.421875 483.292969 C 230.042969 482.476562 230.636719 481.636719 231.207031 480.78125 C 231.773438 479.921875 232.3125 479.050781 232.820312 478.15625 C 233.332031 477.265625 233.8125 476.355469 234.261719 475.433594 C 234.714844 474.511719 235.132812 473.574219 235.523438 472.621094 C 235.910156 471.671875 236.269531 470.707031 236.597656 469.734375 C 236.921875 468.757812 237.21875 467.777344 237.480469 466.78125 C 237.742188 465.789062 237.972656 464.789062 238.167969 463.777344 C 238.363281 462.769531 238.527344 461.757812 238.660156 460.738281 C 238.789062 459.71875 238.886719 458.695312 238.949219 457.671875 C 239.015625 456.644531 239.042969 455.617188 239.042969 454.589844 C 239.039062 453.5625 239 452.535156 238.929688 451.511719 C 238.859375 450.484375 238.757812 449.464844 238.621094 448.445312 C 238.484375 447.425781 238.3125 446.414062 238.109375 445.40625 C 237.90625 444.398438 237.667969 443.402344 237.402344 442.410156 C 237.132812 441.417969 236.832031 440.433594 236.5 439.460938 C 236.167969 438.492188 235.800781 437.53125 235.40625 436.582031 C 235.011719 435.632812 234.585938 434.699219 234.128906 433.777344 C 233.671875 432.859375 233.1875 431.953125 232.671875 431.0625 C 232.15625 430.175781 231.609375 429.304688 231.039062 428.449219 C 230.464844 427.597656 229.863281 426.765625 229.238281 425.949219 C 228.609375 425.136719 227.957031 424.34375 227.277344 423.570312 C 226.601562 422.800781 225.898438 422.050781 225.167969 421.328125 C 224.441406 420.601562 223.691406 419.898438 222.917969 419.222656 C 222.144531 418.546875 221.347656 417.898438 220.53125 417.273438 C 219.714844 416.648438 218.882812 416.050781 218.027344 415.480469 C 217.171875 414.910156 216.296875 414.371094 215.40625 413.855469 C 214.515625 413.34375 213.609375 412.859375 212.6875 412.40625 C 211.765625 411.953125 210.832031 411.53125 209.882812 411.136719 C 208.929688 410.746094 207.96875 410.382812 206.996094 410.054688 C 206.023438 409.726562 205.039062 409.425781 204.046875 409.164062 C 203.054688 408.898438 202.054688 408.664062 201.046875 408.464844 C 200.039062 408.265625 199.027344 408.097656 198.007812 407.964844 C 196.988281 407.828125 195.964844 407.730469 194.941406 407.660156 C 193.914062 407.59375 192.886719 407.5625 191.859375 407.5625 C 190.832031 407.5625 189.808594 407.59375 188.78125 407.660156 C 187.757812 407.730469 186.734375 407.828125 185.714844 407.964844 C 184.695312 408.097656 183.683594 408.265625 182.675781 408.464844 C 181.667969 408.664062 180.667969 408.898438 179.675781 409.164062 C 178.679688 409.425781 177.699219 409.726562 176.726562 410.054688 C 175.75 410.382812 174.789062 410.746094 173.839844 411.136719 C 172.890625 411.53125 171.957031 411.953125 171.03125 412.40625 C 170.109375 412.859375 169.203125 413.34375 168.3125 413.855469 C 167.425781 414.371094 166.550781 414.910156 165.695312 415.480469 C 164.839844 416.050781 164.003906 416.648438 163.1875 417.273438 C 162.375 417.898438 161.578125 418.546875 160.804688 419.222656 C 160.03125 419.898438 159.28125 420.601562 158.554688 421.328125 C 157.824219 422.050781 157.121094 422.800781 156.441406 423.570312 C 155.765625 424.34375 155.109375 425.136719 154.484375 425.949219 C 153.855469 426.765625 153.257812 427.597656 152.683594 428.449219 C 152.113281 429.304688 151.566406 430.175781 151.050781 431.0625 C 150.535156 431.953125 150.050781 432.859375 149.59375 433.777344 C 149.136719 434.699219 148.710938 435.632812 148.316406 436.582031 C 147.917969 437.53125 147.554688 438.492188 147.222656 439.460938 C 146.890625 440.433594 146.589844 441.417969 146.320312 442.410156 C 146.050781 443.402344 145.816406 444.398438 145.613281 445.40625 C 145.410156 446.414062 145.238281 447.425781 145.101562 448.445312 C 144.964844 449.464844 144.863281 450.484375 144.792969 451.511719 C 144.71875 452.535156 144.683594 453.5625 144.679688 454.589844 C 144.675781 455.617188 144.707031 456.644531 144.769531 457.671875 C 144.835938 458.695312 144.933594 459.71875 145.0625 460.738281 C 145.195312 461.757812 145.355469 462.769531 145.554688 463.777344 C 145.75 464.789062 145.980469 465.789062 146.242188 466.78125 C 146.503906 467.777344 146.800781 468.761719 147.125 469.734375 C 147.453125 470.707031 147.808594 471.671875 148.199219 472.621094 C 148.589844 473.574219 149.007812 474.511719 149.460938 475.433594 C 149.910156 476.355469 150.390625 477.265625 150.902344 478.15625 C 151.410156 479.050781 151.949219 479.921875 152.515625 480.78125 C 153.082031 481.636719 153.679688 482.476562 154.300781 483.292969 C 154.921875 484.109375 155.570312 484.90625 156.242188 485.683594 C 156.917969 486.460938 157.617188 487.210938 158.339844 487.941406 C 159.0625 488.671875 159.808594 489.378906 160.578125 490.058594 C 161.347656 490.742188 162.136719 491.398438 162.949219 492.027344 C 163.761719 492.65625 164.59375 493.257812 165.445312 493.832031 C 166.296875 494.410156 167.164062 494.957031 168.050781 495.476562 C 168.941406 495.992188 169.84375 496.480469 170.761719 496.941406 C 171.679688 497.402344 172.613281 497.832031 173.5625 498.230469 C 174.507812 498.628906 175.46875 498.996094 176.4375 499.332031 C 177.410156 499.667969 178.390625 499.96875 179.382812 500.242188 C 180.371094 500.515625 181.371094 500.753906 182.378906 500.960938 C 183.382812 501.167969 184.398438 501.339844 185.414062 501.480469 C 186.433594 501.621094 187.453125 501.726562 188.480469 501.800781 C 189.503906 501.875 190.53125 501.914062 191.558594 501.921875 Z M 191.546875 501.921875 " fill-opacity="1" fill-rule="nonzero"/><path fill="#33baf2" d="M 243.554688 480.042969 C 241.410156 484.417969 238.757812 488.457031 235.59375 492.160156 C 232.429688 495.863281 228.859375 499.117188 224.875 501.921875 L 261.785156 501.921875 C 257.824219 499.15625 254.292969 495.917969 251.203125 492.207031 C 248.109375 488.496094 245.558594 484.441406 243.554688 480.042969 Z M 243.554688 480.042969 " fill-opacity="1" fill-rule="nonzero"/><path fill="#33baf2" d="M 641.082031 512.367188 L 192.457031 512.367188 C 192.246094 512.367188 192.050781 512.367188 191.851562 512.367188 C 191.652344 512.367188 191.441406 512.367188 191.246094 512.367188 L 108.90625 512.367188 C 108.484375 512.367188 108.0625 512.410156 107.648438 512.492188 C 107.230469 512.574219 106.824219 512.699219 106.433594 512.859375 C 106.042969 513.023438 105.667969 513.222656 105.316406 513.457031 C 104.960938 513.695312 104.636719 513.960938 104.335938 514.261719 C 104.035156 514.5625 103.765625 514.890625 103.53125 515.242188 C 103.296875 515.597656 103.097656 515.96875 102.933594 516.359375 C 102.769531 516.753906 102.648438 517.15625 102.566406 517.574219 C 102.484375 517.992188 102.441406 518.410156 102.441406 518.835938 L 102.441406 544.671875 C 102.441406 545.097656 102.484375 545.519531 102.566406 545.933594 C 102.648438 546.351562 102.769531 546.753906 102.933594 547.148438 C 103.097656 547.539062 103.296875 547.914062 103.53125 548.265625 C 103.765625 548.617188 104.035156 548.945312 104.335938 549.246094 C 104.636719 549.546875 104.960938 549.8125 105.316406 550.050781 C 105.667969 550.285156 106.042969 550.484375 106.433594 550.648438 C 106.824219 550.808594 107.230469 550.933594 107.648438 551.015625 C 108.0625 551.097656 108.484375 551.140625 108.90625 551.140625 L 641.082031 551.140625 C 641.503906 551.140625 641.925781 551.097656 642.34375 551.015625 C 642.757812 550.933594 643.164062 550.808594 643.554688 550.648438 C 643.949219 550.484375 644.320312 550.285156 644.671875 550.050781 C 645.027344 549.8125 645.351562 549.546875 645.652344 549.246094 C 645.953125 548.945312 646.222656 548.617188 646.457031 548.265625 C 646.695312 547.914062 646.894531 547.539062 647.054688 547.148438 C 647.21875 546.753906 647.339844 546.351562 647.421875 545.933594 C 647.507812 545.519531 647.546875 545.097656 647.546875 544.671875 L 647.546875 518.835938 C 647.546875 518.410156 647.507812 517.992188 647.421875 517.574219 C 647.339844 517.15625 647.21875 516.753906 647.054688 516.359375 C 646.894531 515.96875 646.695312 515.597656 646.457031 515.242188 C 646.222656 514.890625 645.953125 514.5625 645.652344 514.261719 C 645.351562 513.960938 645.027344 513.695312 644.671875 513.457031 C 644.320312 513.222656 643.949219 513.023438 643.554688 512.859375 C 643.164062 512.699219 642.757812 512.574219 642.34375 512.492188 C 641.925781 512.410156 641.503906 512.367188 641.082031 512.367188 Z M 641.082031 512.367188 " fill-opacity="1" fill-rule="nonzero"/><path fill="#33baf2" d="M 158.953125 561.585938 L 200.269531 561.585938 L 200.269531 596.472656 L 158.953125 596.472656 Z M 158.953125 561.585938 " fill-opacity="1" fill-rule="nonzero"/><path fill="#33baf2" d="M 482.476562 184.609375 C 482.476562 182.695312 482.382812 180.785156 482.195312 178.875 C 482.007812 176.96875 481.726562 175.078125 481.355469 173.199219 C 480.980469 171.316406 480.515625 169.460938 479.957031 167.628906 C 479.402344 165.792969 478.757812 163.992188 478.023438 162.222656 C 477.292969 160.453125 476.472656 158.722656 475.570312 157.03125 C 474.667969 155.34375 473.683594 153.699219 472.617188 152.105469 C 471.554688 150.515625 470.414062 148.976562 469.199219 147.496094 C 467.980469 146.015625 466.695312 144.597656 465.34375 143.242188 C 463.988281 141.886719 462.570312 140.601562 461.085938 139.386719 C 459.605469 138.171875 458.070312 137.03125 456.476562 135.964844 C 454.882812 134.902344 453.242188 133.917969 451.550781 133.015625 C 449.863281 132.109375 448.132812 131.292969 446.359375 130.558594 C 444.589844 129.824219 442.789062 129.179688 440.957031 128.625 C 439.121094 128.070312 437.265625 127.601562 435.386719 127.230469 C 433.507812 126.855469 431.613281 126.574219 429.707031 126.386719 C 427.800781 126.199219 425.886719 126.105469 423.972656 126.105469 C 422.054688 126.105469 420.144531 126.199219 418.238281 126.386719 C 416.332031 126.574219 414.4375 126.855469 412.558594 127.230469 C 410.679688 127.601562 408.824219 128.070312 406.988281 128.625 C 405.15625 129.179688 403.351562 129.824219 401.582031 130.558594 C 399.8125 131.292969 398.082031 132.109375 396.394531 133.015625 C 394.703125 133.917969 393.0625 134.902344 391.46875 135.964844 C 389.875 137.03125 388.335938 138.171875 386.855469 139.386719 C 385.375 140.601562 383.957031 141.886719 382.601562 143.242188 C 381.246094 144.597656 379.960938 146.015625 378.746094 147.496094 C 377.53125 148.976562 376.390625 150.515625 375.328125 152.105469 C 374.261719 153.699219 373.277344 155.34375 372.375 157.03125 C 371.472656 158.722656 370.652344 160.453125 369.917969 162.222656 C 369.1875 163.992188 368.542969 165.792969 367.984375 167.628906 C 367.429688 169.460938 366.964844 171.316406 366.589844 173.199219 C 366.214844 175.078125 365.9375 176.96875 365.75 178.875 C 365.558594 180.785156 365.464844 182.695312 365.464844 184.609375 C 365.464844 186.527344 365.558594 188.4375 365.75 190.347656 C 365.9375 192.253906 366.214844 194.144531 366.589844 196.023438 C 366.964844 197.90625 367.429688 199.761719 367.984375 201.59375 C 368.542969 203.429688 369.1875 205.230469 369.917969 207 C 370.652344 208.769531 371.472656 210.5 372.375 212.191406 C 373.277344 213.878906 374.261719 215.523438 375.328125 217.117188 C 376.390625 218.707031 377.53125 220.246094 378.746094 221.726562 C 379.960938 223.207031 381.246094 224.625 382.601562 225.980469 C 383.957031 227.335938 385.375 228.621094 386.855469 229.835938 C 388.335938 231.050781 389.875 232.191406 391.46875 233.257812 C 393.0625 234.320312 394.703125 235.304688 396.394531 236.207031 C 398.082031 237.113281 399.8125 237.929688 401.582031 238.664062 C 403.351562 239.398438 405.15625 240.042969 406.988281 240.597656 C 408.824219 241.152344 410.679688 241.617188 412.558594 241.992188 C 414.4375 242.367188 416.332031 242.648438 418.238281 242.835938 C 420.144531 243.023438 422.054688 243.117188 423.972656 243.117188 C 425.886719 243.113281 427.796875 243.015625 429.703125 242.824219 C 431.609375 242.636719 433.5 242.351562 435.378906 241.976562 C 437.257812 241.597656 439.113281 241.132812 440.945312 240.574219 C 442.777344 240.015625 444.578125 239.371094 446.34375 238.636719 C 448.113281 237.902344 449.84375 237.082031 451.53125 236.179688 C 453.21875 235.273438 454.859375 234.289062 456.453125 233.226562 C 458.042969 232.160156 459.578125 231.019531 461.058594 229.804688 C 462.539062 228.589844 463.957031 227.304688 465.3125 225.949219 C 466.664062 224.597656 467.949219 223.179688 469.164062 221.699219 C 470.382812 220.21875 471.519531 218.683594 472.585938 217.089844 C 473.652344 215.5 474.636719 213.859375 475.539062 212.171875 C 476.441406 210.480469 477.261719 208.753906 477.996094 206.984375 C 478.730469 205.214844 479.378906 203.414062 479.933594 201.582031 C 480.492188 199.75 480.960938 197.894531 481.335938 196.019531 C 481.710938 194.140625 481.996094 192.25 482.1875 190.34375 C 482.378906 188.4375 482.472656 186.527344 482.476562 184.609375 Z M 482.476562 184.609375 " fill-opacity="1" fill-rule="nonzero"/><path fill="#33baf2" d="M 297.265625 348.898438 L 297.265625 406.273438 L 401.8125 406.273438 C 403.15625 406.269531 404.488281 406.136719 405.804688 405.875 C 407.121094 405.613281 408.398438 405.226562 409.640625 404.710938 C 410.882812 404.199219 412.0625 403.574219 413.183594 402.828125 C 414.300781 402.085938 415.339844 401.242188 416.292969 400.300781 C 416.996094 399.585938 417.640625 398.828125 418.230469 398.019531 C 418.824219 397.214844 419.351562 396.367188 419.816406 395.484375 C 420.28125 394.601562 420.683594 393.6875 421.015625 392.742188 C 421.347656 391.800781 421.605469 390.835938 421.796875 389.855469 C 421.988281 388.875 422.105469 387.886719 422.152344 386.886719 C 422.195312 385.886719 422.167969 384.890625 422.066406 383.894531 C 421.964844 382.902344 421.792969 381.917969 421.546875 380.949219 C 421.300781 379.980469 420.984375 379.035156 420.601562 378.113281 C 420.21875 377.191406 419.765625 376.300781 419.25 375.441406 C 418.738281 374.585938 418.160156 373.773438 417.527344 373 C 416.890625 372.226562 416.203125 371.507812 415.460938 370.835938 C 414.722656 370.164062 413.933594 369.550781 413.105469 368.996094 C 412.273438 368.4375 411.40625 367.945312 410.503906 367.519531 C 409.597656 367.089844 408.667969 366.730469 407.714844 366.4375 C 406.757812 366.148438 405.785156 365.925781 404.796875 365.777344 C 403.808594 365.628906 402.8125 365.554688 401.8125 365.550781 L 351.769531 365.550781 C 351.425781 365.550781 351.085938 365.515625 350.75 365.449219 C 350.414062 365.382812 350.085938 365.285156 349.769531 365.152344 C 349.453125 365.023438 349.152344 364.859375 348.867188 364.671875 C 348.582031 364.480469 348.320312 364.261719 348.074219 364.019531 C 347.832031 363.777344 347.617188 363.515625 347.425781 363.230469 C 347.234375 362.945312 347.074219 362.644531 346.945312 362.324219 C 346.8125 362.007812 346.714844 361.683594 346.644531 361.347656 C 346.578125 361.007812 346.546875 360.671875 346.546875 360.328125 L 346.546875 324.0625 C 346.546875 323.722656 346.578125 323.382812 346.644531 323.042969 C 346.714844 322.707031 346.8125 322.382812 346.945312 322.066406 C 347.074219 321.746094 347.234375 321.445312 347.425781 321.160156 C 347.617188 320.875 347.832031 320.613281 348.074219 320.371094 C 348.320312 320.128906 348.582031 319.910156 348.867188 319.71875 C 349.152344 319.53125 349.453125 319.367188 349.769531 319.238281 C 350.085938 319.105469 350.414062 319.007812 350.75 318.941406 C 351.085938 318.875 351.425781 318.839844 351.769531 318.839844 C 352.113281 318.839844 352.453125 318.875 352.789062 318.941406 C 353.125 319.007812 353.453125 319.105469 353.769531 319.238281 C 354.085938 319.367188 354.386719 319.53125 354.671875 319.71875 C 354.957031 319.910156 355.222656 320.128906 355.464844 320.371094 C 355.707031 320.613281 355.921875 320.875 356.113281 321.160156 C 356.304688 321.445312 356.464844 321.746094 356.597656 322.066406 C 356.726562 322.382812 356.828125 322.707031 356.894531 323.042969 C 356.960938 323.382812 356.992188 323.722656 356.992188 324.0625 L 356.992188 355.101562 L 401.8125 355.101562 C 403.128906 355.105469 404.4375 355.195312 405.742188 355.367188 C 407.046875 355.539062 408.335938 355.792969 409.609375 356.132812 C 410.878906 356.46875 412.125 356.886719 413.34375 357.382812 C 414.5625 357.882812 415.742188 358.453125 416.886719 359.105469 C 418.03125 359.753906 419.132812 360.472656 420.183594 361.261719 C 421.234375 362.054688 422.234375 362.910156 423.175781 363.828125 C 424.117188 364.746094 424.996094 365.71875 425.8125 366.753906 C 426.632812 367.785156 427.378906 368.863281 428.058594 369.992188 C 428.875 367.421875 429.921875 364.949219 431.195312 362.574219 C 432.46875 360.199219 433.945312 357.960938 435.632812 355.855469 C 437.320312 353.753906 439.183594 351.820312 441.226562 350.0625 C 443.265625 348.300781 445.453125 346.742188 447.78125 345.386719 L 521.875 302.40625 C 522.792969 301.875 523.777344 301.550781 524.726562 301.101562 C 523.695312 299.304688 522.605469 297.542969 521.457031 295.820312 C 520.308594 294.097656 519.105469 292.410156 517.84375 290.765625 C 516.585938 289.121094 515.273438 287.519531 513.910156 285.960938 C 512.546875 284.402344 511.132812 282.886719 509.667969 281.421875 C 508.207031 279.957031 506.695312 278.539062 505.140625 277.171875 C 503.582031 275.804688 501.980469 274.492188 500.339844 273.230469 C 498.695312 271.96875 497.015625 270.761719 495.292969 269.609375 C 493.570312 268.457031 491.8125 267.363281 490.015625 266.328125 C 488.222656 265.292969 486.398438 264.316406 484.539062 263.402344 C 482.679688 262.484375 480.792969 261.632812 478.878906 260.839844 C 476.964844 260.050781 475.027344 259.320312 473.066406 258.65625 C 471.101562 257.992188 469.121094 257.390625 467.121094 256.859375 C 465.117188 256.324219 463.101562 255.855469 461.070312 255.453125 C 459.035156 255.050781 456.992188 254.71875 454.9375 254.449219 C 452.882812 254.183594 450.824219 253.984375 448.757812 253.851562 C 446.6875 253.71875 444.621094 253.65625 442.546875 253.660156 L 392.503906 253.660156 C 390.945312 253.660156 389.390625 253.699219 387.832031 253.777344 C 386.277344 253.855469 384.722656 253.972656 383.171875 254.125 C 381.621094 254.28125 380.078125 254.472656 378.535156 254.703125 C 376.992188 254.933594 375.460938 255.199219 373.929688 255.503906 C 372.402344 255.8125 370.882812 256.152344 369.371094 256.535156 C 367.863281 256.914062 366.359375 257.328125 364.871094 257.78125 C 363.378906 258.234375 361.898438 258.726562 360.433594 259.25 C 358.964844 259.777344 357.511719 260.339844 356.074219 260.9375 C 354.636719 261.53125 353.210938 262.164062 351.804688 262.832031 C 350.394531 263.5 349.003906 264.199219 347.628906 264.933594 C 346.253906 265.671875 344.902344 266.4375 343.566406 267.238281 C 342.226562 268.042969 340.914062 268.875 339.617188 269.742188 C 338.320312 270.605469 337.046875 271.503906 335.796875 272.433594 C 334.546875 273.363281 333.316406 274.320312 332.113281 275.308594 C 330.910156 276.296875 329.730469 277.316406 328.574219 278.363281 C 327.421875 279.40625 326.292969 280.480469 325.191406 281.582031 C 324.089844 282.6875 323.015625 283.8125 321.96875 284.96875 C 320.921875 286.121094 319.902344 287.300781 318.914062 288.507812 C 317.925781 289.710938 316.96875 290.9375 316.039062 292.191406 C 315.113281 293.441406 314.214844 294.714844 313.347656 296.011719 C 312.480469 297.304688 311.648438 298.621094 310.847656 299.957031 C 310.046875 301.292969 309.277344 302.648438 308.542969 304.023438 C 307.808594 305.398438 307.105469 306.789062 306.4375 308.195312 C 305.773438 309.605469 305.140625 311.027344 304.542969 312.46875 C 303.945312 313.90625 303.382812 315.359375 302.859375 316.828125 C 302.332031 318.292969 301.84375 319.773438 301.390625 321.261719 C 300.9375 322.753906 300.519531 324.253906 300.140625 325.765625 C 299.761719 327.277344 299.417969 328.796875 299.113281 330.324219 C 298.808594 331.851562 298.539062 333.386719 298.308594 334.929688 C 298.078125 336.46875 297.886719 338.015625 297.734375 339.566406 C 297.578125 341.117188 297.464844 342.667969 297.386719 344.226562 C 297.308594 345.78125 297.265625 347.339844 297.265625 348.898438 Z M 297.265625 348.898438 " fill-opacity="1" fill-rule="nonzero"/><path fill="#33baf2" d="M 549.71875 561.585938 L 591.039062 561.585938 L 591.039062 596.472656 L 549.71875 596.472656 Z M 549.71875 561.585938 " fill-opacity="1" fill-rule="nonzero"/><path fill="#33baf2" d="M 294.070312 501.921875 L 581.144531 501.921875 C 581.882812 501.9375 582.617188 501.917969 583.355469 501.867188 C 584.089844 501.8125 584.824219 501.726562 585.550781 501.605469 C 586.28125 501.484375 587 501.332031 587.714844 501.144531 C 588.429688 500.953125 589.132812 500.734375 589.824219 500.480469 C 590.519531 500.226562 591.199219 499.941406 591.867188 499.625 C 592.53125 499.304688 593.183594 498.960938 593.816406 498.582031 C 594.453125 498.203125 595.066406 497.796875 595.664062 497.363281 C 596.257812 496.925781 596.835938 496.464844 597.386719 495.976562 C 597.941406 495.488281 598.46875 494.972656 598.976562 494.433594 C 599.480469 493.898438 599.960938 493.335938 600.414062 492.753906 C 600.867188 492.171875 601.289062 491.566406 601.6875 490.945312 C 602.085938 490.324219 602.453125 489.683594 602.789062 489.027344 C 603.125 488.371094 603.429688 487.699219 603.707031 487.015625 C 603.980469 486.328125 604.222656 485.632812 604.433594 484.925781 C 604.640625 484.214844 604.820312 483.5 604.960938 482.777344 C 605.105469 482.050781 605.214844 481.320312 605.289062 480.585938 C 605.328125 479.824219 605.332031 479.058594 605.296875 478.292969 C 605.261719 477.53125 605.1875 476.769531 605.074219 476.011719 C 604.960938 475.257812 604.808594 474.507812 604.621094 473.765625 C 604.429688 473.023438 604.203125 472.292969 603.941406 471.574219 C 603.675781 470.859375 603.375 470.15625 603.039062 469.464844 C 602.707031 468.777344 602.335938 468.109375 601.933594 467.460938 C 601.527344 466.808594 601.09375 466.183594 600.625 465.578125 C 600.15625 464.96875 599.660156 464.390625 599.132812 463.835938 C 598.605469 463.28125 598.050781 462.753906 597.472656 462.253906 C 596.890625 461.757812 596.285156 461.289062 595.65625 460.851562 C 595.03125 460.414062 594.378906 460.011719 593.710938 459.640625 C 593.042969 459.269531 592.355469 458.933594 591.652344 458.632812 C 590.949219 458.332031 590.230469 458.066406 589.5 457.839844 C 588.769531 457.613281 588.027344 457.421875 587.277344 457.269531 C 586.527344 457.117188 585.773438 457.003906 585.011719 456.929688 C 584.25 456.855469 583.488281 456.816406 582.722656 456.820312 L 488.246094 456.820312 C 487.902344 456.820312 487.5625 456.785156 487.226562 456.71875 C 486.890625 456.652344 486.5625 456.554688 486.246094 456.421875 C 485.929688 456.289062 485.628906 456.128906 485.34375 455.9375 C 485.058594 455.75 484.792969 455.53125 484.550781 455.289062 C 484.308594 455.046875 484.09375 454.785156 483.902344 454.5 C 483.710938 454.214844 483.550781 453.910156 483.417969 453.59375 C 483.289062 453.277344 483.1875 452.953125 483.121094 452.613281 C 483.054688 452.277344 483.019531 451.9375 483.019531 451.597656 L 483.019531 402.347656 C 483.039062 401.566406 483.226562 400.828125 483.585938 400.132812 C 483.714844 399.910156 483.859375 399.699219 484.015625 399.496094 C 484.320312 399.050781 484.691406 398.667969 485.121094 398.34375 C 485.246094 398.242188 485.308594 398.074219 485.457031 397.988281 L 553.644531 355.449219 C 554.367188 355.015625 555.0625 354.546875 555.734375 354.042969 C 556.410156 353.539062 557.058594 353.007812 557.679688 352.441406 C 558.300781 351.875 558.890625 351.277344 559.453125 350.65625 C 560.015625 350.03125 560.546875 349.378906 561.046875 348.703125 C 561.546875 348.027344 562.011719 347.328125 562.441406 346.605469 C 562.871094 345.882812 563.265625 345.140625 563.621094 344.382812 C 563.980469 343.621094 564.300781 342.84375 564.582031 342.054688 C 564.863281 341.261719 565.105469 340.457031 565.304688 339.640625 C 565.507812 338.824219 565.671875 338 565.792969 337.167969 C 565.914062 336.339844 565.992188 335.503906 566.03125 334.664062 C 566.070312 333.824219 566.070312 332.984375 566.027344 332.144531 C 565.984375 331.304688 565.898438 330.46875 565.773438 329.640625 C 565.648438 328.808594 565.484375 327.984375 565.277344 327.167969 C 565.074219 326.355469 564.828125 325.550781 564.542969 324.761719 C 564.257812 323.96875 563.933594 323.195312 563.574219 322.4375 C 563.214844 321.675781 562.816406 320.9375 562.382812 320.21875 C 561.949219 319.496094 561.480469 318.800781 560.980469 318.125 C 560.480469 317.453125 559.945312 316.804688 559.378906 316.183594 C 558.8125 315.558594 558.21875 314.96875 557.597656 314.402344 C 556.972656 313.839844 556.320312 313.308594 555.644531 312.808594 C 554.96875 312.308594 554.273438 311.84375 553.550781 311.414062 C 552.828125 310.980469 552.085938 310.585938 551.328125 310.230469 C 550.566406 309.871094 549.792969 309.550781 549 309.269531 C 548.207031 308.988281 547.402344 308.746094 546.589844 308.542969 C 545.773438 308.339844 544.949219 308.175781 544.117188 308.054688 C 543.285156 307.929688 542.449219 307.847656 541.609375 307.808594 C 540.773438 307.769531 539.933594 307.769531 539.09375 307.8125 C 538.253906 307.855469 537.417969 307.9375 536.585938 308.0625 C 535.753906 308.1875 534.933594 308.351562 534.117188 308.554688 C 533.300781 308.761719 532.5 309.003906 531.707031 309.289062 C 530.917969 309.574219 530.140625 309.894531 529.382812 310.253906 C 528.621094 310.613281 527.882812 311.011719 527.160156 311.445312 L 453.058594 354.433594 C 451.792969 355.167969 450.582031 355.976562 449.425781 356.867188 C 448.265625 357.757812 447.171875 358.722656 446.140625 359.753906 C 445.105469 360.789062 444.144531 361.882812 443.257812 363.042969 C 442.367188 364.203125 441.558594 365.414062 440.828125 366.679688 C 440.097656 367.945312 439.453125 369.253906 438.894531 370.601562 C 438.335938 371.953125 437.867188 373.332031 437.488281 374.742188 C 437.109375 376.152344 436.824219 377.582031 436.632812 379.03125 C 436.441406 380.480469 436.34375 381.933594 436.34375 383.394531 L 436.34375 401.898438 C 436.339844 402.871094 436.242188 403.835938 436.050781 404.792969 C 435.859375 405.75 435.578125 406.675781 435.203125 407.578125 C 434.828125 408.476562 434.371094 409.332031 433.828125 410.140625 C 433.285156 410.953125 432.671875 411.699219 431.980469 412.390625 C 431.292969 413.078125 430.542969 413.695312 429.730469 414.234375 C 428.921875 414.777344 428.066406 415.234375 427.164062 415.609375 C 426.265625 415.980469 425.335938 416.261719 424.382812 416.453125 C 423.425781 416.644531 422.460938 416.742188 421.484375 416.742188 L 292.082031 416.742188 C 290.660156 416.742188 289.242188 416.8125 287.828125 416.953125 C 286.414062 417.097656 285.007812 417.308594 283.617188 417.589844 C 282.222656 417.871094 280.847656 418.222656 279.488281 418.644531 C 278.128906 419.0625 276.796875 419.550781 275.484375 420.105469 C 274.175781 420.660156 272.898438 421.277344 271.648438 421.957031 C 270.402344 422.640625 269.191406 423.382812 268.019531 424.1875 C 266.84375 424.988281 265.714844 425.847656 264.628906 426.765625 C 263.539062 427.683594 262.5 428.652344 261.511719 429.671875 C 260.523438 430.691406 259.585938 431.761719 258.703125 432.875 C 257.820312 433.988281 256.992188 435.144531 256.226562 436.339844 C 255.460938 437.539062 254.753906 438.773438 254.109375 440.039062 C 253.46875 441.308594 252.886719 442.605469 252.375 443.929688 C 251.859375 445.257812 251.414062 446.605469 251.035156 447.976562 C 250.65625 449.34375 250.347656 450.730469 250.109375 452.132812 C 249.871094 453.535156 249.699219 454.945312 249.601562 456.363281 C 249.503906 457.78125 249.476562 459.203125 249.519531 460.621094 C 249.601562 462.019531 249.75 463.410156 249.964844 464.789062 C 250.179688 466.171875 250.460938 467.542969 250.808594 468.898438 C 251.152344 470.253906 251.5625 471.589844 252.035156 472.90625 C 252.511719 474.222656 253.046875 475.511719 253.640625 476.777344 C 254.238281 478.042969 254.894531 479.273438 255.609375 480.476562 C 256.324219 481.679688 257.097656 482.84375 257.921875 483.972656 C 258.75 485.101562 259.628906 486.1875 260.558594 487.234375 C 261.488281 488.277344 262.464844 489.277344 263.492188 490.226562 C 264.519531 491.179688 265.585938 492.078125 266.699219 492.925781 C 267.8125 493.777344 268.960938 494.570312 270.148438 495.308594 C 271.335938 496.046875 272.558594 496.726562 273.808594 497.351562 C 275.0625 497.972656 276.34375 498.53125 277.648438 499.03125 C 278.957031 499.53125 280.28125 499.96875 281.632812 500.339844 C 282.980469 500.714844 284.34375 501.019531 285.71875 501.265625 C 287.097656 501.507812 288.484375 501.683594 289.878906 501.792969 C 291.273438 501.902344 292.667969 501.945312 294.070312 501.921875 Z M 440.917969 476.1875 C 441.203125 475.566406 441.585938 475.007812 442.066406 474.519531 C 442.4375 474.148438 442.851562 473.84375 443.308594 473.597656 C 443.769531 473.351562 444.253906 473.175781 444.765625 473.074219 C 445.277344 472.96875 445.792969 472.941406 446.308594 472.992188 C 446.828125 473.039062 447.332031 473.160156 447.8125 473.359375 C 448.433594 473.652344 448.992188 474.039062 449.484375 474.519531 C 450.496094 475.523438 451.019531 476.738281 451.050781 478.164062 C 451.023438 479.625 450.5 480.882812 449.484375 481.933594 C 448.96875 482.378906 448.410156 482.761719 447.8125 483.085938 C 447.132812 483.289062 446.433594 483.386719 445.722656 483.386719 C 445.042969 483.394531 444.386719 483.269531 443.753906 483.019531 C 443.121094 482.769531 442.558594 482.40625 442.066406 481.933594 C 441.050781 480.882812 440.527344 479.625 440.5 478.164062 C 440.539062 477.484375 440.679688 476.828125 440.917969 476.1875 Z M 326.457031 472.980469 L 398.25 472.980469 C 398.59375 472.980469 398.933594 473.015625 399.269531 473.082031 C 399.605469 473.148438 399.933594 473.25 400.25 473.378906 C 400.566406 473.511719 400.867188 473.671875 401.152344 473.863281 C 401.4375 474.054688 401.703125 474.269531 401.945312 474.511719 C 402.1875 474.753906 402.402344 475.019531 402.59375 475.304688 C 402.785156 475.589844 402.945312 475.890625 403.078125 476.207031 C 403.207031 476.523438 403.308594 476.851562 403.375 477.1875 C 403.441406 477.523438 403.472656 477.863281 403.472656 478.207031 C 403.472656 478.546875 403.441406 478.886719 403.375 479.226562 C 403.308594 479.5625 403.207031 479.886719 403.078125 480.203125 C 402.945312 480.523438 402.785156 480.824219 402.59375 481.109375 C 402.402344 481.394531 402.1875 481.65625 401.945312 481.898438 C 401.703125 482.140625 401.4375 482.359375 401.152344 482.550781 C 400.867188 482.738281 400.566406 482.902344 400.25 483.03125 C 399.933594 483.164062 399.605469 483.261719 399.269531 483.328125 C 398.933594 483.394531 398.59375 483.429688 398.25 483.429688 L 326.457031 483.429688 C 326.113281 483.429688 325.773438 483.394531 325.4375 483.328125 C 325.101562 483.261719 324.773438 483.164062 324.457031 483.03125 C 324.140625 482.902344 323.839844 482.738281 323.554688 482.550781 C 323.269531 482.359375 323.003906 482.140625 322.761719 481.898438 C 322.519531 481.65625 322.304688 481.394531 322.113281 481.109375 C 321.921875 480.824219 321.761719 480.523438 321.628906 480.203125 C 321.5 479.886719 321.398438 479.5625 321.332031 479.226562 C 321.265625 478.886719 321.230469 478.546875 321.230469 478.207031 C 321.230469 477.863281 321.265625 477.523438 321.332031 477.1875 C 321.398438 476.851562 321.5 476.523438 321.628906 476.207031 C 321.761719 475.890625 321.921875 475.589844 322.113281 475.304688 C 322.300781 475.019531 322.519531 474.753906 322.761719 474.511719 C 323.003906 474.269531 323.269531 474.054688 323.554688 473.863281 C 323.839844 473.671875 324.140625 473.511719 324.457031 473.378906 C 324.773438 473.25 325.101562 473.148438 325.4375 473.082031 C 325.773438 473.015625 326.113281 472.980469 326.457031 472.980469 Z M 326.457031 472.980469 " fill-opacity="1" fill-rule="nonzero"/></svg>