<svg xmlns="http://www.w3.org/2000/svg" xmlns:xlink="http://www.w3.org/1999/xlink" width="1000" zoomAndPan="magnify" viewBox="0 0 750 749.999995" height="1000" preserveAspectRatio="xMidYMid meet" version="1.0"><defs><clipPath id="421924f09a"><path d="M 375 0 C 167.894531 0 0 167.894531 0 375 C 0 582.105469 167.894531 750 375 750 C 582.105469 750 750 582.105469 750 375 C 750 167.894531 582.105469 0 375 0 Z M 375 0 " clip-rule="nonzero"/></clipPath><clipPath id="6f2570f4d7"><path d="M 0 0 L 750 0 L 750 750 L 0 750 Z M 0 0 " clip-rule="nonzero"/></clipPath><clipPath id="7f90d2bd4c"><path d="M 375 0 C 167.894531 0 0 167.894531 0 375 C 0 582.105469 167.894531 750 375 750 C 582.105469 750 750 582.105469 750 375 C 750 167.894531 582.105469 0 375 0 Z M 375 0 " clip-rule="nonzero"/></clipPath><clipPath id="7894efe597"><rect x="0" width="750" y="0" height="750"/></clipPath><clipPath id="22ae71d0a4"><path d="M 484 327 L 648.351562 327 L 648.351562 492 L 484 492 Z M 484 327 " clip-rule="nonzero"/></clipPath><clipPath id="10f5c5b72e"><path d="M 101.601562 106.386719 L 266 106.386719 L 266 271 L 101.601562 271 Z M 101.601562 106.386719 " clip-rule="nonzero"/></clipPath><clipPath id="d11e3ee7cd"><path d="M 482 148 L 648.351562 148 L 648.351562 314 L 482 314 Z M 482 148 " clip-rule="nonzero"/></clipPath></defs><g clip-path="url(#421924f09a)"><g transform="matrix(1, 0, 0, 1, 0, -0.000000000000042435)"><g clip-path="url(#7894efe597)"><g clip-path="url(#6f2570f4d7)"><g clip-path="url(#7f90d2bd4c)"><rect x="-165" width="1080" fill="#fbeb9d" height="1079.999992" y="-164.999999" fill-opacity="1"/></g></g></g></g></g><path fill="#fbeb9d" d="M 636.441406 370.917969 C 636.441406 375.195312 636.335938 379.472656 636.128906 383.746094 C 635.917969 388.019531 635.601562 392.285156 635.183594 396.542969 C 634.761719 400.800781 634.238281 405.046875 633.613281 409.28125 C 632.984375 413.511719 632.25 417.726562 631.417969 421.925781 C 630.582031 426.121094 629.644531 430.296875 628.605469 434.445312 C 627.5625 438.597656 626.421875 442.71875 625.179688 446.8125 C 623.9375 450.910156 622.59375 454.96875 621.152344 459 C 619.710938 463.027344 618.171875 467.019531 616.535156 470.972656 C 614.894531 474.925781 613.160156 478.835938 611.332031 482.703125 C 609.5 486.570312 607.578125 490.394531 605.558594 494.167969 C 603.542969 497.941406 601.433594 501.660156 599.234375 505.332031 C 597.03125 509.003906 594.742188 512.617188 592.363281 516.175781 C 589.988281 519.730469 587.523438 523.230469 584.972656 526.664062 C 582.421875 530.101562 579.789062 533.476562 577.074219 536.78125 C 574.359375 540.089844 571.566406 543.328125 568.691406 546.5 C 565.816406 549.671875 562.867188 552.769531 559.839844 555.792969 C 556.8125 558.820312 553.710938 561.769531 550.542969 564.644531 C 547.371094 567.515625 544.128906 570.308594 540.820312 573.023438 C 537.511719 575.738281 534.140625 578.371094 530.699219 580.921875 C 527.261719 583.46875 523.765625 585.933594 520.207031 588.308594 C 516.648438 590.6875 513.03125 592.976562 509.359375 595.175781 C 505.6875 597.375 501.964844 599.484375 498.191406 601.5 C 494.414062 603.515625 490.59375 605.441406 486.722656 607.269531 C 482.855469 609.097656 478.941406 610.832031 474.988281 612.46875 C 471.035156 614.109375 467.042969 615.648438 463.011719 617.089844 C 458.980469 618.53125 454.917969 619.871094 450.824219 621.113281 C 446.726562 622.355469 442.601562 623.496094 438.449219 624.535156 C 434.296875 625.578125 430.125 626.515625 425.925781 627.347656 C 421.726562 628.183594 417.511719 628.914062 413.277344 629.542969 C 409.042969 630.171875 404.796875 630.695312 400.535156 631.113281 C 396.277344 631.53125 392.007812 631.847656 387.734375 632.058594 C 383.460938 632.265625 379.179688 632.371094 374.902344 632.371094 C 370.621094 632.371094 366.34375 632.265625 362.066406 632.058594 C 357.792969 631.847656 353.523438 631.53125 349.265625 631.113281 C 345.007812 630.695312 340.757812 630.171875 336.523438 629.542969 C 332.292969 628.914062 328.074219 628.183594 323.878906 627.347656 C 319.679688 626.515625 315.503906 625.578125 311.351562 624.535156 C 307.199219 623.496094 303.074219 622.355469 298.980469 621.113281 C 294.882812 619.871094 290.820312 618.53125 286.789062 617.089844 C 282.761719 615.648438 278.769531 614.109375 274.8125 612.46875 C 270.859375 610.832031 266.945312 609.097656 263.078125 607.269531 C 259.207031 605.441406 255.386719 603.515625 251.613281 601.5 C 247.835938 599.484375 244.113281 597.375 240.441406 595.175781 C 236.769531 592.976562 233.15625 590.6875 229.597656 588.308594 C 226.039062 585.933594 222.539062 583.46875 219.101562 580.921875 C 215.664062 578.371094 212.289062 575.738281 208.980469 573.023438 C 205.671875 570.308594 202.433594 567.515625 199.261719 564.644531 C 196.089844 561.769531 192.988281 558.820312 189.964844 555.792969 C 186.9375 552.769531 183.988281 549.671875 181.113281 546.5 C 178.238281 543.328125 175.441406 540.089844 172.726562 536.78125 C 170.011719 533.476562 167.378906 530.101562 164.828125 526.664062 C 162.28125 523.230469 159.816406 519.730469 157.4375 516.175781 C 155.058594 512.617188 152.769531 509.003906 150.570312 505.332031 C 148.371094 501.660156 146.261719 497.941406 144.242188 494.167969 C 142.226562 490.394531 140.300781 486.570312 138.46875 482.703125 C 136.640625 478.835938 134.90625 474.925781 133.269531 470.972656 C 131.628906 467.019531 130.089844 463.027344 128.648438 459 C 127.207031 454.96875 125.863281 450.910156 124.621094 446.8125 C 123.378906 442.71875 122.238281 438.597656 121.199219 434.445312 C 120.15625 430.296875 119.21875 426.121094 118.386719 421.925781 C 117.550781 417.726562 116.820312 413.511719 116.191406 409.28125 C 115.5625 405.046875 115.039062 400.800781 114.621094 396.542969 C 114.199219 392.285156 113.886719 388.019531 113.675781 383.746094 C 113.464844 379.472656 113.359375 375.195312 113.359375 370.917969 C 113.359375 366.636719 113.464844 362.363281 113.675781 358.089844 C 113.886719 353.816406 114.199219 349.546875 114.621094 345.289062 C 115.039062 341.03125 115.5625 336.785156 116.191406 332.554688 C 116.820312 328.320312 117.550781 324.105469 118.386719 319.910156 C 119.21875 315.714844 120.15625 311.539062 121.199219 307.390625 C 122.238281 303.238281 123.378906 299.117188 124.621094 295.019531 C 125.863281 290.925781 127.207031 286.863281 128.648438 282.835938 C 130.089844 278.808594 131.628906 274.816406 133.269531 270.863281 C 134.90625 266.910156 136.640625 263 138.46875 259.128906 C 140.300781 255.261719 142.226562 251.441406 144.242188 247.667969 C 146.261719 243.894531 148.371094 240.171875 150.570312 236.503906 C 152.769531 232.832031 155.058594 229.21875 157.4375 225.660156 C 159.816406 222.101562 162.28125 218.605469 164.828125 215.167969 C 167.378906 211.730469 170.011719 208.359375 172.726562 205.050781 C 175.441406 201.746094 178.238281 198.503906 181.113281 195.335938 C 183.988281 192.164062 186.9375 189.066406 189.964844 186.039062 C 192.988281 183.015625 196.089844 180.066406 199.261719 177.191406 C 202.433594 174.316406 205.671875 171.523438 208.980469 168.808594 C 212.289062 166.09375 215.664062 163.464844 219.101562 160.914062 C 222.539062 158.367188 226.039062 155.902344 229.597656 153.523438 C 233.15625 151.148438 236.769531 148.859375 240.441406 146.660156 C 244.113281 144.460938 247.835938 142.351562 251.613281 140.335938 C 255.386719 138.316406 259.207031 136.394531 263.078125 134.566406 C 266.945312 132.734375 270.859375 131 274.8125 129.363281 C 278.769531 127.726562 282.761719 126.1875 286.789062 124.746094 C 290.820312 123.304688 294.882812 121.960938 298.980469 120.71875 C 303.074219 119.476562 307.199219 118.335938 311.351562 117.296875 C 315.503906 116.257812 319.679688 115.320312 323.878906 114.484375 C 328.074219 113.652344 332.292969 112.917969 336.523438 112.292969 C 340.757812 111.664062 345.007812 111.140625 349.265625 110.722656 C 353.523438 110.300781 357.792969 109.988281 362.066406 109.777344 C 366.34375 109.566406 370.621094 109.460938 374.902344 109.460938 C 379.179688 109.460938 383.460938 109.566406 387.734375 109.777344 C 392.007812 109.988281 396.277344 110.300781 400.535156 110.722656 C 404.796875 111.140625 409.042969 111.664062 413.277344 112.292969 C 417.511719 112.917969 421.726562 113.652344 425.925781 114.484375 C 430.125 115.320312 434.296875 116.257812 438.449219 117.296875 C 442.601562 118.335938 446.726562 119.476562 450.824219 120.71875 C 454.917969 121.960938 458.980469 123.304688 463.011719 124.746094 C 467.042969 126.1875 471.035156 127.726562 474.988281 129.363281 C 478.941406 131 482.855469 132.734375 486.722656 134.566406 C 490.59375 136.394531 494.414062 138.316406 498.191406 140.335938 C 501.964844 142.351562 505.6875 144.460938 509.359375 146.660156 C 513.03125 148.859375 516.648438 151.148438 520.207031 153.523438 C 523.765625 155.902344 527.261719 158.367188 530.699219 160.914062 C 534.140625 163.464844 537.511719 166.09375 540.820312 168.808594 C 544.128906 171.523438 547.371094 174.316406 550.542969 177.191406 C 553.710938 180.066406 556.8125 183.015625 559.839844 186.039062 C 562.867188 189.066406 565.816406 192.164062 568.691406 195.335938 C 571.566406 198.503906 574.359375 201.746094 577.074219 205.050781 C 579.789062 208.359375 582.421875 211.730469 584.972656 215.167969 C 587.523438 218.605469 589.988281 222.101562 592.363281 225.660156 C 594.742188 229.21875 597.03125 232.832031 599.234375 236.503906 C 601.433594 240.171875 603.542969 243.894531 605.558594 247.667969 C 607.578125 251.441406 609.5 255.261719 611.332031 259.128906 C 613.160156 263 614.894531 266.910156 616.535156 270.863281 C 618.171875 274.816406 619.710938 278.808594 621.152344 282.835938 C 622.59375 286.863281 623.9375 290.925781 625.179688 295.019531 C 626.421875 299.117188 627.5625 303.238281 628.605469 307.390625 C 629.644531 311.539062 630.582031 315.714844 631.417969 319.910156 C 632.25 324.105469 632.984375 328.320312 633.613281 332.554688 C 634.238281 336.785156 634.761719 341.03125 635.183594 345.289062 C 635.601562 349.546875 635.917969 353.816406 636.128906 358.089844 C 636.335938 362.363281 636.441406 366.636719 636.441406 370.917969 Z M 636.441406 370.917969 " fill-opacity="1" fill-rule="nonzero"/><path fill="#f76d28" d="M 551.359375 460.691406 C 556.601562 452.976562 554.65625 442.496094 547.015625 437.253906 C 539.300781 432.011719 528.816406 433.960938 523.570312 441.597656 L 495.710938 422.503906 L 514.808594 394.652344 C 507.09375 389.410156 505.148438 378.855469 510.464844 371.214844 C 515.707031 363.503906 526.269531 361.558594 533.90625 366.875 L 553.007812 339.023438 L 636.515625 396.300781 L 579.222656 479.78125 Z M 551.359375 460.691406 " fill-opacity="1" fill-rule="nonzero"/><g clip-path="url(#22ae71d0a4)"><path fill="#000000" d="M 581.394531 491.460938 L 539.675781 462.859375 L 544.46875 455.898438 C 547.089844 452.078125 546.117188 446.761719 542.296875 444.144531 C 538.476562 441.523438 533.234375 442.496094 530.539062 446.3125 L 525.746094 453.277344 L 484.027344 424.675781 L 503.949219 395.699219 C 497.808594 387.3125 497.285156 375.558594 503.5 366.5 C 509.714844 357.441406 520.875 353.695312 530.914062 356.390625 L 550.835938 327.339844 L 648.277344 394.128906 Z M 561.917969 457.695312 L 577.046875 468.027344 L 624.757812 398.46875 L 555.179688 350.777344 L 536.078125 378.628906 L 529.113281 373.835938 C 525.292969 371.21875 520.050781 372.191406 517.355469 376.007812 C 514.734375 379.828125 515.707031 385.144531 519.527344 387.761719 L 526.492188 392.554688 L 507.394531 420.40625 L 522.523438 430.742188 C 530.988281 424.601562 542.671875 424.078125 551.734375 430.292969 C 560.871094 436.503906 564.617188 447.585938 561.917969 457.695312 Z M 561.917969 457.695312 " fill-opacity="1" fill-rule="nonzero"/></g><path fill="#fcc18a" d="M 198.441406 239.515625 C 193.199219 231.804688 195.148438 221.320312 202.789062 216.082031 C 210.5 210.839844 220.988281 212.785156 226.230469 220.421875 L 254.09375 201.332031 L 234.992188 173.476562 C 242.707031 168.238281 244.65625 157.679688 239.335938 150.042969 C 234.09375 142.332031 223.535156 140.382812 215.894531 145.699219 L 196.796875 117.847656 L 113.285156 175.125 L 170.582031 258.609375 Z M 198.441406 239.515625 " fill-opacity="1" fill-rule="nonzero"/><g clip-path="url(#10f5c5b72e)"><path fill="#000000" d="M 168.484375 270.289062 L 101.675781 172.878906 L 199.117188 106.09375 L 219.039062 135.070312 C 222.636719 134.09375 226.453125 133.945312 230.199219 134.695312 C 236.867188 135.96875 242.632812 139.710938 246.453125 145.25 C 250.273438 150.792969 251.695312 157.53125 250.496094 164.195312 C 249.824219 167.9375 248.25 171.457031 246.078125 174.453125 L 266 203.425781 L 224.28125 232.027344 L 219.488281 225.066406 C 218.214844 223.195312 216.269531 221.921875 214.097656 221.546875 C 211.851562 221.171875 209.601562 221.621094 207.804688 222.894531 C 205.933594 224.167969 204.660156 226.113281 204.285156 228.285156 C 203.835938 230.53125 204.359375 232.777344 205.632812 234.574219 L 210.203125 241.6875 Z M 125.117188 177.296875 L 172.828125 246.851562 L 187.957031 236.519531 C 186.984375 232.925781 186.835938 229.109375 187.507812 225.363281 C 188.78125 218.703125 192.527344 212.9375 198.070312 209.117188 C 203.609375 205.300781 210.351562 203.875 217.019531 205.074219 C 220.761719 205.75 224.28125 207.320312 227.277344 209.492188 L 242.40625 199.160156 L 223.308594 171.308594 L 230.273438 166.515625 C 234.09375 163.894531 235.066406 158.652344 232.445312 154.761719 C 231.171875 152.886719 229.226562 151.691406 227.054688 151.242188 C 224.882812 150.867188 222.636719 151.316406 220.761719 152.589844 L 213.796875 157.378906 L 194.699219 129.527344 Z M 125.117188 177.296875 " fill-opacity="1" fill-rule="nonzero"/></g><path fill="#ffffff" d="M 341.199219 294.996094 C 341.199219 285.710938 348.761719 278.148438 358.050781 278.148438 L 358.050781 244.382812 L 391.828125 244.382812 C 391.828125 253.667969 399.390625 261.230469 408.679688 261.230469 C 417.96875 261.230469 425.53125 253.667969 425.53125 244.382812 L 459.308594 244.382812 L 459.308594 278.148438 C 468.597656 278.148438 476.164062 285.710938 476.164062 294.996094 C 476.164062 304.28125 468.597656 311.84375 459.308594 311.84375 L 459.308594 345.609375 L 425.53125 345.609375 C 425.53125 336.324219 417.96875 328.765625 408.679688 328.765625 C 399.390625 328.765625 391.828125 336.324219 391.828125 345.609375 L 358.050781 345.609375 L 358.050781 311.84375 C 348.761719 311.84375 341.199219 304.28125 341.199219 294.996094 Z M 341.199219 294.996094 " fill-opacity="1" fill-rule="nonzero"/><path fill="#000000" d="M 467.699219 353.996094 L 417.066406 353.996094 L 417.066406 345.535156 C 417.066406 340.894531 413.324219 337.074219 408.605469 337.074219 C 403.960938 337.074219 400.140625 340.894531 400.140625 345.535156 L 400.140625 353.996094 L 349.511719 353.996094 L 349.511719 318.804688 C 339.699219 315.363281 332.660156 305.929688 332.660156 294.921875 C 332.660156 283.914062 339.699219 274.554688 349.511719 271.039062 L 349.511719 235.847656 L 400.140625 235.847656 L 400.140625 244.308594 C 400.140625 248.949219 403.886719 252.769531 408.605469 252.769531 C 413.25 252.769531 417.066406 248.949219 417.066406 244.308594 L 417.066406 235.847656 L 467.699219 235.847656 L 467.699219 271.039062 C 477.511719 274.480469 484.550781 283.914062 484.550781 294.921875 C 484.550781 305.929688 477.511719 315.285156 467.699219 318.804688 Z M 432.570312 337.148438 L 450.921875 337.148438 L 450.921875 303.382812 L 459.386719 303.382812 C 464.027344 303.382812 467.847656 299.5625 467.847656 294.921875 C 467.847656 290.28125 464.105469 286.460938 459.386719 286.460938 L 450.921875 286.460938 L 450.921875 252.691406 L 432.570312 252.691406 C 429.050781 262.652344 419.691406 269.691406 408.679688 269.691406 C 397.667969 269.691406 388.308594 262.652344 384.789062 252.84375 L 366.4375 252.84375 L 366.4375 286.609375 L 357.972656 286.609375 C 353.332031 286.609375 349.511719 290.429688 349.511719 295.070312 C 349.511719 299.714844 353.332031 303.53125 357.972656 303.53125 L 366.4375 303.53125 L 366.4375 337.300781 L 384.789062 337.300781 C 388.308594 327.492188 397.667969 320.453125 408.679688 320.453125 C 419.691406 320.304688 429.050781 327.339844 432.570312 337.148438 Z M 432.570312 337.148438 " fill-opacity="1" fill-rule="nonzero"/><path fill="#d4d4d4" d="M 374.902344 193.769531 C 374.902344 184.484375 367.335938 176.921875 358.050781 176.921875 L 358.050781 143.15625 L 459.308594 143.15625 L 459.308594 176.921875 C 454.667969 176.921875 450.472656 178.792969 447.402344 181.863281 C 444.257812 184.933594 442.457031 189.125 442.457031 193.769531 C 442.457031 203.054688 450.023438 210.613281 459.308594 210.613281 L 459.308594 244.382812 L 425.53125 244.382812 C 425.53125 253.667969 417.96875 261.230469 408.679688 261.230469 C 399.390625 261.230469 391.828125 253.667969 391.828125 244.382812 L 358.050781 244.382812 L 358.050781 210.613281 C 367.335938 210.613281 374.902344 203.054688 374.902344 193.769531 Z M 374.902344 193.769531 " fill-opacity="1" fill-rule="nonzero"/><path fill="#000000" d="M 408.679688 269.691406 C 397.667969 269.691406 388.308594 262.652344 384.789062 252.84375 L 349.585938 252.84375 L 349.585938 202.230469 L 358.050781 202.230469 C 362.691406 202.230469 366.511719 198.410156 366.511719 193.769531 C 366.511719 189.125 362.691406 185.308594 358.050781 185.308594 L 349.585938 185.308594 L 349.585938 134.695312 L 467.699219 134.695312 L 467.699219 185.308594 L 459.234375 185.308594 C 456.988281 185.308594 454.890625 186.132812 453.394531 187.703125 C 451.671875 189.351562 450.847656 191.449219 450.847656 193.695312 C 450.847656 198.335938 454.589844 202.15625 459.308594 202.15625 L 467.773438 202.15625 L 467.773438 252.769531 L 432.570312 252.769531 C 429.050781 262.652344 419.691406 269.691406 408.679688 269.691406 Z M 366.511719 235.921875 L 400.292969 235.921875 L 400.292969 244.382812 C 400.292969 249.023438 404.035156 252.84375 408.753906 252.84375 C 413.398438 252.84375 417.21875 249.023438 417.21875 244.382812 L 417.21875 235.921875 L 450.996094 235.921875 L 450.996094 217.578125 C 441.183594 214.132812 434.144531 204.699219 434.144531 193.695312 C 434.144531 186.878906 436.839844 180.515625 441.710938 175.722656 C 444.332031 173.027344 447.550781 171.007812 451.070312 169.808594 L 451.070312 151.539062 L 366.511719 151.539062 L 366.511719 169.882812 C 376.324219 173.328125 383.363281 182.761719 383.363281 193.769531 C 383.363281 204.773438 376.324219 214.132812 366.511719 217.652344 Z M 366.511719 235.921875 " fill-opacity="1" fill-rule="nonzero"/><path fill="#d1f7ff" d="M 256.789062 345.609375 L 256.789062 244.382812 L 290.566406 244.382812 C 290.566406 235.097656 298.132812 227.535156 307.417969 227.535156 C 316.707031 227.535156 324.269531 235.097656 324.269531 244.382812 L 358.050781 244.382812 L 358.050781 278.148438 C 348.761719 278.148438 341.199219 285.710938 341.199219 294.996094 C 341.199219 304.28125 348.761719 311.84375 358.050781 311.84375 L 358.050781 345.609375 Z M 256.789062 345.609375 " fill-opacity="1" fill-rule="nonzero"/><path fill="#000000" d="M 366.511719 353.996094 L 248.398438 353.996094 L 248.398438 235.921875 L 283.601562 235.921875 C 287.046875 226.113281 296.484375 219.074219 307.492188 219.074219 C 318.503906 219.074219 327.867188 226.113281 331.386719 235.921875 L 366.585938 235.921875 L 366.585938 286.535156 L 358.125 286.535156 C 353.480469 286.535156 349.660156 290.355469 349.660156 294.996094 C 349.660156 299.636719 353.480469 303.457031 358.125 303.457031 L 366.585938 303.457031 L 366.585938 353.996094 Z M 265.25 337.148438 L 349.585938 337.148438 L 349.585938 318.804688 C 339.773438 315.363281 332.734375 305.929688 332.734375 294.921875 C 332.734375 283.914062 339.773438 274.554688 349.585938 271.039062 L 349.585938 252.695312 L 315.808594 252.695312 L 315.808594 244.234375 C 315.808594 239.589844 311.988281 235.773438 307.34375 235.773438 C 302.699219 235.773438 298.878906 239.589844 298.878906 244.234375 L 298.878906 252.695312 L 265.101562 252.695312 L 265.101562 337.148438 Z M 265.25 337.148438 " fill-opacity="1" fill-rule="nonzero"/><path fill="#2fd7f3" d="M 147.4375 424.976562 C 155.75 420.707031 158.972656 410.523438 154.703125 402.289062 C 150.433594 393.976562 140.246094 390.757812 132.007812 395.027344 L 116.582031 365.003906 L 146.613281 349.578125 C 142.34375 341.269531 145.640625 331.160156 153.878906 326.890625 C 162.191406 322.625 172.304688 325.917969 176.574219 334.15625 L 206.605469 318.730469 L 252.894531 408.726562 L 162.867188 455 Z M 147.4375 424.976562 " fill-opacity="1" fill-rule="nonzero"/><path fill="#000000" d="M 159.195312 466.304688 L 136.054688 421.304688 L 143.542969 417.414062 C 145.566406 416.363281 147.0625 414.644531 147.738281 412.472656 C 148.410156 410.300781 148.261719 408.054688 147.214844 406.03125 C 145.117188 401.914062 139.949219 400.265625 135.828125 402.363281 L 128.339844 406.183594 L 105.195312 361.183594 L 136.503906 345.085938 C 135.980469 341.417969 136.351562 337.597656 137.476562 333.929688 C 139.574219 327.492188 143.992188 322.25 149.984375 319.179688 C 155.976562 316.109375 162.867188 315.511719 169.308594 317.609375 C 172.976562 318.804688 176.273438 320.753906 178.96875 323.296875 L 210.203125 307.277344 L 264.203125 412.246094 Z M 158.148438 427.371094 L 166.535156 443.617188 L 241.585938 405.058594 L 203.011719 330.035156 L 172.976562 345.460938 L 169.160156 337.972656 C 168.109375 335.953125 166.386719 334.527344 164.214844 333.78125 C 162.042969 333.105469 159.796875 333.257812 157.773438 334.304688 C 155.75 335.351562 154.253906 337.074219 153.578125 339.246094 C 152.90625 341.417969 153.054688 343.664062 154.105469 345.683594 L 158 353.171875 L 127.964844 368.597656 L 136.351562 384.917969 C 146.6875 383.496094 157.25 388.664062 162.269531 398.394531 C 165.339844 404.386719 165.9375 411.273438 163.839844 417.710938 C 162.640625 421.382812 160.695312 424.601562 158.148438 427.371094 Z M 158.148438 427.371094 " fill-opacity="1" fill-rule="nonzero"/><path fill="#2fd7f3" d="M 575.25 160 L 636.441406 240.640625 L 609.554688 261.003906 C 615.171875 268.417969 613.671875 279.046875 606.332031 284.664062 C 598.917969 290.28125 588.285156 288.78125 582.664062 281.445312 L 555.777344 301.808594 L 535.40625 274.929688 C 542.820312 269.316406 544.242188 258.683594 538.625 251.269531 C 533.007812 243.859375 522.375 242.4375 514.957031 248.050781 L 494.585938 221.171875 L 521.476562 200.808594 C 515.859375 193.394531 517.355469 182.761719 524.695312 177.148438 C 532.109375 171.53125 542.746094 173.027344 548.363281 180.367188 Z M 575.25 160 " fill-opacity="1" fill-rule="nonzero"/><g clip-path="url(#d11e3ee7cd)"><path fill="#000000" d="M 554.207031 313.640625 L 523.648438 273.359375 L 530.386719 268.265625 C 534.058594 265.421875 534.808594 260.179688 532.035156 256.4375 C 530.6875 254.640625 528.738281 253.515625 526.492188 253.21875 C 524.246094 252.917969 522 253.515625 520.277344 254.863281 L 513.535156 259.957031 L 482.976562 219.601562 L 510.988281 198.335938 C 509.867188 194.816406 509.492188 191 510.015625 187.179688 C 510.914062 180.441406 514.433594 174.527344 519.753906 170.484375 C 528.515625 163.820312 540.273438 163.820312 548.960938 169.511719 L 576.972656 148.246094 L 648.351562 242.285156 L 620.339844 263.550781 C 621.464844 267.070312 621.835938 270.886719 621.3125 274.707031 C 620.414062 281.445312 616.894531 287.359375 611.578125 291.402344 C 606.183594 295.445312 599.59375 297.167969 592.851562 296.269531 C 589.03125 295.746094 585.511719 294.398438 582.367188 292.375 Z M 546.339844 275.453125 L 557.425781 290.054688 L 584.3125 269.691406 L 589.40625 276.429688 C 590.753906 278.226562 592.703125 279.347656 594.949219 279.648438 C 597.195312 279.945312 599.441406 279.347656 601.164062 278 C 602.964844 276.652344 604.085938 274.707031 604.386719 272.386719 C 604.6875 270.140625 604.085938 267.890625 602.738281 266.171875 L 597.644531 259.433594 L 624.535156 239.066406 L 573.527344 171.90625 L 546.640625 192.269531 L 541.546875 185.53125 C 538.777344 181.863281 533.457031 181.113281 529.714844 183.886719 C 527.917969 185.234375 526.792969 187.179688 526.492188 189.425781 C 526.195312 191.671875 526.792969 193.917969 528.140625 195.640625 L 533.234375 202.378906 L 506.347656 222.746094 L 517.429688 237.34375 C 520.949219 236.222656 524.769531 235.921875 528.589844 236.371094 C 535.332031 237.269531 541.246094 240.789062 545.292969 246.105469 C 552.03125 255.015625 552.109375 266.695312 546.339844 275.453125 Z M 546.339844 275.453125 " fill-opacity="1" fill-rule="nonzero"/></g><path fill="#fabf88" d="M 476.085938 598.605469 C 476.085938 598.605469 465.226562 562.367188 465.226562 547.316406 C 465.226562 536.386719 465.226562 484.425781 465.226562 484.425781 L 458.785156 448.410156 C 458.785156 438.453125 451.296875 429.46875 441.335938 428.945312 C 430.699219 428.417969 421.863281 436.878906 421.863281 447.363281 L 421.863281 428.195312 C 421.863281 418.238281 414.371094 409.253906 404.410156 408.726562 C 393.773438 408.203125 384.9375 416.589844 384.9375 427.148438 L 384.9375 419.359375 C 384.9375 412.621094 382.839844 406.03125 378.496094 400.867188 C 364.640625 384.617188 350.109375 402.664062 348.238281 416.515625 C 348.164062 417.039062 347.414062 417.113281 347.265625 416.589844 L 317.230469 323.746094 C 310.789062 310.871094 310.039062 305.703125 301.5 303.90625 C 289.441406 301.359375 285.398438 310.421875 285.398438 321.949219 L 311.015625 431.863281 C 311.988281 435.90625 312.585938 439.949219 312.960938 444.066406 L 317.15625 490.9375 C 317.15625 490.9375 276.113281 460.765625 250.421875 467.203125 C 247.277344 467.953125 231.773438 475.738281 237.539062 480.082031 C 261.957031 498.351562 297.308594 521.484375 301.726562 526.800781 C 302.324219 527.550781 354.976562 580.1875 362.09375 587.375 L 381.417969 607.066406 Z M 476.085938 598.605469 " fill-opacity="1" fill-rule="nonzero"/><path fill="#000000" d="M 381.492188 618.96875 L 356.25 593.214844 C 352.957031 589.917969 340.148438 577.042969 327.117188 563.9375 C 296.035156 532.792969 295.882812 532.640625 295.433594 532.117188 C 293.1875 529.722656 278.65625 519.539062 266.972656 511.304688 C 255.816406 503.515625 243.15625 494.605469 232.597656 486.671875 C 228.925781 483.976562 227.277344 479.78125 228.175781 475.515625 C 230.347656 464.808594 248.324219 458.96875 248.472656 458.890625 C 267.574219 454.101562 291.839844 465.257812 307.269531 474.316406 L 304.648438 444.667969 C 304.347656 440.921875 303.75 437.253906 302.851562 433.585938 L 277.011719 321.800781 C 277.011719 311.242188 279.855469 303.605469 285.472656 299.039062 C 288.695312 296.417969 294.460938 293.648438 303.222656 295.519531 C 314.308594 297.839844 317.605469 304.878906 321.800781 313.789062 C 322.621094 315.585938 323.597656 317.609375 324.71875 319.855469 L 325.167969 321.050781 L 349.0625 394.953125 C 352.355469 391.132812 356.476562 388.210938 361.121094 386.789062 C 365.988281 385.367188 375.574219 384.542969 384.789062 395.402344 C 386.882812 397.871094 388.683594 400.714844 390.03125 403.710938 C 394.449219 401.164062 399.390625 399.96875 404.710938 400.265625 C 417.144531 400.941406 427.253906 410.300781 429.652344 422.578125 C 433.394531 421.007812 437.367188 420.332031 441.632812 420.484375 C 455.640625 421.230469 466.648438 433.0625 467.097656 447.585938 L 473.539062 484.425781 L 473.539062 547.316406 C 473.539062 558.621094 481.105469 586.476562 484.027344 596.210938 L 486.421875 604.296875 L 470.246094 609.160156 L 467.847656 601.074219 C 466.726562 597.257812 456.613281 563.191406 456.613281 547.390625 L 456.613281 485.246094 L 450.171875 448.484375 C 450.171875 442.644531 445.902344 437.703125 440.734375 437.480469 C 437.964844 437.328125 435.269531 438.300781 433.320312 440.25 C 431.296875 442.195312 430.175781 444.742188 430.175781 447.511719 L 413.324219 447.511719 L 413.324219 428.34375 C 413.324219 422.503906 409.054688 417.5625 403.886719 417.339844 C 401.113281 417.1875 398.492188 418.160156 396.472656 420.035156 C 394.449219 421.980469 393.324219 424.527344 393.324219 427.296875 L 376.472656 427.296875 L 376.472656 419.507812 C 376.472656 414.492188 374.902344 409.925781 371.980469 406.480469 C 368.535156 402.363281 366.585938 402.960938 365.988281 403.1875 C 361.945312 404.386719 357.375 411.5 356.550781 417.789062 L 355.652344 424.601562 L 348.386719 425.5 C 344.191406 425.800781 340.296875 423.101562 339.101562 419.058594 L 309.292969 327.042969 C 308.242188 324.871094 307.269531 322.925781 306.445312 321.203125 C 302.550781 312.890625 302.25 312.816406 299.628906 312.292969 C 297.90625 311.917969 296.484375 311.992188 295.960938 312.367188 C 295.210938 312.964844 293.863281 315.585938 293.710938 321.125 L 319.101562 429.992188 C 320.152344 434.335938 320.824219 438.902344 321.273438 443.394531 L 327.117188 508.90625 L 312.0625 497.828125 C 301.5 490.113281 270.269531 471.023438 252.371094 475.515625 C 251.46875 475.8125 249.746094 476.636719 248.101562 477.609375 C 257.164062 484.273438 267.347656 491.386719 276.484375 497.75 C 297.082031 512.203125 305.171875 517.96875 308.09375 521.484375 C 308.992188 522.382812 323.972656 537.433594 338.800781 552.332031 C 351.832031 565.4375 364.714844 578.3125 368.011719 581.683594 L 393.25 607.441406 Z M 381.492188 618.96875 " fill-opacity="1" fill-rule="nonzero"/><path fill="#7f7f7f" d="M 371.753906 564.835938 C 350.933594 564.835938 336.929688 586.101562 345.09375 605.269531 L 357.300781 631.699219 C 363.140625 632.074219 368.984375 632.371094 374.828125 632.371094 C 418.714844 632.371094 459.984375 621.515625 496.308594 602.5 L 479.609375 564.914062 L 371.753906 564.914062 Z M 371.753906 564.835938 " fill-opacity="1" fill-rule="nonzero"/><path fill="#000000" d="M 353.253906 642.855469 L 337.527344 608.789062 C 332.433594 596.957031 333.632812 583.78125 340.597656 573.222656 C 347.5625 562.667969 359.246094 556.375 371.832031 556.375 L 485.226562 556.375 L 507.617188 606.691406 L 492.191406 613.503906 L 474.289062 573.222656 L 371.753906 573.222656 C 364.714844 573.222656 358.5 576.59375 354.605469 582.433594 C 350.710938 588.273438 350.109375 595.386719 352.882812 601.824219 L 368.535156 635.667969 Z M 353.253906 642.855469 " fill-opacity="1" fill-rule="nonzero"/></svg>